<svg width="395" height="210" viewBox="0 0 395 210" fill="none" xmlns="http://www.w3.org/2000/svg">
<g clip-path="url(#clip0_1_2)">
<path d="M395 0H0V210H395V0Z" fill="#C5B3B3"/>
<mask id="mask0_1_2" style="mask-type:luminance" maskUnits="userSpaceOnUse" x="43" y="43" width="95" height="124">
<path d="M43.0654 43.0128H137.049V166.987H43.0654V43.0128Z" fill="white"/>
</mask>
<g mask="url(#mask0_1_2)">
<mask id="mask1_1_2" style="mask-type:luminance" maskUnits="userSpaceOnUse" x="43" y="43" width="95" height="124">
<path d="M43.0654 43.0128H137.049V166.987H43.0654V43.0128Z" fill="white"/>
</mask>
<g mask="url(#mask1_1_2)">
<path d="M121.431 149.127C119.272 143.585 117.886 137.388 117.914 131.506C117.817 127.446 117.844 123.345 120.148 119.901C121.415 117.938 123.502 115.813 125.075 113.948C134.618 102.869 139.04 89.0243 136.199 74.9834C129.095 42.8514 86.1652 32.8079 62.5536 54.6999C53.1791 63.2296 48.3514 76.0733 50.8992 88.6805C52.4889 94.3645 50.5927 96.7025 47.1472 102.465C45.8862 104.621 43.788 107.057 43.074 109.301C42.9106 111.284 45.1207 112.829 46.725 113.884C48.5827 115.007 48.9076 116.049 48.1495 117.714C46.6406 120.982 48.278 120.882 49.4693 123.409C49.6951 124.217 49.0379 125.146 49.0746 126.105C49.0801 126.598 49.2233 127.071 49.4932 127.486C50.1154 128.556 51.5692 129.082 51.8758 130.325C52.0593 132.612 50.6918 135.106 52.0318 137.275C54.8366 142.057 61.2705 141.267 67.0472 140.23C67.5942 137.981 67.9118 135.672 67.9007 133.432C67.9613 130.858 67.9448 128.256 66.4836 126.071C65.6796 124.826 64.3562 123.478 63.3594 122.295C57.3055 115.269 54.5007 106.486 56.3033 97.5795C60.8097 77.1977 88.0412 70.8259 103.018 84.7122C108.965 90.1233 112.027 98.2691 110.41 106.266C109.402 109.872 110.605 111.355 112.791 115.01C113.591 116.378 114.922 117.923 115.375 119.346C115.48 120.603 114.076 121.584 113.059 122.254C111.88 122.967 111.675 123.627 112.156 124.684C113.114 126.757 112.075 126.693 111.319 128.296C111.175 128.809 111.592 129.399 111.568 130.006C111.565 130.319 111.475 130.619 111.302 130.883C110.907 131.562 109.986 131.895 109.791 132.683C109.674 134.133 110.542 135.716 109.692 137.091C107.477 140.867 101.694 139.166 97.59 138.505C96.0077 138.263 94.3887 137.901 93.0891 138.86C90.9139 140.483 89.6565 144.771 89.4197 147.371C88.423 158.308 97.8195 166.987 103.576 166.987H130.745C130.583 166.689 130.426 166.398 130.259 166.087C127.177 160.797 123.373 153.683 121.431 149.127ZM61.3439 59.8053C62.9427 59.8053 64.2368 61.0899 64.2368 62.6728C64.2368 64.2558 62.9409 65.5403 61.3439 65.5403C59.7469 65.5403 58.451 64.2558 58.451 62.6728C58.451 61.0899 59.7469 59.8053 61.3439 59.8053ZM60.2719 82.7963C56.8136 82.7963 54.0088 80.0161 54.0088 76.5882C54.0088 73.1603 56.8136 70.3801 60.2719 70.3801C63.7302 70.3801 66.535 73.1603 66.535 76.5882C66.535 80.0161 63.7302 82.7963 60.2719 82.7963ZM69.9713 75.0416C68.8553 75.0416 67.9503 74.1446 67.9503 73.0384C67.9503 71.9322 68.8553 71.0351 69.9713 71.0351C71.0874 71.0351 71.9923 71.9322 71.9923 73.0384C71.9923 74.1446 71.0874 75.0416 69.9713 75.0416ZM79.5202 71.8612C73.7013 71.8612 68.9838 67.1851 68.9838 61.4174C68.9838 55.6496 73.7013 50.9736 79.5202 50.9736C85.3391 50.9736 90.0567 55.6496 90.0567 61.4174C90.0567 67.1851 85.3391 71.8612 79.5202 71.8612ZM128.763 99.0187C126.677 99.0187 124.987 97.343 124.987 95.2761C124.987 93.2091 126.677 91.5334 128.763 91.5334C130.848 91.5334 132.538 93.2091 132.538 95.2761C132.538 97.343 130.848 99.0187 128.763 99.0187ZM130.244 72.3834C132.311 72.3834 133.985 74.0427 133.985 76.0915C133.985 78.1402 132.311 79.7996 130.244 79.7996C128.177 79.7996 126.503 78.1384 126.503 76.0915C126.503 74.0446 128.177 72.3834 130.244 72.3834ZM123.933 59.3432C125.613 59.3432 126.975 60.6932 126.975 62.358C126.975 64.0229 125.613 65.3729 123.933 65.3729C122.253 65.3729 120.891 64.0229 120.891 62.358C120.891 60.6932 122.253 59.3432 123.933 59.3432ZM121.888 67.9639C123.599 67.9639 124.987 69.3394 124.987 71.0351C124.987 72.7309 123.599 74.1064 121.888 74.1064C120.177 74.1064 118.79 72.7309 118.79 71.0351C118.79 69.3394 120.177 67.9639 121.888 67.9639ZM99.1595 46.9707C102.581 46.9707 105.357 49.7199 105.357 53.1133C105.357 56.5066 102.583 59.2558 99.1595 59.2558C95.7361 59.2558 92.9624 56.5066 92.9624 53.1133C92.9624 49.7199 95.7361 46.9707 99.1595 46.9707ZM102.01 78.5205C97.8397 78.5205 94.4585 75.169 94.4585 71.0351C94.4585 66.9013 97.8397 63.5498 102.01 63.5498C106.181 63.5498 109.562 66.9013 109.562 71.0351C109.562 75.169 106.181 78.5205 102.01 78.5205ZM108.262 59.8053C108.262 57.4418 110.195 55.5259 112.58 55.5259C114.964 55.5259 116.897 57.4418 116.897 59.8053C116.897 62.1688 114.964 64.0847 112.58 64.0847C110.195 64.0847 108.262 62.1688 108.262 59.8053ZM111.398 86.0076C111.398 81.8738 114.779 78.5223 118.949 78.5223C123.12 78.5223 126.501 81.8738 126.501 86.0076C126.501 90.1415 123.12 93.493 118.949 93.493C114.779 93.493 111.398 90.1415 111.398 86.0076ZM112.914 105.001C112.914 101.697 115.616 99.0187 118.951 99.0187C122.286 99.0187 124.987 101.697 124.987 105.001C124.987 108.305 122.285 110.985 118.951 110.985C115.618 110.985 112.914 108.307 112.914 105.001Z" fill="#574848"/>
</g>
</g>
<path d="M167.861 110.743C167.861 110.436 167.473 109.207 167.783 108.9C167.938 108.285 167.628 107.517 167.783 106.826C168.248 98.7619 172.51 85.3987 175.221 77.5651C175.919 75.4915 176.461 73.1875 177.236 71.1139L177.158 70.6531C176.306 69.5779 176.306 69.8851 175.221 69.2707C174.369 69.1939 172.742 69.8851 172.2 70.0387L172.045 70.4227L172.122 70.9603C168.248 81.1747 163.134 93.1555 162.437 104.292C162.282 108.208 162.902 109.975 165.071 113.2C165.769 113.508 167.086 113.508 167.861 113.508C167.628 113.277 167.396 113.047 167.396 112.816C167.396 112.816 167.473 112.586 167.551 112.432C167.628 112.74 167.861 112.74 168.093 112.74C168.093 111.972 167.628 111.357 167.628 110.973V110.666M201.333 70.4995L201.565 70.4227C201.72 70.3459 201.72 70.3459 201.72 70.1923C201.565 69.8851 201.488 69.5779 201.41 69.2707C199.318 64.4323 191.183 63.7411 186.456 63.7411C179.173 63.7411 172.82 65.4307 165.691 67.7347C161.43 69.2707 154.302 72.1891 149.653 72.1891C149.188 72.1891 149.11 72.1891 148.723 71.9587C148.8 72.4963 149.188 72.7267 149.498 72.9571C149.73 73.4179 150.273 74.0323 150.582 74.3395C150.582 74.5699 150.815 74.6467 150.815 74.9539C151.125 75.1075 151.822 75.2611 152.132 75.4147C152.287 75.4147 152.442 75.4147 152.597 75.4147C157.013 75.4147 161.042 73.1875 165.149 71.9587C171.657 69.8851 179.948 67.5043 187.618 67.5043C190.95 67.5043 197.071 68.0419 199.396 70.8067L199.628 70.4995L199.473 71.1139C199.473 71.3443 199.706 71.5747 199.706 71.8819C199.86 71.9587 200.093 72.1891 200.093 72.1891L200.325 72.0355L200.48 71.7283L200.945 71.2675H201.333C201.333 70.9603 201.41 70.8835 201.333 70.4995ZM195.678 90.7747C196.298 90.7747 196.918 90.7747 197.538 90.8515L197.693 90.7747L197.46 90.4675L197.538 90.3139L197.46 90.0067L197.693 89.9299L197.615 89.8531L198.39 89.2387C198.08 88.5475 196.763 88.3939 195.446 88.3939C194.516 88.3939 193.509 88.4707 193.044 88.4707C191.339 88.6243 189.092 89.0851 187.233 89.6995C187.698 88.9315 187.775 89.7763 188.085 88.6243C187.465 87.6259 186.071 86.7043 184.831 86.7043C184.444 86.7043 184.056 86.7811 183.746 86.9347C182.816 87.2419 175.301 99.2227 175.766 106.288C175.843 109.207 178.4 111.05 181.189 111.05C183.901 110.973 186.691 106.98 187.62 104.752C188.55 102.372 189.945 97.5331 189.79 94.9219C189.712 93.9235 189.557 92.7715 189.17 91.8499C191.184 91.3891 193.276 90.9283 195.678 90.7747ZM180.337 107.901C180.26 106.442 181.267 102.295 182.352 99.2227C182.662 98.7619 183.979 95.2291 185.606 92.6179C185.761 93.0019 185.916 93.2323 185.916 93.6163C186.226 97.3027 183.669 105.367 180.957 108.208C180.879 108.439 180.802 108.669 180.492 108.669C180.415 108.362 180.415 108.132 180.337 107.901ZM197.847 108.669V108.132C197.847 105.213 198.7 100.452 199.862 97.1491C200.482 95.6899 200.559 94.9219 200.947 94.0003C201.721 92.0803 203.736 84.8611 199.707 84.8611C199.165 84.8611 197.692 84.6307 197.227 84.6307C197.227 84.6307 197.073 84.7075 196.918 84.9379C197.305 85.5523 196.84 86.0131 196.84 86.6275C196.84 88.3171 195.523 92.7715 195.213 94.0003C193.973 98.0707 192.579 102.295 192.579 106.596C192.579 108.746 192.889 109.207 194.438 110.743C194.903 111.204 198.235 111.741 198.932 111.741C199.165 111.741 199.319 111.664 199.397 111.588C199.629 111.434 200.017 111.434 200.172 111.05C202.729 109.207 206.835 98.5315 207.455 96.6115C208.54 96.7651 209.857 96.9187 210.864 96.9187C211.329 96.9187 211.794 96.9187 212.026 96.7651C212.646 96.3811 212.569 96.3043 212.879 96.1507C212.724 96.1507 212.646 96.1507 212.414 95.9971C212.724 95.7667 212.956 95.9203 213.111 95.7667C213.421 95.5363 213.886 94.9987 213.963 94.8451L214.118 94.7683L208.075 93.8467C208.54 92.3107 209.16 89.2387 207.61 89.0083L206.68 88.8547C206.215 88.8547 206.293 88.9315 206.06 88.9315C206.06 88.9315 205.905 88.9315 205.75 88.9315C205.75 88.9315 205.595 89.0083 205.595 89.2387C204.821 90.2371 204.123 93.2323 204.123 94.9219C203.736 96.6115 199.629 106.98 197.847 108.669Z" fill="#574848"/>
<path d="M159.596 144.646C159.596 140.396 160.009 135.763 160.423 132C160.448 131.667 160.164 131.283 159.803 131.283C159.286 131.283 158.976 131.283 158.976 131.897C158.976 132.588 158.95 133.254 158.899 133.894C158.692 137.248 158.382 140.652 158.382 143.98C158.382 144.441 158.098 145.184 158.15 145.44C158.382 145.875 158.692 146.156 159.235 146.156C159.312 146.156 159.415 146.156 159.467 146.131C160.164 145.926 162.592 145.516 162.592 144.595C162.592 144.39 162.437 144.16 162.256 144.185C161.662 144.339 160.5 144.646 159.596 144.646ZM165.214 131.897C164.568 132.256 164.62 132.256 164.542 132.921C164.31 135.404 164.026 137.939 163.845 140.422C163.716 142.009 163.664 143.648 163.664 145.26C163.664 145.619 163.768 146.208 164.258 146.208C165.575 146.182 166.454 145.465 167.538 145.312C167.848 145.286 168.055 145.184 168.055 144.876C168.055 144.364 167.461 144.211 167.022 144.211C166.428 144.211 165.73 144.595 165.111 144.774C165.085 142.982 165.136 141.395 165.369 139.654C165.42 139.296 165.343 138.937 165.653 138.86C166.144 138.732 166.918 138.707 167.409 138.656C167.564 138.63 167.771 138.528 167.926 138.528C168.132 138.451 168.313 138.169 168.313 137.964C168.313 137.683 168.106 137.606 167.797 137.606L165.601 137.529C165.73 136.454 165.782 134.56 166.014 133.356C166.066 133.126 166.169 132.947 166.169 132.742C166.169 132.563 165.963 132.384 165.86 132.281L168.081 132.153C168.365 132.153 168.571 132.025 168.546 131.718C168.494 130.976 167.667 130.822 166.893 130.822C166.428 130.822 165.989 130.873 165.705 130.899C165.395 130.924 165.266 131.078 165.162 131.334M172.691 132.64C172.82 132.64 172.975 132.64 173.13 132.64C173.44 132.64 173.75 132.64 173.879 132.64C174.112 132.665 174.293 132.46 174.293 132.23C174.267 131.923 174.112 131.667 173.828 131.513C173.544 131.385 172.381 131.308 171.271 131.308C170.909 131.308 170.574 131.308 170.264 131.334C170.238 131.334 170.212 131.334 170.212 131.334C169.98 131.334 169.773 131.232 169.54 131.232C169.54 131.232 169.515 131.232 169.489 131.232C169.308 131.232 169.127 131.411 169.153 131.616C169.153 131.744 169.127 131.923 169.256 132.025C169.308 132.409 169.463 132.742 169.928 132.716C170.393 132.691 170.109 132.665 170.599 132.64C170.909 132.64 171.064 132.64 171.064 132.947C171.038 134.227 170.806 136.812 170.703 138.502C170.548 140.652 170.315 143.084 170.367 145.286C170.393 145.875 170.651 146.361 171.323 146.336C171.632 146.336 171.917 146.156 171.917 145.824C171.917 145.516 171.762 145.26 171.736 144.953C171.684 142.905 172.175 135.942 172.356 134.176C172.407 133.664 172.407 133.126 172.691 132.64ZM175.701 144.544C175.572 144.518 175.236 144.928 175.236 145.056C175.287 145.747 175.907 146.259 176.605 146.259C178.413 146.054 179.007 143.059 178.877 141.574C178.645 139.116 176.76 137.606 176.605 136.172C176.475 134.816 177.715 132.742 179.187 132.716C179.239 132.742 179.291 132.768 179.342 132.768C179.704 132.768 179.73 132.076 179.678 131.897C179.549 131.462 179.11 131.411 178.722 131.411C176.475 131.59 175.21 134.713 175.365 136.326C175.52 138.272 177.405 139.654 177.586 141.728C177.741 143.264 177.173 144.851 176.346 144.928C176.088 144.953 175.959 144.774 175.701 144.544ZM181.989 131.897C181.343 132.256 181.395 132.256 181.318 132.921C181.085 135.404 180.801 137.939 180.62 140.422C180.491 142.009 180.439 143.648 180.439 145.26C180.439 145.619 180.543 146.208 181.033 146.208C182.351 146.182 183.229 145.465 184.313 145.312C184.623 145.286 184.83 145.184 184.83 144.876C184.83 144.364 184.236 144.211 183.797 144.211C183.203 144.211 182.506 144.595 181.886 144.774C181.86 142.982 181.912 141.395 182.144 139.654C182.196 139.296 182.118 138.937 182.428 138.86C182.919 138.732 183.694 138.707 184.184 138.656C184.339 138.63 184.546 138.528 184.701 138.528C184.908 138.451 185.088 138.169 185.088 137.964C185.088 137.683 184.882 137.606 184.572 137.606L182.376 137.529C182.506 136.454 182.557 134.56 182.79 133.356C182.841 133.126 182.945 132.947 182.945 132.742C182.945 132.563 182.738 132.384 182.635 132.281L184.856 132.153C185.14 132.153 185.347 132.025 185.321 131.718C185.269 130.976 184.443 130.822 183.668 130.822C183.203 130.822 182.764 130.873 182.48 130.899C182.17 130.924 182.041 131.078 181.937 131.334M187.375 144.646C187.375 140.396 187.788 135.763 188.201 132C188.227 131.667 187.943 131.283 187.581 131.283C187.065 131.283 186.755 131.283 186.755 131.897C186.755 132.588 186.729 133.254 186.677 133.894C186.471 137.248 186.161 140.652 186.161 143.98C186.161 144.441 185.877 145.184 185.928 145.44C186.161 145.875 186.471 146.156 187.013 146.156C187.09 146.156 187.194 146.156 187.245 146.131C187.943 145.926 190.37 145.516 190.37 144.595C190.37 144.39 190.216 144.16 190.035 144.185C189.441 144.339 188.278 144.646 187.375 144.646ZM192.011 144.544C191.882 144.518 191.546 144.928 191.546 145.056C191.598 145.747 192.217 146.259 192.915 146.259C194.723 146.054 195.317 143.059 195.188 141.574C194.955 139.116 193.07 137.606 192.915 136.172C192.786 134.816 194.025 132.742 195.497 132.716C195.549 132.742 195.601 132.768 195.652 132.768C196.014 132.768 196.04 132.076 195.988 131.897C195.859 131.462 195.42 131.411 195.033 131.411C192.786 131.59 191.52 134.713 191.675 136.326C191.83 138.272 193.715 139.654 193.896 141.728C194.051 143.264 193.483 144.851 192.657 144.928C192.398 144.953 192.269 144.774 192.011 144.544ZM199.358 145.158C198.867 144.544 198.532 143.443 198.377 142.316C198.015 139.244 198.506 135.507 200.004 132.896C200.185 132.563 200.365 132.179 200.83 132.153C201.114 132.153 201.373 132.512 201.605 132.512C201.967 132.46 202.225 132.204 202.173 131.897C202.096 131.36 200.959 130.899 200.52 130.924C198.144 131.104 197.163 136.761 196.982 138.553C196.724 140.704 196.982 142.598 197.344 143.98C197.628 145.158 198.273 146.412 199.668 146.412C200.598 146.361 201.631 145.03 201.063 144.467C201.011 144.416 200.882 144.211 200.649 144.134C200.262 144.467 199.9 145.26 199.539 145.26C199.487 145.26 199.41 145.235 199.358 145.158ZM204.742 137.12C204.768 135.686 205.207 133.203 205.207 131.513C205.207 131.104 204.536 130.592 204.122 130.592C203.942 130.592 203.761 130.771 203.761 130.95C203.761 131.155 203.813 131.36 203.813 131.539C203.813 132.921 203.425 136.531 203.373 137.376C203.244 137.401 202.805 137.478 202.392 137.632C202.289 137.683 202.237 137.785 202.237 137.913C202.237 137.99 202.263 138.067 202.289 138.169C202.289 138.272 202.392 138.22 202.392 138.297C202.702 138.63 202.857 138.63 203.244 138.63C203.115 140.294 202.934 141.523 202.934 143.187C202.934 143.75 203.038 144.313 203.038 144.876C203.038 145.465 203.27 146.08 203.967 146.08C204.148 146.08 204.587 145.952 204.587 145.696C204.587 145.593 204.562 145.516 204.562 145.414C204.045 144.364 204.484 139.936 204.639 138.553C204.665 138.297 204.716 138.348 204.975 138.272C205.956 138.067 206.318 138.016 207.325 137.913C207.118 139.603 207.118 140.985 206.989 142.649C206.912 143.75 206.886 144.723 206.886 145.824C206.886 146.464 207.118 147.001 207.842 147.001C208.048 147.001 208.461 146.796 208.461 146.566C208.461 146.489 208.384 146.361 208.384 146.233C208.255 146.054 208.177 145.849 208.177 145.593C208.177 142.905 208.332 140.473 208.591 137.76C208.926 137.708 209.882 137.452 209.882 137.017C209.882 136.864 209.779 136.531 209.572 136.531C209.52 136.531 209.443 136.531 209.391 136.582L208.668 136.659C208.771 135.481 208.771 135.225 208.875 134.073C208.926 133.356 209.107 132.588 209.107 131.872C209.107 131.283 208.565 130.873 208.1 130.873C207.816 130.873 207.738 131.078 207.738 131.36C207.738 133.152 207.48 135.584 207.351 136.787C206.447 136.864 205.646 136.966 204.742 137.12ZM213.484 138.528C213.665 140.294 213.639 142.649 213.949 145.952C213.975 146.387 214.13 146.54 214.569 146.566C214.827 146.566 215.447 146.515 215.473 146.336C215.473 146.182 215.369 146.182 215.344 146.003C215.008 144.083 214.905 140.089 214.853 138.476C214.827 138.22 215.034 138.144 215.06 137.862C215.111 137.58 215.008 137.273 214.801 137.196C214.724 135.558 214.595 133.024 214.465 131.385C214.414 131.052 213.587 130.848 213.303 130.848C212.761 130.873 212.503 131.411 212.399 131.82C211.521 135.43 210.876 139.244 210.127 142.982C209.972 143.878 209.739 145.235 209.791 146.105C209.791 146.361 210.385 146.668 210.617 146.668C210.927 146.643 211.082 146.438 211.108 146.156C211.392 143.724 211.986 140.243 212.296 138.579C212.838 138.553 212.993 138.579 213.484 138.528ZM213.432 134.048C213.484 134.995 213.458 136.275 213.484 137.222C213.407 137.248 213.148 137.273 212.916 137.273C212.761 137.273 212.606 137.248 212.554 137.248C212.683 136.121 213.226 133.817 213.407 132.947M218.663 131.232C218.663 131.027 218.637 130.745 218.508 130.668C218.172 130.489 218.121 130.412 217.862 130.412C217.449 130.438 217.32 130.822 217.294 131.206C217.165 134.048 216.907 136.48 216.726 139.347C216.597 141.728 216.339 143.699 216.442 146.105C216.442 146.643 216.984 146.796 217.423 146.796C217.759 146.796 217.759 146.668 217.759 146.233C217.759 146.105 217.759 146.003 217.759 145.849C218.069 145.644 218.56 145.568 219.283 144.902C221.452 142.854 222.253 138.758 222.124 135.891C222.124 135.584 222.072 135.2 222.072 134.892C221.891 133.638 221.168 132.051 219.954 131.488C219.644 131.385 218.973 131.232 218.663 131.232ZM217.811 144.313C217.914 142.342 218.069 139.756 218.198 137.785C218.327 136.172 218.456 134.201 218.637 132.614C218.715 132.588 218.844 132.563 218.947 132.563C219.025 132.563 219.102 132.563 219.154 132.588C220.316 132.819 220.677 134.508 220.729 135.302C220.858 137.964 220.213 141.523 218.611 143.673C218.405 143.98 218.095 144.083 217.811 144.313ZM224.59 131.897C223.945 132.256 223.996 132.256 223.919 132.921C223.686 135.404 223.402 137.939 223.221 140.422C223.092 142.009 223.041 143.648 223.041 145.26C223.041 145.619 223.144 146.208 223.635 146.208C224.952 146.182 225.83 145.465 226.915 145.312C227.225 145.286 227.431 145.184 227.431 144.876C227.431 144.364 226.837 144.211 226.398 144.211C225.804 144.211 225.107 144.595 224.487 144.774C224.461 142.982 224.513 141.395 224.745 139.654C224.797 139.296 224.719 138.937 225.029 138.86C225.52 138.732 226.295 138.707 226.785 138.656C226.94 138.63 227.147 138.528 227.302 138.528C227.509 138.451 227.689 138.169 227.689 137.964C227.689 137.683 227.483 137.606 227.173 137.606L224.978 137.529C225.107 136.454 225.158 134.56 225.391 133.356C225.442 133.126 225.546 132.947 225.546 132.742C225.546 132.563 225.339 132.384 225.236 132.281L227.457 132.153C227.741 132.153 227.948 132.025 227.922 131.718C227.87 130.976 227.044 130.822 226.269 130.822C225.804 130.822 225.365 130.873 225.081 130.899C224.771 130.924 224.642 131.078 224.539 131.334M236.548 138.553C236.393 138.169 236.031 137.708 235.541 137.708C235.308 137.708 235.127 137.734 234.972 137.734C234.792 137.734 234.611 137.76 234.404 137.76C234.094 137.76 233.371 137.708 233.242 137.606C233.578 136.684 235.773 134.278 236.755 134.278C236.884 134.278 236.961 134.329 237.039 134.329C237.116 134.355 237.219 134.406 237.426 134.406C237.529 134.406 237.555 134.406 237.736 134.329C237.736 134.252 237.736 134.201 237.762 134.15C237.762 134.099 237.788 134.022 237.788 133.971C237.788 133.331 236.78 133.203 236.315 133.203C236.393 132.435 236.47 132.025 236.832 131.385C236.91 131.308 236.91 131.257 236.91 131.18C236.91 130.796 236.6 130.412 236.186 130.412C235.463 130.412 235.282 131.846 235.179 132.819C235.127 133.152 235.127 133.408 235.102 133.561C234.947 133.766 234.714 133.894 234.533 134.048C233.836 134.457 231.899 136.531 231.899 137.401C231.899 138.553 232.829 138.758 233.681 138.963C232.803 139.603 231.46 141.164 231.46 142.188C231.46 142.854 232.157 143.34 232.751 143.34C232.855 143.34 232.984 143.34 233.139 143.315C233.216 143.315 233.32 143.289 233.423 143.289C233.423 143.34 233.423 143.366 233.397 143.52C233.371 143.801 233.345 144.16 233.345 144.544C233.345 145.158 233.449 145.747 233.81 145.747C234.327 145.747 234.482 144.672 234.611 143.827C234.663 143.443 234.714 143.136 234.792 142.956C234.792 142.598 234.637 142.291 234.508 142.035C234.482 141.958 234.43 141.83 234.404 141.753C234.146 141.83 234.017 141.881 233.862 141.958C233.604 142.06 233.32 142.163 233.035 142.163C232.958 142.163 232.906 142.163 232.829 142.137C233.552 140.55 235.05 139.475 236.548 138.553ZM244.735 132.64C244.864 132.64 245.019 132.64 245.174 132.64C245.484 132.64 245.794 132.64 245.923 132.64C246.155 132.665 246.336 132.46 246.336 132.23C246.31 131.923 246.155 131.667 245.871 131.513C245.587 131.385 244.425 131.308 243.314 131.308C242.953 131.308 242.617 131.308 242.307 131.334C242.281 131.334 242.255 131.334 242.255 131.334C242.023 131.334 241.816 131.232 241.584 131.232C241.584 131.232 241.558 131.232 241.532 131.232C241.352 131.232 241.171 131.411 241.197 131.616C241.197 131.744 241.171 131.923 241.3 132.025C241.352 132.409 241.506 132.742 241.971 132.716C242.436 132.691 242.152 132.665 242.643 132.64C242.953 132.64 243.108 132.64 243.108 132.947C243.082 134.227 242.849 136.812 242.746 138.502C242.591 140.652 242.359 143.084 242.41 145.286C242.436 145.875 242.695 146.361 243.366 146.336C243.676 146.336 243.96 146.156 243.96 145.824C243.96 145.516 243.805 145.26 243.779 144.953C243.728 142.905 244.218 135.942 244.399 134.176C244.451 133.664 244.451 133.126 244.735 132.64ZM252.212 139.577C252.496 136.147 252.419 133.843 251.696 132.23C251.592 131.948 251.437 131.744 251.334 131.692C250.947 131.436 250.637 131.385 250.275 131.308C250.146 131.308 250.069 131.334 249.965 131.334C249.888 131.334 249.81 131.308 249.681 131.232C249.578 131.155 249.475 131.104 249.371 131.104C248.906 131.104 248.571 131.974 248.467 132.409C248.002 134.304 247.667 136.096 247.486 138.016C247.305 140.064 247.15 141.881 247.408 144.032C247.46 144.467 247.486 144.928 247.693 145.337C247.977 145.9 248.545 146.412 249.216 146.412C251.412 146.412 252.057 141.088 252.212 139.577ZM249.165 145.132C248.028 143.699 249.242 133.28 250.146 132.076C251.257 133.075 251.05 137.99 250.895 139.398C250.663 141.139 250.198 143.443 249.371 145.03C249.32 145.107 249.268 145.209 249.242 145.209C249.216 145.209 249.191 145.184 249.165 145.132ZM254.885 131.897C254.24 132.256 254.291 132.256 254.214 132.921C253.981 135.404 253.697 137.939 253.517 140.422C253.387 142.009 253.336 143.648 253.336 145.26C253.336 145.619 253.439 146.208 253.93 146.208C255.247 146.182 256.125 145.465 257.21 145.312C257.52 145.286 257.726 145.184 257.726 144.876C257.726 144.364 257.132 144.211 256.693 144.211C256.099 144.211 255.402 144.595 254.782 144.774C254.756 142.982 254.808 141.395 255.04 139.654C255.092 139.296 255.014 138.937 255.324 138.86C255.815 138.732 256.59 138.707 257.081 138.656C257.236 138.63 257.442 138.528 257.597 138.528C257.804 138.451 257.985 138.169 257.985 137.964C257.985 137.683 257.778 137.606 257.468 137.606L255.273 137.529C255.402 136.454 255.454 134.56 255.686 133.356C255.738 133.126 255.841 132.947 255.841 132.742C255.841 132.563 255.634 132.384 255.531 132.281L257.752 132.153C258.036 132.153 258.243 132.025 258.217 131.718C258.165 130.976 257.339 130.822 256.564 130.822C256.099 130.822 255.66 130.873 255.376 130.899C255.066 130.924 254.937 131.078 254.834 131.334M261.123 131.232C261.123 131.027 261.097 130.745 260.968 130.668C260.632 130.489 260.581 130.412 260.323 130.412C259.909 130.438 259.78 130.822 259.754 131.206C259.625 134.048 259.367 136.48 259.186 139.347C259.057 141.728 258.799 143.699 258.902 146.105C258.902 146.643 259.444 146.796 259.883 146.796C260.219 146.796 260.219 146.668 260.219 146.233C260.219 146.105 260.219 146.003 260.219 145.849C260.529 145.644 261.02 145.568 261.743 144.902C263.912 142.854 264.713 138.758 264.584 135.891C264.584 135.584 264.532 135.2 264.532 134.892C264.352 133.638 263.628 132.051 262.415 131.488C262.105 131.385 261.433 131.232 261.123 131.232ZM260.271 144.313C260.374 142.342 260.529 139.756 260.658 137.785C260.787 136.172 260.917 134.201 261.097 132.614C261.175 132.588 261.304 132.563 261.407 132.563C261.485 132.563 261.562 132.563 261.614 132.588C262.776 132.819 263.138 134.508 263.189 135.302C263.318 137.964 262.673 141.523 261.072 143.673C260.865 143.98 260.555 144.083 260.271 144.313ZM265.836 131.718C265.836 131.897 266.198 131.974 266.224 132.742C266.276 133.484 266.017 135.814 265.966 136.582C265.862 138.656 265.785 140.729 265.707 142.828C265.656 143.827 265.604 144.851 265.63 145.875C265.656 146.566 265.966 146.72 266.611 146.72C266.921 146.72 266.973 146.156 266.947 145.414C266.921 144.236 267.025 142.675 267.05 142.316C267.076 141.625 267.154 141.139 267.154 140.217C267.567 141.088 268.858 144.288 269.917 144.441C269.969 144.441 270.02 144.441 270.072 144.441C270.305 144.441 270.563 144.339 270.46 144.108C270.279 143.776 269.375 142.188 268.703 140.652C268.652 140.524 268.135 139.142 268.006 139.014C268.858 138.041 270.02 136.556 269.969 134.534C269.917 132.256 268.574 131.718 268.032 131.283C267.825 130.924 267.541 130.694 267.102 130.694C266.482 130.72 266.224 131.283 265.836 131.718ZM267.257 137.734C267.36 136.633 267.593 133.92 267.67 132.819C268.135 132.896 268.703 133.587 268.677 134.585C268.626 135.993 267.877 137.299 267.257 137.734ZM274.373 138.528C274.554 140.294 274.528 142.649 274.838 145.952C274.864 146.387 275.019 146.54 275.458 146.566C275.716 146.566 276.336 146.515 276.362 146.336C276.362 146.182 276.258 146.182 276.233 146.003C275.897 144.083 275.794 140.089 275.742 138.476C275.716 138.22 275.923 138.144 275.948 137.862C276 137.58 275.897 137.273 275.69 137.196C275.613 135.558 275.484 133.024 275.354 131.385C275.303 131.052 274.476 130.848 274.192 130.848C273.65 130.873 273.392 131.411 273.288 131.82C272.41 135.43 271.765 139.244 271.016 142.982C270.861 143.878 270.628 145.235 270.68 146.105C270.68 146.361 271.274 146.668 271.506 146.668C271.816 146.643 271.971 146.438 271.997 146.156C272.281 143.724 272.875 140.243 273.185 138.579C273.727 138.553 273.882 138.579 274.373 138.528ZM274.321 134.048C274.373 134.995 274.347 136.275 274.373 137.222C274.296 137.248 274.037 137.273 273.805 137.273C273.65 137.273 273.495 137.248 273.443 137.248C273.572 136.121 274.115 133.817 274.296 132.947M279.836 145.158C279.345 144.544 279.01 143.443 278.855 142.316C278.493 139.244 278.984 135.507 280.482 132.896C280.663 132.563 280.843 132.179 281.308 132.153C281.592 132.153 281.851 132.512 282.083 132.512C282.445 132.46 282.703 132.204 282.651 131.897C282.574 131.36 281.437 130.899 280.998 130.924C278.622 131.104 277.641 136.761 277.46 138.553C277.202 140.704 277.46 142.598 277.822 143.98C278.106 145.158 278.751 146.412 280.146 146.412C281.076 146.361 282.109 145.03 281.541 144.467C281.489 144.416 281.36 144.211 281.127 144.134C280.74 144.467 280.378 145.26 280.017 145.26C279.965 145.26 279.888 145.235 279.836 145.158ZM285.22 137.12C285.246 135.686 285.685 133.203 285.685 131.513C285.685 131.104 285.014 130.592 284.6 130.592C284.42 130.592 284.239 130.771 284.239 130.95C284.239 131.155 284.29 131.36 284.29 131.539C284.29 132.921 283.903 136.531 283.851 137.376C283.722 137.401 283.283 137.478 282.87 137.632C282.767 137.683 282.715 137.785 282.715 137.913C282.715 137.99 282.741 138.067 282.767 138.169C282.767 138.272 282.87 138.22 282.87 138.297C283.18 138.63 283.335 138.63 283.722 138.63C283.593 140.294 283.412 141.523 283.412 143.187C283.412 143.75 283.516 144.313 283.516 144.876C283.516 145.465 283.748 146.08 284.445 146.08C284.626 146.08 285.065 145.952 285.065 145.696C285.065 145.593 285.039 145.516 285.039 145.414C284.523 144.364 284.962 139.936 285.117 138.553C285.143 138.297 285.194 138.348 285.453 138.272C286.434 138.067 286.796 138.016 287.803 137.913C287.596 139.603 287.596 140.985 287.467 142.649C287.39 143.75 287.364 144.723 287.364 145.824C287.364 146.464 287.596 147.001 288.319 147.001C288.526 147.001 288.939 146.796 288.939 146.566C288.939 146.489 288.862 146.361 288.862 146.233C288.733 146.054 288.655 145.849 288.655 145.593C288.655 142.905 288.81 140.473 289.068 137.76C289.404 137.708 290.36 137.452 290.36 137.017C290.36 136.864 290.257 136.531 290.05 136.531C289.998 136.531 289.921 136.531 289.869 136.582L289.146 136.659C289.249 135.481 289.249 135.225 289.353 134.073C289.404 133.356 289.585 132.588 289.585 131.872C289.585 131.283 289.043 130.873 288.578 130.873C288.294 130.873 288.216 131.078 288.216 131.36C288.216 133.152 287.958 135.584 287.829 136.787C286.925 136.864 286.124 136.966 285.22 137.12ZM294.246 132.64C294.375 132.64 294.53 132.64 294.685 132.64C294.995 132.64 295.305 132.64 295.434 132.64C295.667 132.665 295.847 132.46 295.847 132.23C295.822 131.923 295.667 131.667 295.382 131.513C295.098 131.385 293.936 131.308 292.826 131.308C292.464 131.308 292.128 131.308 291.818 131.334C291.586 131.334 291.328 131.232 291.095 131.232C291.095 131.232 291.069 131.232 291.044 131.232C290.863 131.232 290.682 131.411 290.708 131.616C290.708 131.744 290.682 131.923 290.811 132.025C290.863 132.409 291.018 132.742 291.483 132.716C291.947 132.691 291.663 132.665 292.154 132.64C292.464 132.64 292.619 132.64 292.619 132.947C292.593 134.227 292.361 136.812 292.257 138.502C292.102 140.652 291.87 143.084 291.922 145.286C291.947 145.875 292.206 146.361 292.877 146.336C293.187 146.336 293.471 146.156 293.471 145.824C293.471 145.516 293.316 145.26 293.291 144.953C293.239 142.905 293.73 135.942 293.91 134.176C293.962 133.664 293.962 133.126 294.246 132.64ZM301.724 139.577C302.008 136.147 301.93 133.843 301.207 132.23C301.104 131.948 300.949 131.744 300.845 131.692C300.458 131.436 300.148 131.385 299.786 131.308C299.657 131.308 299.58 131.334 299.477 131.334C299.399 131.334 299.322 131.308 299.192 131.232C299.089 131.155 298.986 131.104 298.883 131.104C298.418 131.104 298.082 131.974 297.979 132.409C297.514 134.304 297.178 136.096 296.997 138.016C296.816 140.064 296.661 141.881 296.92 144.032C296.971 144.467 296.997 144.928 297.204 145.337C297.488 145.9 298.056 146.412 298.728 146.412C300.923 146.412 301.569 141.088 301.724 139.577ZM298.676 145.132C297.54 143.699 298.753 133.28 299.657 132.076C300.768 133.075 300.561 137.99 300.406 139.398C300.174 141.139 299.709 143.443 298.883 145.03C298.831 145.107 298.779 145.209 298.753 145.209C298.728 145.209 298.702 145.184 298.676 145.132ZM307.186 141.958C307.186 141.625 307.108 141.292 307.031 140.985C306.747 139.603 306.54 138.374 306.282 136.992C306.127 135.968 305.92 134.816 305.74 133.817C305.636 133.177 305.585 132.512 305.43 131.897C305.301 131.283 305.016 131.155 304.422 131.155C303.751 131.155 303.415 131.769 303.441 132.716C303.467 134.79 303.389 136.864 303.312 138.937C303.286 140.089 303.234 141.42 303.183 142.547C303.054 143.98 302.821 145.107 303.079 146.08C303.131 146.31 303.338 146.438 303.57 146.438C303.803 146.438 304.087 146.284 304.164 145.952C304.422 144.876 304.603 137.376 304.603 137.222C304.629 136.71 304.655 135.584 304.629 135.046C304.758 135.2 305.301 138.656 305.352 138.937C305.404 139.219 305.998 142.803 306.695 145.516C306.747 145.721 306.979 145.9 307.212 145.9C307.496 145.875 307.651 145.67 307.677 145.388C308.167 145.388 308.451 145.184 308.451 144.8C308.451 144.467 308.348 144.16 308.348 143.827C308.4 141.446 308.477 137.324 308.606 134.969C308.658 134.073 308.736 132.742 308.71 131.846C308.71 131.539 308.4 131.232 308.038 131.232C307.935 131.232 307.832 131.257 307.728 131.334C307.418 131.488 307.418 133.356 307.418 133.792C307.393 134.79 307.212 139.5 307.186 141.958ZM312.132 131.232C312.132 131.027 312.106 130.745 311.977 130.668C311.641 130.489 311.59 130.412 311.331 130.412C310.918 130.438 310.789 130.822 310.763 131.206C310.634 134.048 310.376 136.48 310.195 139.347C310.066 141.728 309.808 143.699 309.911 146.105C309.911 146.643 310.453 146.796 310.892 146.796C311.228 146.796 311.228 146.668 311.228 146.233C311.228 146.105 311.228 146.003 311.228 145.849C311.538 145.644 312.029 145.568 312.752 144.902C314.921 142.854 315.722 138.758 315.593 135.891C315.593 135.584 315.541 135.2 315.541 134.892C315.36 133.638 314.637 132.051 313.423 131.488C313.113 131.385 312.442 131.232 312.132 131.232ZM311.28 144.313C311.383 142.342 311.538 139.756 311.667 137.785C311.796 136.172 311.925 134.201 312.106 132.614C312.184 132.588 312.313 132.563 312.416 132.563C312.494 132.563 312.571 132.563 312.623 132.588C313.785 132.819 314.146 134.508 314.198 135.302C314.327 137.964 313.682 141.523 312.08 143.673C311.874 143.98 311.564 144.083 311.28 144.313ZM318.059 131.897C317.413 132.256 317.465 132.256 317.388 132.921C317.155 135.404 316.871 137.939 316.69 140.422C316.561 142.009 316.51 143.648 316.51 145.26C316.51 145.619 316.613 146.208 317.104 146.208C318.421 146.182 319.299 145.465 320.384 145.312C320.693 145.286 320.9 145.184 320.9 144.876C320.9 144.364 320.306 144.211 319.867 144.211C319.273 144.211 318.576 144.595 317.956 144.774C317.93 142.982 317.982 141.395 318.214 139.654C318.266 139.296 318.188 138.937 318.498 138.86C318.989 138.732 319.764 138.707 320.254 138.656C320.409 138.63 320.616 138.528 320.771 138.528C320.978 138.451 321.158 138.169 321.158 137.964C321.158 137.683 320.952 137.606 320.642 137.606L318.447 137.529C318.576 136.454 318.627 134.56 318.86 133.356C318.911 133.126 319.015 132.947 319.015 132.742C319.015 132.563 318.808 132.384 318.705 132.281L320.926 132.153C321.21 132.153 321.417 132.025 321.391 131.718C321.339 130.976 320.513 130.822 319.738 130.822C319.273 130.822 318.834 130.873 318.55 130.899C318.24 130.924 318.111 131.078 318.007 131.334M322.308 131.718C322.308 131.897 322.67 131.974 322.696 132.742C322.747 133.484 322.489 135.814 322.437 136.582C322.334 138.656 322.257 140.729 322.179 142.828C322.127 143.827 322.076 144.851 322.102 145.875C322.127 146.566 322.437 146.72 323.083 146.72C323.393 146.72 323.445 146.156 323.419 145.414C323.393 144.236 323.496 142.675 323.522 142.316C323.548 141.625 323.625 141.139 323.625 140.217C324.039 141.088 325.33 144.288 326.389 144.441C326.441 144.441 326.492 144.441 326.544 144.441C326.776 144.441 327.035 144.339 326.931 144.108C326.751 143.776 325.847 142.188 325.175 140.652C325.123 140.524 324.607 139.142 324.478 139.014C325.33 138.041 326.492 136.556 326.441 134.534C326.389 132.256 325.046 131.718 324.504 131.283C324.297 130.924 324.013 130.694 323.574 130.694C322.954 130.72 322.696 131.283 322.308 131.718ZM323.729 137.734C323.832 136.633 324.064 133.92 324.142 132.819C324.607 132.896 325.175 133.587 325.149 134.585C325.098 135.993 324.349 137.299 323.729 137.734ZM331.516 132.204C331.568 132.87 329.967 137.145 329.605 138.22C329.063 139.731 328.262 142.06 327.849 143.545C327.642 144.083 327.461 144.185 327.487 144.748C327.513 144.979 327.616 145.132 327.746 145.286C328.52 146.105 329.244 146.208 330.096 146.208C330.354 146.208 330.664 146.208 330.974 146.208C331.465 146.208 332.42 146.208 332.343 145.516C332.317 145.056 331.775 144.825 331.413 144.825C331.103 144.825 330.845 145.004 330.509 145.004C330.432 144.979 330.354 144.979 330.302 144.979C329.993 144.979 329.734 145.03 329.45 145.03C329.192 145.03 328.959 144.928 328.985 144.672C329.089 143.724 329.889 141.344 330.354 139.961C331.051 137.862 331.826 135.788 332.524 133.715C332.704 133.228 332.859 132.793 333.247 132.384C333.402 132.281 333.505 132.076 333.479 131.897C333.402 131.001 332.42 130.873 331.594 130.873C331.31 130.873 331.051 130.899 330.845 130.899C330.509 130.899 328.624 130.924 328.649 131.308C328.701 131.718 329.269 132.384 329.734 132.384C330.122 132.384 330.535 132.153 330.974 132.153C331.155 132.153 331.336 132.153 331.516 132.204ZM339.536 139.577C339.82 136.147 339.743 133.843 339.02 132.23C338.916 131.948 338.762 131.744 338.658 131.692C338.271 131.436 337.961 131.385 337.599 131.308C337.47 131.308 337.393 131.334 337.289 131.334C337.212 131.334 337.134 131.308 337.005 131.232C336.902 131.155 336.799 131.104 336.695 131.104C336.23 131.104 335.895 131.974 335.791 132.409C335.327 134.304 334.991 136.096 334.81 138.016C334.629 140.064 334.474 141.881 334.733 144.032C334.784 144.467 334.81 144.928 335.017 145.337C335.301 145.9 335.869 146.412 336.54 146.412C338.736 146.412 339.381 141.088 339.536 139.577ZM336.489 145.132C335.352 143.699 336.566 133.28 337.47 132.076C338.581 133.075 338.374 137.99 338.219 139.398C337.987 141.139 337.522 143.443 336.695 145.03C336.644 145.107 336.592 145.209 336.566 145.209C336.54 145.209 336.515 145.184 336.489 145.132ZM342.209 131.897C341.564 132.256 341.615 132.256 341.538 132.921C341.305 135.404 341.021 137.939 340.841 140.422C340.711 142.009 340.66 143.648 340.66 145.26C340.66 145.619 340.763 146.208 341.254 146.208C342.571 146.182 343.449 145.465 344.534 145.312C344.844 145.286 345.05 145.184 345.05 144.876C345.05 144.364 344.456 144.211 344.017 144.211C343.423 144.211 342.726 144.595 342.106 144.774C342.08 142.982 342.132 141.395 342.364 139.654C342.416 139.296 342.339 138.937 342.648 138.86C343.139 138.732 343.914 138.707 344.405 138.656C344.56 138.63 344.766 138.528 344.921 138.528C345.128 138.451 345.309 138.169 345.309 137.964C345.309 137.683 345.102 137.606 344.792 137.606L342.597 137.529C342.726 136.454 342.778 134.56 343.01 133.356C343.062 133.126 343.165 132.947 343.165 132.742C343.165 132.563 342.958 132.384 342.855 132.281L345.076 132.153C345.36 132.153 345.567 132.025 345.541 131.718C345.489 130.976 344.663 130.822 343.888 130.822C343.423 130.822 342.984 130.873 342.7 130.899C342.39 130.924 342.261 131.078 342.158 131.334M348.215 135.712C348.241 134.713 348.499 133.152 348.551 132.128C348.576 131.616 348.137 131.052 347.647 131.052C347.621 131.052 347.595 131.052 347.595 131.052C347.337 131.052 347.156 131.206 347.13 131.462C347.053 132.358 346.975 133.177 346.923 134.022C346.82 135.2 346.691 136.633 346.588 137.785C346.459 139.859 346.252 142.572 346.252 144.62C346.252 145.107 346.329 146.489 347.001 146.489C347.027 146.489 347.078 146.464 347.104 146.438C347.569 146.438 347.595 146.156 347.595 145.9C347.543 144.108 347.724 141.984 347.879 140.192C347.905 140.012 347.931 139.808 347.931 139.654C348.499 140.55 350.152 143.443 351.211 143.443C351.417 143.443 351.753 143.366 351.753 143.136C351.753 142.88 348.551 138.604 348.551 137.683C349.015 136.889 350.488 134.969 351.572 133.894C351.96 133.484 351.882 132.537 351.211 132.537C350.513 132.537 348.86 135.302 348.215 135.712Z" fill="#574848"/>
</g>
<defs>
<clipPath id="clip0_1_2">
<rect width="395" height="210" fill="white"/>
</clipPath>
</defs>
</svg>
