<svg width="542" height="124" viewBox="0 0 542 124" fill="none" xmlns="http://www.w3.org/2000/svg">
<mask id="mask0_7_2" style="mask-type:luminance" maskUnits="userSpaceOnUse" x="0" y="0" width="94" height="124">
<path d="M0 0H93.9837V123.974H0V0Z" fill="white"/>
</mask>
<g mask="url(#mask0_7_2)">
<mask id="mask1_7_2" style="mask-type:luminance" maskUnits="userSpaceOnUse" x="0" y="0" width="94" height="124">
<path d="M0 0H93.9837V123.974H0V0Z" fill="white"/>
</mask>
<g mask="url(#mask1_7_2)">
<path d="M78.3656 106.114C76.207 100.572 74.8211 94.3751 74.8486 88.4927C74.7513 84.4335 74.7788 80.3324 77.0825 76.8881C78.3491 74.9249 80.4362 72.7997 82.0093 70.9348C91.5527 59.856 95.9747 46.0115 93.1332 31.9706C86.0294 -0.16141 43.0997 -10.2049 19.4882 11.687C10.1137 20.2168 5.28597 33.0605 7.83381 45.6676C9.42346 51.3517 7.52727 53.6897 4.08181 59.452C2.82074 61.6081 0.722615 64.0444 0.00855937 66.2878C-0.154811 68.271 2.05528 69.8158 3.65962 70.8711C5.51726 71.9937 5.84216 73.0363 5.08405 74.7011C3.57517 77.9689 5.21254 77.8688 6.40386 80.3961C6.62964 81.2039 5.97249 82.1337 6.0092 83.0925C6.01471 83.5856 6.15789 84.0587 6.42773 84.4735C7.05 85.5434 8.50381 86.0692 8.81035 87.3119C8.99392 89.599 7.62639 92.0935 8.96639 94.2623C11.7712 99.0439 18.2051 98.2542 23.9818 97.2171C24.5288 94.9683 24.8463 92.6593 24.8353 90.4196C24.8959 87.845 24.8794 85.2431 23.4182 83.058C22.6142 81.8134 21.2907 80.4652 20.294 79.2825C14.2401 72.2557 11.4353 63.4731 13.2379 54.5667C17.7443 34.1849 44.9757 27.8131 59.9525 41.6994C65.8999 47.1105 68.9618 55.2563 67.3446 63.2529C66.3368 66.8591 67.5392 68.342 69.7254 71.9973C70.5257 73.3656 71.8565 74.9103 72.3099 76.3332C72.4146 77.5904 71.0103 78.5711 69.9934 79.2407C68.8149 79.9539 68.6093 80.6144 69.0903 81.6715C70.0484 83.7439 69.0095 83.6802 68.2532 85.2832C68.11 85.7963 68.5267 86.3858 68.5029 86.9935C68.4992 87.3064 68.4092 87.6067 68.2367 87.8705C67.842 88.5491 66.9206 88.8821 66.726 89.6699C66.6085 91.1201 67.4767 92.703 66.6269 94.0785C64.4113 97.854 58.6291 96.1528 54.5246 95.4923C52.9423 95.2503 51.3233 94.8882 50.0237 95.8471C47.8485 97.4701 46.5911 101.759 46.3543 104.359C45.3575 115.296 54.7541 123.974 60.5106 123.974H87.6796C87.518 123.676 87.3602 123.385 87.1931 123.074C84.1111 117.785 80.3077 110.67 78.3656 106.114ZM18.2785 16.7925C19.8773 16.7925 21.1714 18.0771 21.1714 19.66C21.1714 21.2429 19.8755 22.5275 18.2785 22.5275C16.6815 22.5275 15.3855 21.2429 15.3855 19.66C15.3855 18.0771 16.6815 16.7925 18.2785 16.7925ZM17.2065 39.7834C13.7482 39.7834 10.9434 37.0033 10.9434 33.5754C10.9434 30.1475 13.7482 27.3673 17.2065 27.3673C20.6648 27.3673 23.4696 30.1475 23.4696 33.5754C23.4696 37.0033 20.6648 39.7834 17.2065 39.7834ZM26.9059 32.0288C25.7898 32.0288 24.8849 31.1318 24.8849 30.0256C24.8849 28.9193 25.7898 28.0223 26.9059 28.0223C28.0219 28.0223 28.9269 28.9193 28.9269 30.0256C28.9269 31.1318 28.0219 32.0288 26.9059 32.0288ZM36.4548 28.8484C30.6359 28.8484 25.9183 24.1723 25.9183 18.4046C25.9183 12.6368 30.6359 7.96075 36.4548 7.96075C42.2737 7.96075 46.9912 12.6368 46.9912 18.4046C46.9912 24.1723 42.2737 28.8484 36.4548 28.8484ZM85.6971 56.0059C83.6118 56.0059 81.9212 54.3302 81.9212 52.2633C81.9212 50.1963 83.6118 48.5206 85.6971 48.5206C87.7824 48.5206 89.473 50.1963 89.473 52.2633C89.473 54.3302 87.7824 56.0059 85.6971 56.0059ZM87.1784 29.3706C89.2454 29.3706 90.9194 31.0299 90.9194 33.0787C90.9194 35.1274 89.2454 36.7868 87.1784 36.7868C85.1115 36.7868 83.4375 35.1256 83.4375 33.0787C83.4375 31.0318 85.1115 29.3706 87.1784 29.3706ZM80.8676 16.3304C82.5472 16.3304 83.9092 17.6804 83.9092 19.3452C83.9092 21.0101 82.5472 22.3601 80.8676 22.3601C79.188 22.3601 77.826 21.0101 77.826 19.3452C77.826 17.6804 79.188 16.3304 80.8676 16.3304ZM78.8227 24.951C80.5335 24.951 81.9212 26.3266 81.9212 28.0223C81.9212 29.7181 80.5335 31.0936 78.8227 31.0936C77.1119 31.0936 75.7242 29.7181 75.7242 28.0223C75.7242 26.3266 77.1119 24.951 78.8227 24.951ZM56.0941 3.95789C59.5157 3.95789 62.2911 6.70713 62.2911 10.1005C62.2911 13.4938 59.5175 16.243 56.0941 16.243C52.6706 16.243 49.897 13.4938 49.897 10.1005C49.897 6.70713 52.6706 3.95789 56.0941 3.95789ZM58.9448 35.5077C54.7743 35.5077 51.3931 32.1562 51.3931 28.0223C51.3931 23.8885 54.7743 20.537 58.9448 20.537C63.1153 20.537 66.4965 23.8885 66.4965 28.0223C66.4965 32.1562 63.1153 35.5077 58.9448 35.5077ZM65.1969 16.7925C65.1969 14.429 67.1298 12.5131 69.5143 12.5131C71.8988 12.5131 73.8317 14.429 73.8317 16.7925C73.8317 19.156 71.8988 21.0719 69.5143 21.0719C67.1298 21.0719 65.1969 19.156 65.1969 16.7925ZM68.3321 42.9948C68.3321 38.861 71.7134 35.5095 75.8839 35.5095C80.0544 35.5095 83.4356 38.861 83.4356 42.9948C83.4356 47.1287 80.0544 50.4802 75.8839 50.4802C71.7134 50.4802 68.3321 47.1287 68.3321 42.9948ZM69.8484 61.9884C69.8484 58.6842 72.5504 56.0059 75.8857 56.0059C79.221 56.0059 81.9212 58.6842 81.9212 61.9884C81.9212 65.2926 79.2192 67.9727 75.8857 67.9727C72.5522 67.9727 69.8484 65.2944 69.8484 61.9884Z" fill="#574848"/>
</g>
</g>
<path d="M124.795 67.73C124.795 67.4228 124.408 66.194 124.718 65.8868C124.873 65.2724 124.563 64.5044 124.718 63.8132C125.183 55.7492 129.444 42.386 132.156 34.5524C132.853 32.4788 133.396 30.1748 134.171 28.1012L134.093 27.6404C133.241 26.5652 133.241 26.8724 132.156 26.258C131.304 26.1812 129.677 26.8724 129.134 27.026L128.979 27.41L129.057 27.9476C125.183 38.162 120.069 50.1428 119.372 61.2788C119.217 65.1956 119.837 66.962 122.006 70.1876C122.703 70.4948 124.021 70.4947 124.795 70.4947C124.563 70.2644 124.33 70.034 124.33 69.8036C124.33 69.8036 124.408 69.5731 124.485 69.4195C124.563 69.7267 124.795 69.7268 125.028 69.7268C125.028 68.9588 124.563 68.3444 124.563 67.9604V67.6532M158.267 27.4868L158.5 27.41C158.655 27.3332 158.655 27.3332 158.655 27.1796C158.5 26.8724 158.422 26.5652 158.345 26.258C156.253 21.4196 148.117 20.7284 143.391 20.7284C136.108 20.7284 129.754 22.418 122.626 24.722C118.364 26.258 111.236 29.1764 106.587 29.1764C106.122 29.1764 106.045 29.1764 105.658 28.946C105.735 29.4836 106.122 29.714 106.432 29.9444C106.665 30.4052 107.207 31.0196 107.517 31.3268C107.517 31.5572 107.75 31.634 107.75 31.9412C108.059 32.0948 108.757 32.2484 109.067 32.402C109.222 32.402 109.377 32.402 109.532 32.402C113.948 32.402 117.977 30.1748 122.084 28.946C128.592 26.8724 136.882 24.4916 144.553 24.4916C147.885 24.4916 154.006 25.0292 156.33 27.794L156.563 27.4868L156.408 28.1012C156.408 28.3316 156.64 28.562 156.64 28.8692C156.795 28.946 157.028 29.1764 157.028 29.1764L157.26 29.0228L157.415 28.7156L157.88 28.2548H158.267C158.267 27.9476 158.345 27.8708 158.267 27.4868ZM152.613 47.762C153.233 47.762 153.853 47.762 154.473 47.8388L154.627 47.762L154.395 47.4548L154.473 47.3012L154.395 46.994L154.627 46.9172L154.55 46.8404L155.325 46.226C155.015 45.5348 153.698 45.3812 152.381 45.3812C151.451 45.3812 150.443 45.458 149.979 45.458C148.274 45.6116 146.027 46.0724 144.168 46.6868C144.632 45.9188 144.71 46.7636 145.02 45.6116C144.4 44.6132 143.005 43.6916 141.766 43.6916C141.378 43.6916 140.991 43.7684 140.681 43.922C139.751 44.2292 132.235 56.21 132.7 63.2756C132.778 66.194 135.335 68.0372 138.124 68.0372C140.836 67.9604 143.625 63.9668 144.555 61.7396C145.485 59.3588 146.879 54.5204 146.724 51.9092C146.647 50.9108 146.492 49.7588 146.105 48.8372C148.119 48.3764 150.211 47.9156 152.613 47.762ZM137.272 64.8884C137.194 63.4292 138.201 59.282 139.286 56.21C139.596 55.7492 140.913 52.2164 142.54 49.6052C142.695 49.9892 142.85 50.2196 142.85 50.6036C143.16 54.29 140.603 62.354 137.892 65.1956C137.814 65.426 137.737 65.6564 137.427 65.6564C137.349 65.3492 137.349 65.1188 137.272 64.8884ZM154.782 65.6564V65.1188C154.782 62.2004 155.634 57.4388 156.796 54.1364C157.416 52.6772 157.494 51.9092 157.881 50.9876C158.656 49.0676 160.671 41.8484 156.641 41.8484C156.099 41.8484 154.627 41.618 154.162 41.618C154.162 41.618 154.007 41.6948 153.852 41.9252C154.24 42.5396 153.775 43.0004 153.775 43.6148C153.775 45.3044 152.458 49.7588 152.148 50.9876C150.908 55.058 149.513 59.282 149.513 63.5828C149.513 65.7332 149.823 66.194 151.373 67.73C151.838 68.1908 155.169 68.7284 155.867 68.7284C156.099 68.7284 156.254 68.6516 156.332 68.5748C156.564 68.4212 156.951 68.4212 157.106 68.0372C159.663 66.194 163.77 55.5188 164.39 53.5988C165.474 53.7524 166.792 53.906 167.799 53.906C168.264 53.906 168.729 53.906 168.961 53.7524C169.581 53.3684 169.503 53.2916 169.813 53.138C169.658 53.138 169.581 53.138 169.348 52.9844C169.658 52.754 169.891 52.9076 170.046 52.754C170.356 52.5236 170.821 51.986 170.898 51.8324L171.053 51.7556L165.009 50.834C165.474 49.298 166.094 46.226 164.545 45.9956L163.615 45.842C163.15 45.842 163.227 45.9188 162.995 45.9188C162.995 45.9188 162.84 45.9188 162.685 45.9188C162.685 45.9188 162.53 45.9956 162.53 46.226C161.755 47.2244 161.058 50.2196 161.058 51.9092C160.671 53.5988 156.564 63.9668 154.782 65.6564Z" fill="#574848"/>
<path d="M118.203 118.747C118.203 109.269 119.114 98.9336 120.025 90.5401C120.082 89.7978 119.456 88.9414 118.658 88.9414C117.519 88.9414 116.836 88.9413 116.836 90.3117C116.836 91.8534 116.779 93.338 116.665 94.7654C116.21 102.245 115.526 109.84 115.526 117.262C115.526 118.29 114.9 119.946 115.014 120.517C115.526 121.488 116.21 122.116 117.406 122.116C117.576 122.116 117.804 122.116 117.918 122.059C119.456 121.602 124.808 120.688 124.808 118.633C124.808 118.176 124.467 117.662 124.068 117.719C122.758 118.062 120.196 118.747 118.203 118.747ZM130.589 90.3117C129.165 91.1111 129.279 91.1111 129.109 92.5957C128.596 98.1342 127.97 103.787 127.571 109.326C127.286 112.866 127.172 116.52 127.172 120.117C127.172 120.917 127.4 122.23 128.482 122.23C131.386 122.173 133.322 120.574 135.714 120.231C136.398 120.174 136.853 119.946 136.853 119.261C136.853 118.119 135.543 117.776 134.575 117.776C133.266 117.776 131.728 118.633 130.361 119.032C130.304 115.035 130.418 111.495 130.931 107.613C131.045 106.813 130.874 106.014 131.557 105.843C132.639 105.557 134.347 105.5 135.429 105.386C135.771 105.329 136.227 105.1 136.568 105.1C137.024 104.929 137.423 104.301 137.423 103.844C137.423 103.216 136.967 103.045 136.284 103.045L131.443 102.873C131.728 100.475 131.842 96.25 132.354 93.5664C132.468 93.0525 132.696 92.6528 132.696 92.196C132.696 91.7963 132.241 91.3966 132.013 91.1682L136.91 90.8827C137.536 90.8827 137.992 90.5972 137.935 89.912C137.821 88.2562 135.999 87.9136 134.291 87.9136C133.266 87.9136 132.297 88.0278 131.671 88.0849C130.988 88.142 130.703 88.4846 130.475 89.0556M147.076 91.9676C147.361 91.9676 147.702 91.9676 148.044 91.9676C148.727 91.9676 149.411 91.9676 149.695 91.9676C150.208 92.0247 150.607 91.5679 150.607 91.054C150.55 90.3688 150.208 89.7978 149.582 89.4552C148.955 89.1698 146.393 88.9984 143.944 88.9984C143.147 88.9984 142.406 88.9985 141.723 89.0556C141.666 89.0556 141.609 89.0556 141.609 89.0556C141.097 89.0556 140.641 88.8272 140.129 88.8272C140.129 88.8272 140.072 88.8272 140.015 88.8272C139.616 88.8272 139.218 89.2268 139.275 89.6836C139.275 89.9691 139.218 90.3688 139.502 90.5972C139.616 91.4537 139.958 92.196 140.983 92.1389C142.008 92.0818 141.381 92.0247 142.463 91.9676C143.147 91.9676 143.488 91.9676 143.488 92.6528C143.432 95.5077 142.919 101.275 142.691 105.043C142.35 109.84 141.837 115.264 141.951 120.174C142.008 121.488 142.577 122.573 144.058 122.515C144.741 122.515 145.368 122.116 145.368 121.373C145.368 120.688 145.026 120.117 144.969 119.432C144.855 114.864 145.937 99.3333 146.336 95.3935C146.45 94.2515 146.45 93.0525 147.076 91.9676ZM153.711 118.519C153.426 118.461 152.686 119.375 152.686 119.66C152.8 121.202 154.167 122.344 155.704 122.344C159.69 121.887 161 115.207 160.715 111.895C160.203 106.414 156.046 103.045 155.704 99.8472C155.42 96.821 158.153 92.196 161.399 92.1389C161.513 92.196 161.627 92.2531 161.74 92.2531C162.538 92.2531 162.595 90.7114 162.481 90.3117C162.196 89.341 161.228 89.2268 160.374 89.2268C155.42 89.6265 152.629 96.5926 152.971 100.19C153.313 104.529 157.47 107.613 157.868 112.238C158.21 115.664 156.957 119.204 155.135 119.375C154.565 119.432 154.281 119.032 153.711 118.519ZM167.576 90.3117C166.153 91.1111 166.266 91.1111 166.096 92.5957C165.583 98.1342 164.957 103.787 164.558 109.326C164.273 112.866 164.159 116.52 164.159 120.117C164.159 120.917 164.387 122.23 165.469 122.23C168.373 122.173 170.31 120.574 172.701 120.231C173.385 120.174 173.84 119.946 173.84 119.261C173.84 118.119 172.53 117.776 171.562 117.776C170.253 117.776 168.715 118.633 167.348 119.032C167.291 115.035 167.405 111.495 167.918 107.613C168.032 106.813 167.861 106.014 168.544 105.843C169.626 105.557 171.335 105.5 172.417 105.386C172.758 105.329 173.214 105.1 173.555 105.1C174.011 104.929 174.41 104.301 174.41 103.844C174.41 103.216 173.954 103.045 173.271 103.045L168.43 102.873C168.715 100.475 168.829 96.25 169.341 93.5664C169.455 93.0525 169.683 92.6528 169.683 92.196C169.683 91.7963 169.228 91.3966 169 91.1682L173.897 90.8827C174.524 90.8827 174.979 90.5972 174.922 89.912C174.808 88.2562 172.986 87.9136 171.278 87.9136C170.253 87.9136 169.285 88.0278 168.658 88.0849C167.975 88.142 167.69 88.4846 167.462 89.0556M179.451 118.747C179.451 109.269 180.362 98.9336 181.273 90.5401C181.33 89.7978 180.703 88.9414 179.906 88.9414C178.767 88.9414 178.084 88.9413 178.084 90.3117C178.084 91.8534 178.027 93.338 177.913 94.7654C177.457 102.245 176.774 109.84 176.774 117.262C176.774 118.29 176.148 119.946 176.262 120.517C176.774 121.488 177.457 122.116 178.653 122.116C178.824 122.116 179.052 122.116 179.166 122.059C180.703 121.602 186.056 120.688 186.056 118.633C186.056 118.176 185.715 117.662 185.316 117.719C184.006 118.062 181.444 118.747 179.451 118.747ZM189.673 118.519C189.388 118.461 188.648 119.375 188.648 119.66C188.762 121.202 190.128 122.344 191.666 122.344C195.652 121.887 196.962 115.207 196.677 111.895C196.165 106.414 192.008 103.045 191.666 99.8472C191.381 96.821 194.115 92.196 197.361 92.1389C197.474 92.196 197.588 92.2531 197.702 92.2531C198.499 92.2531 198.556 90.7114 198.443 90.3117C198.158 89.341 197.19 89.2268 196.336 89.2268C191.381 89.6265 188.591 96.5926 188.933 100.19C189.274 104.529 193.431 107.613 193.83 112.238C194.172 115.664 192.919 119.204 191.097 119.375C190.527 119.432 190.242 119.032 189.673 118.519ZM205.873 119.889C204.791 118.519 204.05 116.063 203.709 113.551C202.912 106.699 203.994 98.3626 207.296 92.5386C207.695 91.7963 208.094 90.9398 209.119 90.8827C209.745 90.8827 210.314 91.6821 210.827 91.6821C211.624 91.5679 212.194 90.9969 212.08 90.3117C211.909 89.1126 209.403 88.0849 208.435 88.142C203.196 88.5417 201.032 101.16 200.634 105.157C200.064 109.954 200.634 114.179 201.431 117.262C202.057 119.889 203.481 122.687 206.556 122.687C208.606 122.573 210.884 119.603 209.631 118.347C209.517 118.233 209.232 117.776 208.72 117.605C207.866 118.347 207.069 120.117 206.271 120.117C206.157 120.117 205.987 120.06 205.873 119.889ZM217.744 101.96C217.801 98.7623 218.769 93.2238 218.769 89.4552C218.769 88.5417 217.289 87.3997 216.377 87.3997C215.979 87.3997 215.58 87.7994 215.58 88.1991C215.58 88.6559 215.694 89.1126 215.694 89.5123C215.694 92.5957 214.84 100.647 214.726 102.531C214.441 102.588 213.473 102.759 212.562 103.102C212.334 103.216 212.22 103.444 212.22 103.73C212.22 103.901 212.277 104.073 212.334 104.301C212.334 104.529 212.562 104.415 212.562 104.586C213.245 105.329 213.587 105.329 214.441 105.329C214.157 109.04 213.758 111.781 213.758 115.492C213.758 116.748 213.986 118.005 213.986 119.261C213.986 120.574 214.498 121.944 216.036 121.944C216.434 121.944 217.402 121.659 217.402 121.088C217.402 120.86 217.346 120.688 217.346 120.46C216.207 118.119 217.175 108.241 217.516 105.157C217.573 104.586 217.687 104.701 218.257 104.529C220.421 104.073 221.218 103.958 223.439 103.73C222.983 107.498 222.983 110.582 222.698 114.293C222.528 116.748 222.471 118.918 222.471 121.373C222.471 122.801 222.983 124 224.578 124C225.033 124 225.944 123.543 225.944 123.029C225.944 122.858 225.773 122.573 225.773 122.287C225.489 121.887 225.318 121.431 225.318 120.86C225.318 114.864 225.66 109.44 226.229 103.387C226.969 103.273 229.076 102.702 229.076 101.731C229.076 101.389 228.848 100.647 228.393 100.647C228.279 100.647 228.108 100.647 227.994 100.761L226.4 100.932C226.628 98.3056 226.628 97.7346 226.855 95.1651C226.969 93.5664 227.368 91.8534 227.368 90.2546C227.368 88.9414 226.172 88.0278 225.147 88.0278C224.521 88.0278 224.35 88.4846 224.35 89.1127C224.35 93.1096 223.78 98.5339 223.496 101.218C221.503 101.389 219.737 101.617 217.744 101.96ZM237.019 105.1C237.417 109.04 237.36 114.293 238.044 121.659C238.101 122.63 238.442 122.972 239.41 123.029C239.98 123.029 241.346 122.915 241.403 122.515C241.403 122.173 241.176 122.173 241.119 121.773C240.378 117.491 240.151 108.583 240.037 104.986C239.98 104.415 240.435 104.244 240.492 103.616C240.606 102.988 240.378 102.302 239.923 102.131C239.752 98.4768 239.467 92.8241 239.183 89.1697C239.069 88.4275 237.246 87.9707 236.62 87.9707C235.424 88.0278 234.855 89.2268 234.627 90.1404C232.691 98.1913 231.267 106.699 229.616 115.035C229.274 117.034 228.762 120.06 228.875 122.002C228.875 122.573 230.185 123.258 230.698 123.258C231.381 123.201 231.723 122.744 231.78 122.116C232.406 116.691 233.716 108.926 234.399 105.215C235.595 105.157 235.937 105.215 237.019 105.1ZM236.905 95.108C237.019 97.2207 236.962 100.076 237.019 102.188C236.848 102.245 236.278 102.302 235.766 102.302C235.424 102.302 235.082 102.245 234.969 102.245C235.253 99.733 236.449 94.5941 236.848 92.6528M248.437 88.8272C248.437 88.3704 248.38 87.7423 248.096 87.571C247.355 87.1713 247.242 87 246.672 87C245.761 87.0571 245.476 87.9136 245.419 88.7701C245.135 95.108 244.565 100.532 244.167 106.927C243.882 112.238 243.312 116.634 243.54 122.002C243.54 123.201 244.736 123.543 245.704 123.543C246.444 123.543 246.444 123.258 246.444 122.287C246.444 122.002 246.444 121.773 246.444 121.431C247.128 120.974 248.21 120.802 249.804 119.318C254.588 114.75 256.353 105.614 256.068 99.2191C256.068 98.534 255.954 97.6775 255.954 96.9923C255.556 94.1944 253.961 90.6543 251.285 89.3981C250.601 89.1697 249.121 88.8272 248.437 88.8272ZM246.558 118.005C246.786 113.608 247.128 107.841 247.412 103.444C247.697 99.8472 247.982 95.4506 248.38 91.9105C248.551 91.8534 248.836 91.7963 249.064 91.7963C249.235 91.7963 249.406 91.7963 249.519 91.8534C252.082 92.3673 252.879 96.1358 252.993 97.9059C253.278 103.844 251.854 111.781 248.324 116.577C247.868 117.262 247.185 117.491 246.558 118.005ZM261.506 90.3117C260.082 91.1111 260.196 91.1111 260.026 92.5957C259.513 98.1342 258.887 103.787 258.488 109.326C258.203 112.866 258.089 116.52 258.089 120.117C258.089 120.917 258.317 122.23 259.399 122.23C262.303 122.173 264.24 120.574 266.631 120.231C267.315 120.174 267.77 119.946 267.77 119.261C267.77 118.119 266.46 117.776 265.492 117.776C264.183 117.776 262.645 118.633 261.278 119.032C261.221 115.035 261.335 111.495 261.848 107.613C261.962 106.813 261.791 106.014 262.474 105.843C263.556 105.557 265.265 105.5 266.346 105.386C266.688 105.329 267.144 105.1 267.485 105.1C267.941 104.929 268.34 104.301 268.34 103.844C268.34 103.216 267.884 103.045 267.201 103.045L262.36 102.873C262.645 100.475 262.759 96.25 263.271 93.5664C263.385 93.0525 263.613 92.6528 263.613 92.196C263.613 91.7963 263.158 91.3966 262.93 91.1682L267.827 90.8827C268.453 90.8827 268.909 90.5972 268.852 89.912C268.738 88.2562 266.916 87.9136 265.208 87.9136C264.183 87.9136 263.214 88.0278 262.588 88.0849C261.905 88.142 261.62 88.4846 261.392 89.0556M287.871 105.157C287.53 104.301 286.733 103.273 285.651 103.273C285.138 103.273 284.739 103.33 284.398 103.33C283.999 103.33 283.601 103.387 283.145 103.387C282.462 103.387 280.867 103.273 280.582 103.045C281.323 100.989 286.163 95.6219 288.327 95.6219C288.612 95.6219 288.783 95.7361 288.953 95.7361C289.124 95.7932 289.352 95.9074 289.808 95.9074C290.035 95.9074 290.092 95.9074 290.491 95.7361C290.491 95.5648 290.491 95.4506 290.548 95.3364C290.548 95.2222 290.605 95.0509 290.605 94.9367C290.605 93.5093 288.384 93.2238 287.359 93.2238C287.53 91.5108 287.701 90.5972 288.498 89.1697C288.669 88.9984 288.669 88.8843 288.669 88.713C288.669 87.8565 287.985 87 287.074 87C285.48 87 285.081 90.1975 284.853 92.3673C284.739 93.1096 284.739 93.6806 284.682 94.0231C284.341 94.4799 283.828 94.7654 283.43 95.108C281.892 96.0216 277.621 100.647 277.621 102.588C277.621 105.157 279.671 105.614 281.55 106.071C279.614 107.498 276.653 110.981 276.653 113.265C276.653 114.75 278.191 115.835 279.5 115.835C279.728 115.835 280.013 115.835 280.355 115.778C280.525 115.778 280.753 115.721 280.981 115.721C280.981 115.835 280.981 115.892 280.924 116.235C280.867 116.863 280.81 117.662 280.81 118.519C280.81 119.889 281.038 121.202 281.835 121.202C282.974 121.202 283.316 118.804 283.601 116.92C283.714 116.063 283.828 115.378 283.999 114.978C283.999 114.179 283.657 113.494 283.373 112.923C283.316 112.752 283.202 112.466 283.145 112.295C282.575 112.466 282.291 112.58 281.949 112.752C281.38 112.98 280.753 113.208 280.127 113.208C279.956 113.208 279.842 113.208 279.671 113.151C281.266 109.611 284.569 107.213 287.871 105.157ZM305.923 91.9676C306.207 91.9676 306.549 91.9676 306.891 91.9676C307.574 91.9676 308.257 91.9676 308.542 91.9676C309.055 92.0247 309.453 91.5679 309.453 91.054C309.396 90.3688 309.055 89.7978 308.428 89.4552C307.802 89.1698 305.239 88.9984 302.791 88.9984C301.993 88.9984 301.253 88.9985 300.57 89.0556C300.513 89.0556 300.456 89.0556 300.456 89.0556C299.943 89.0556 299.488 88.8272 298.975 88.8272C298.975 88.8272 298.918 88.8272 298.861 88.8272C298.463 88.8272 298.064 89.2268 298.121 89.6836C298.121 89.9691 298.064 90.3688 298.349 90.5972C298.463 91.4537 298.804 92.196 299.829 92.1389C300.854 92.0818 300.228 92.0247 301.31 91.9676C301.993 91.9676 302.335 91.9676 302.335 92.6528C302.278 95.5077 301.766 101.275 301.538 105.043C301.196 109.84 300.684 115.264 300.797 120.174C300.854 121.488 301.424 122.573 302.904 122.515C303.588 122.515 304.214 122.116 304.214 121.373C304.214 120.688 303.873 120.117 303.816 119.432C303.702 114.864 304.784 99.3333 305.182 95.3935C305.296 94.2515 305.296 93.0525 305.923 91.9676ZM322.409 107.441C323.036 99.7901 322.865 94.6512 321.27 91.054C321.043 90.4259 320.701 89.9691 320.473 89.8549C319.619 89.2839 318.936 89.1697 318.138 88.9984C317.854 88.9984 317.683 89.0556 317.455 89.0556C317.284 89.0556 317.113 88.9984 316.829 88.8272C316.601 88.6559 316.373 88.5417 316.145 88.5417C315.12 88.5417 314.38 90.483 314.152 91.4537C313.127 95.679 312.387 99.6759 311.988 103.958C311.59 108.526 311.248 112.58 311.817 117.377C311.931 118.347 311.988 119.375 312.444 120.289C313.07 121.545 314.323 122.687 315.804 122.687C320.644 122.687 322.068 110.81 322.409 107.441ZM315.69 119.832C313.184 116.634 315.861 93.3951 317.854 90.7114C320.302 92.9383 319.847 103.901 319.505 107.042C318.993 110.924 317.968 116.063 316.145 119.603C316.031 119.775 315.917 120.003 315.861 120.003C315.804 120.003 315.747 119.946 315.69 119.832ZM328.303 90.3117C326.879 91.1111 326.993 91.1111 326.822 92.5957C326.31 98.1342 325.684 103.787 325.285 109.326C325 112.866 324.886 116.52 324.886 120.117C324.886 120.917 325.114 122.23 326.196 122.23C329.1 122.173 331.036 120.574 333.428 120.231C334.111 120.174 334.567 119.946 334.567 119.261C334.567 118.119 333.257 117.776 332.289 117.776C330.979 117.776 329.442 118.633 328.075 119.032C328.018 115.035 328.132 111.495 328.645 107.613C328.759 106.813 328.588 106.014 329.271 105.843C330.353 105.557 332.061 105.5 333.143 105.386C333.485 105.329 333.941 105.1 334.282 105.1C334.738 104.929 335.136 104.301 335.136 103.844C335.136 103.216 334.681 103.045 333.998 103.045L329.157 102.873C329.442 100.475 329.556 96.25 330.068 93.5664C330.182 93.0525 330.41 92.6528 330.41 92.196C330.41 91.7963 329.954 91.3966 329.727 91.1682L334.624 90.8827C335.25 90.8827 335.706 90.5972 335.649 89.912C335.535 88.2562 333.713 87.9136 332.004 87.9136C330.979 87.9136 330.011 88.0278 329.385 88.0849C328.702 88.142 328.417 88.4846 328.189 89.0556M342.057 88.8272C342.057 88.3704 342 87.7423 341.715 87.571C340.975 87.1713 340.861 87 340.291 87C339.38 87.0571 339.095 87.9136 339.038 88.7701C338.754 95.108 338.184 100.532 337.786 106.927C337.501 112.238 336.932 116.634 337.159 122.002C337.159 123.201 338.355 123.543 339.323 123.543C340.063 123.543 340.064 123.258 340.064 122.287C340.064 122.002 340.064 121.773 340.064 121.431C340.747 120.974 341.829 120.802 343.423 119.318C348.207 114.75 349.972 105.614 349.687 99.2191C349.687 98.534 349.573 97.6775 349.573 96.9923C349.175 94.1944 347.58 90.6543 344.904 89.3981C344.221 89.1697 342.74 88.8272 342.057 88.8272ZM340.177 118.005C340.405 113.608 340.747 107.841 341.032 103.444C341.316 99.8472 341.601 95.4506 342 91.9105C342.17 91.8534 342.455 91.7963 342.683 91.7963C342.854 91.7963 343.025 91.7963 343.139 91.8534C345.701 92.3673 346.498 96.1358 346.612 97.9059C346.897 103.844 345.473 111.781 341.943 116.577C341.487 117.262 340.804 117.491 340.177 118.005ZM352.449 89.912C352.449 90.3117 353.246 90.483 353.303 92.196C353.417 93.8518 352.847 99.0478 352.734 100.761C352.506 105.386 352.335 110.011 352.164 114.693C352.05 116.92 351.936 119.204 351.993 121.488C352.05 123.029 352.734 123.372 354.157 123.372C354.841 123.372 354.954 122.116 354.898 120.46C354.841 117.833 355.068 114.35 355.125 113.551C355.182 112.009 355.353 110.924 355.353 108.869C356.264 110.81 359.111 117.948 361.446 118.29C361.56 118.29 361.674 118.29 361.788 118.29C362.3 118.29 362.87 118.062 362.642 117.548C362.243 116.806 360.25 113.265 358.77 109.839C358.656 109.554 357.517 106.471 357.232 106.185C359.111 104.015 361.674 100.704 361.56 96.1929C361.446 91.1111 358.485 89.912 357.289 88.9414C356.834 88.142 356.207 87.6281 355.239 87.6281C353.872 87.6852 353.303 88.9414 352.449 89.912ZM355.581 103.33C355.809 100.875 356.321 94.8225 356.492 92.3673C357.517 92.5386 358.77 94.0802 358.713 96.3071C358.599 99.4475 356.948 102.36 355.581 103.33ZM371.271 105.1C371.669 109.04 371.612 114.293 372.296 121.659C372.353 122.63 372.694 122.972 373.663 123.029C374.232 123.029 375.599 122.915 375.656 122.515C375.656 122.173 375.428 122.173 375.371 121.773C374.631 117.491 374.403 108.583 374.289 104.986C374.232 104.415 374.688 104.244 374.744 103.616C374.858 102.988 374.631 102.302 374.175 102.131C374.004 98.4768 373.719 92.8241 373.435 89.1697C373.321 88.4275 371.499 87.9707 370.872 87.9707C369.676 88.0278 369.107 89.2268 368.879 90.1404C366.943 98.1913 365.519 106.699 363.868 115.035C363.526 117.034 363.014 120.06 363.128 122.002C363.128 122.573 364.437 123.258 364.95 123.258C365.633 123.201 365.975 122.744 366.032 122.116C366.658 116.691 367.968 108.926 368.651 105.215C369.847 105.157 370.189 105.215 371.271 105.1ZM371.157 95.108C371.271 97.2207 371.214 100.076 371.271 102.188C371.1 102.245 370.531 102.302 370.018 102.302C369.676 102.302 369.335 102.245 369.221 102.245C369.506 99.733 370.701 94.5941 371.1 92.6528M383.316 119.889C382.234 118.519 381.494 116.063 381.152 113.551C380.355 106.699 381.437 98.3626 384.74 92.5386C385.138 91.7963 385.537 90.9398 386.562 90.8827C387.188 90.8827 387.758 91.6821 388.27 91.6821C389.067 91.5679 389.637 90.9969 389.523 90.3117C389.352 89.1126 386.847 88.0849 385.879 88.142C380.64 88.5417 378.476 101.16 378.077 105.157C377.508 109.954 378.077 114.179 378.874 117.262C379.501 119.889 380.924 122.687 383.999 122.687C386.049 122.573 388.327 119.603 387.074 118.347C386.961 118.233 386.676 117.776 386.163 117.605C385.309 118.347 384.512 120.117 383.715 120.117C383.601 120.117 383.43 120.06 383.316 119.889ZM395.187 101.96C395.244 98.7623 396.213 93.2238 396.213 89.4552C396.213 88.5417 394.732 87.3997 393.821 87.3997C393.422 87.3997 393.024 87.7994 393.024 88.1991C393.024 88.6559 393.137 89.1126 393.137 89.5123C393.137 92.5957 392.283 100.647 392.169 102.531C391.885 102.588 390.917 102.759 390.005 103.102C389.778 103.216 389.664 103.444 389.664 103.73C389.664 103.901 389.721 104.073 389.778 104.301C389.778 104.529 390.005 104.415 390.005 104.586C390.689 105.329 391.03 105.329 391.885 105.329C391.6 109.04 391.201 111.781 391.201 115.492C391.201 116.748 391.429 118.005 391.429 119.261C391.429 120.574 391.942 121.944 393.479 121.944C393.878 121.944 394.846 121.659 394.846 121.088C394.846 120.86 394.789 120.688 394.789 120.46C393.65 118.119 394.618 108.241 394.96 105.157C395.017 104.586 395.131 104.701 395.7 104.529C397.864 104.073 398.661 103.958 400.882 103.73C400.426 107.498 400.426 110.582 400.142 114.293C399.971 116.748 399.914 118.918 399.914 121.373C399.914 122.801 400.426 124 402.021 124C402.476 124 403.388 123.543 403.388 123.029C403.388 122.858 403.217 122.573 403.217 122.287C402.932 121.887 402.761 121.431 402.761 120.86C402.761 114.864 403.103 109.44 403.672 103.387C404.413 103.273 406.52 102.702 406.52 101.731C406.52 101.389 406.292 100.647 405.836 100.647C405.722 100.647 405.552 100.647 405.438 100.761L403.843 100.932C404.071 98.3056 404.071 97.7346 404.299 95.1651C404.413 93.5664 404.811 91.8534 404.811 90.2546C404.811 88.9414 403.615 88.0278 402.59 88.0278C401.964 88.0278 401.793 88.4846 401.793 89.1127C401.793 93.1096 401.224 98.5339 400.939 101.218C398.946 101.389 397.181 101.617 395.187 101.96ZM415.088 91.9676C415.373 91.9676 415.715 91.9676 416.056 91.9676C416.74 91.9676 417.423 91.9676 417.708 91.9676C418.22 92.0247 418.619 91.5679 418.619 91.054C418.562 90.3688 418.22 89.7978 417.594 89.4552C416.968 89.1698 414.405 88.9984 411.956 88.9984C411.159 88.9984 410.419 88.9985 409.735 89.0556C409.223 89.0556 408.654 88.8272 408.141 88.8272C408.141 88.8272 408.084 88.8272 408.027 88.8272C407.628 88.8272 407.23 89.2268 407.287 89.6836C407.287 89.9691 407.23 90.3688 407.515 90.5972C407.629 91.4537 407.97 92.196 408.995 92.1389C410.02 92.0818 409.394 92.0247 410.476 91.9676C411.159 91.9676 411.501 91.9676 411.501 92.6528C411.444 95.5077 410.931 101.275 410.704 105.043C410.362 109.84 409.849 115.264 409.963 120.174C410.02 121.488 410.59 122.573 412.07 122.515C412.754 122.515 413.38 122.116 413.38 121.373C413.38 120.688 413.038 120.117 412.981 119.432C412.867 114.864 413.949 99.3333 414.348 95.3935C414.462 94.2515 414.462 93.0525 415.088 91.9676ZM431.575 107.441C432.201 99.7901 432.031 94.6512 430.436 91.054C430.208 90.4259 429.867 89.9691 429.639 89.8549C428.785 89.2839 428.101 89.1697 427.304 88.9984C427.019 88.9984 426.849 89.0556 426.621 89.0556C426.45 89.0556 426.279 88.9984 425.994 88.8272C425.767 88.6559 425.539 88.5417 425.311 88.5417C424.286 88.5417 423.546 90.483 423.318 91.4537C422.293 95.679 421.553 99.6759 421.154 103.958C420.755 108.526 420.414 112.58 420.983 117.377C421.097 118.347 421.154 119.375 421.61 120.289C422.236 121.545 423.489 122.687 424.969 122.687C429.81 122.687 431.233 110.81 431.575 107.441ZM424.855 119.832C422.35 116.634 425.026 93.3951 427.019 90.7114C429.468 92.9383 429.012 103.901 428.671 107.042C428.158 110.924 427.133 116.063 425.311 119.603C425.197 119.775 425.083 120.003 425.026 120.003C424.969 120.003 424.912 119.946 424.855 119.832ZM443.619 112.752C443.619 112.009 443.448 111.267 443.277 110.582C442.651 107.498 442.195 104.758 441.626 101.674C441.284 99.3904 440.829 96.821 440.43 94.5941C440.202 93.1667 440.088 91.6821 439.747 90.3117C439.462 88.9413 438.836 88.6559 437.526 88.6559C436.045 88.6559 435.305 90.0262 435.362 92.1389C435.419 96.7639 435.248 101.389 435.077 106.014C435.02 108.583 434.906 111.552 434.792 114.065C434.508 117.262 433.995 119.775 434.565 121.944C434.679 122.458 435.134 122.744 435.647 122.744C436.159 122.744 436.785 122.401 436.956 121.659C437.526 119.261 437.924 102.531 437.924 102.188C437.981 101.046 438.038 98.534 437.981 97.3349C438.266 97.6775 439.462 105.386 439.576 106.014C439.69 106.642 440.999 114.636 442.537 120.688C442.651 121.145 443.163 121.545 443.676 121.545C444.302 121.488 444.644 121.031 444.701 120.403C445.783 120.403 446.409 119.946 446.409 119.089C446.409 118.347 446.181 117.662 446.181 116.92C446.295 111.61 446.466 102.417 446.751 97.1636C446.865 95.1651 447.036 92.196 446.979 90.1975C446.979 89.5123 446.295 88.8272 445.498 88.8272C445.27 88.8272 445.043 88.8843 444.815 89.0556C444.131 89.3981 444.131 93.5664 444.131 94.537C444.074 96.7639 443.676 107.27 443.619 112.752ZM454.524 88.8272C454.524 88.3704 454.467 87.7423 454.183 87.571C453.442 87.1713 453.328 87 452.759 87C451.848 87.0571 451.563 87.9136 451.506 88.7701C451.221 95.108 450.652 100.532 450.253 106.927C449.969 112.238 449.399 116.634 449.627 122.002C449.627 123.201 450.823 123.543 451.791 123.543C452.531 123.543 452.531 123.258 452.531 122.287C452.531 122.002 452.531 121.773 452.531 121.431C453.215 120.974 454.296 120.802 455.891 119.318C460.674 114.75 462.44 105.614 462.155 99.2191C462.155 98.534 462.041 97.6775 462.041 96.9923C461.642 94.1944 460.048 90.6543 457.372 89.3981C456.688 89.1697 455.208 88.8272 454.524 88.8272ZM452.645 118.005C452.873 113.608 453.215 107.841 453.499 103.444C453.784 99.8472 454.069 95.4506 454.467 91.9105C454.638 91.8534 454.923 91.7963 455.151 91.7963C455.322 91.7963 455.492 91.7963 455.606 91.8534C458.169 92.3673 458.966 96.1358 459.08 97.9059C459.365 103.844 457.941 111.781 454.41 116.577C453.955 117.262 453.271 117.491 452.645 118.005ZM467.593 90.3117C466.169 91.1111 466.283 91.1111 466.112 92.5957C465.6 98.1342 464.973 103.787 464.575 109.326C464.29 112.866 464.176 116.52 464.176 120.117C464.176 120.917 464.404 122.23 465.486 122.23C468.39 122.173 470.326 120.574 472.718 120.231C473.401 120.174 473.857 119.946 473.857 119.261C473.857 118.119 472.547 117.776 471.579 117.776C470.269 117.776 468.732 118.633 467.365 119.032C467.308 115.035 467.422 111.495 467.935 107.613C468.049 106.813 467.878 106.014 468.561 105.843C469.643 105.557 471.351 105.5 472.433 105.386C472.775 105.329 473.231 105.1 473.572 105.1C474.028 104.929 474.426 104.301 474.426 103.844C474.426 103.216 473.971 103.045 473.287 103.045L468.447 102.873C468.732 100.475 468.846 96.25 469.358 93.5664C469.472 93.0525 469.7 92.6528 469.7 92.196C469.7 91.7963 469.244 91.3966 469.017 91.1682L473.914 90.8827C474.54 90.8827 474.996 90.5972 474.939 89.912C474.825 88.2562 473.003 87.9136 471.294 87.9136C470.269 87.9136 469.301 88.0278 468.675 88.0849C467.992 88.142 467.707 88.4846 467.479 89.0556M476.962 89.912C476.962 90.3117 477.759 90.483 477.816 92.196C477.93 93.8518 477.36 99.0478 477.246 100.761C477.019 105.386 476.848 110.011 476.677 114.693C476.563 116.92 476.449 119.204 476.506 121.488C476.563 123.029 477.246 123.372 478.67 123.372C479.353 123.372 479.467 122.116 479.41 120.46C479.353 117.833 479.581 114.35 479.638 113.551C479.695 112.009 479.866 110.924 479.866 108.869C480.777 110.81 483.624 117.948 485.959 118.29C486.073 118.29 486.187 118.29 486.301 118.29C486.813 118.29 487.383 118.062 487.155 117.548C486.756 116.806 484.763 113.265 483.283 109.839C483.169 109.554 482.03 106.471 481.745 106.185C483.624 104.015 486.187 100.704 486.073 96.1929C485.959 91.1111 482.998 89.912 481.802 88.9414C481.346 88.142 480.72 87.6281 479.752 87.6281C478.385 87.6852 477.816 88.9414 476.962 89.912ZM480.094 103.33C480.321 100.875 480.834 94.8225 481.005 92.3673C482.03 92.5386 483.283 94.0802 483.226 96.3071C483.112 99.4475 481.46 102.36 480.094 103.33ZM497.264 90.9969C497.378 92.4815 493.848 102.017 493.05 104.415C491.854 107.784 490.089 112.98 489.178 116.292C488.722 117.491 488.324 117.719 488.381 118.975C488.438 119.489 488.665 119.832 488.95 120.174C490.659 122.002 492.253 122.23 494.132 122.23C494.702 122.23 495.385 122.23 496.068 122.23C497.15 122.23 499.257 122.23 499.086 120.688C499.03 119.66 497.834 119.147 497.036 119.147C496.353 119.147 495.784 119.546 495.043 119.546C494.873 119.489 494.702 119.489 494.588 119.489C493.904 119.489 493.335 119.603 492.709 119.603C492.139 119.603 491.627 119.375 491.684 118.804C491.911 116.691 493.677 111.381 494.702 108.298C496.239 103.616 497.948 98.9907 499.485 94.3657C499.884 93.2809 500.225 92.3102 501.08 91.3966C501.421 91.1682 501.649 90.7114 501.592 90.3117C501.421 88.3133 499.257 88.0278 497.435 88.0278C496.809 88.0278 496.239 88.0849 495.784 88.0849C495.043 88.0849 490.886 88.142 490.943 88.9984C491.057 89.912 492.31 91.3966 493.335 91.3966C494.189 91.3966 495.1 90.8827 496.068 90.8827C496.467 90.8827 496.866 90.8827 497.264 90.9969ZM514.947 107.441C515.574 99.7901 515.403 94.6512 513.808 91.054C513.581 90.4259 513.239 89.9691 513.011 89.8549C512.157 89.2839 511.474 89.1697 510.677 88.9984C510.392 88.9984 510.221 89.0556 509.993 89.0556C509.822 89.0556 509.651 88.9984 509.367 88.8272C509.139 88.6559 508.911 88.5417 508.683 88.5417C507.658 88.5417 506.918 90.483 506.69 91.4537C505.665 95.679 504.925 99.6759 504.526 103.958C504.128 108.526 503.786 112.58 504.356 117.377C504.469 118.347 504.526 119.375 504.982 120.289C505.608 121.545 506.861 122.687 508.342 122.687C513.182 122.687 514.606 110.81 514.947 107.441ZM508.228 119.832C505.722 116.634 508.399 93.3951 510.392 90.7114C512.84 92.9383 512.385 103.901 512.043 107.042C511.531 110.924 510.506 116.063 508.683 119.603C508.569 119.775 508.456 120.003 508.399 120.003C508.342 120.003 508.285 119.946 508.228 119.832ZM520.841 90.3117C519.418 91.1111 519.531 91.1111 519.361 92.5957C518.848 98.1342 518.222 103.787 517.823 109.326C517.538 112.866 517.424 116.52 517.424 120.117C517.424 120.917 517.652 122.23 518.734 122.23C521.638 122.173 523.575 120.574 525.966 120.231C526.65 120.174 527.105 119.946 527.105 119.261C527.105 118.119 525.795 117.776 524.827 117.776C523.518 117.776 521.98 118.633 520.613 119.032C520.556 115.035 520.67 111.495 521.183 107.613C521.297 106.813 521.126 106.014 521.809 105.843C522.891 105.557 524.6 105.5 525.682 105.386C526.023 105.329 526.479 105.1 526.82 105.1C527.276 104.929 527.675 104.301 527.675 103.844C527.675 103.216 527.219 103.045 526.536 103.045L521.695 102.873C521.98 100.475 522.094 96.25 522.607 93.5664C522.72 93.0525 522.948 92.6528 522.948 92.196C522.948 91.7963 522.493 91.3966 522.265 91.1682L527.162 90.8827C527.789 90.8827 528.244 90.5972 528.187 89.912C528.073 88.2562 526.251 87.9136 524.543 87.9136C523.518 87.9136 522.55 88.0278 521.923 88.0849C521.24 88.142 520.955 88.4846 520.727 89.0556M534.082 98.8194C534.139 96.5926 534.709 93.1096 534.823 90.8256C534.879 89.6836 533.911 88.4275 532.829 88.4275C532.772 88.4275 532.716 88.4275 532.716 88.4275C532.146 88.4275 531.747 88.7701 531.691 89.341C531.52 91.3395 531.349 93.1667 531.235 95.0509C531.007 97.6775 530.722 100.875 530.495 103.444C530.21 108.069 529.754 114.122 529.754 118.69C529.754 119.775 529.925 122.858 531.406 122.858C531.463 122.858 531.577 122.801 531.634 122.744C532.659 122.744 532.716 122.116 532.716 121.545C532.602 117.548 533 112.809 533.342 108.812C533.399 108.412 533.456 107.955 533.456 107.613C534.709 109.611 538.353 116.063 540.688 116.063C541.143 116.063 541.884 115.892 541.884 115.378C541.884 114.807 534.823 105.272 534.823 103.216C535.848 101.446 539.093 97.1636 541.485 94.7654C542.339 93.8518 542.168 91.7392 540.688 91.7392C539.15 91.7392 535.506 97.9059 534.082 98.8194Z" fill="#574848"/>
</svg>
