<svg width="309" height="124" viewBox="0 0 309 124" fill="none" xmlns="http://www.w3.org/2000/svg">
<mask id="mask0_1_22" style="mask-type:luminance" maskUnits="userSpaceOnUse" x="0" y="0" width="94" height="124">
<path d="M0 0H93.9837V123.974H0V0Z" fill="white"/>
</mask>
<g mask="url(#mask0_1_22)">
<mask id="mask1_1_22" style="mask-type:luminance" maskUnits="userSpaceOnUse" x="0" y="0" width="94" height="124">
<path d="M0 0H93.9837V123.974H0V0Z" fill="white"/>
</mask>
<g mask="url(#mask1_1_22)">
<path d="M78.3656 106.114C76.207 100.572 74.8211 94.3751 74.8486 88.4927C74.7513 84.4335 74.7788 80.3324 77.0825 76.8881C78.3491 74.9249 80.4362 72.7997 82.0093 70.9348C91.5527 59.856 95.9747 46.0115 93.1332 31.9706C86.0294 -0.16141 43.0997 -10.2049 19.4882 11.687C10.1137 20.2168 5.28597 33.0605 7.83381 45.6676C9.42346 51.3517 7.52727 53.6897 4.08181 59.452C2.82074 61.6081 0.722615 64.0444 0.00855937 66.2878C-0.154811 68.271 2.05528 69.8158 3.65962 70.8711C5.51726 71.9937 5.84216 73.0363 5.08405 74.7011C3.57517 77.9689 5.21254 77.8688 6.40386 80.3961C6.62964 81.2039 5.97249 82.1337 6.0092 83.0925C6.01471 83.5856 6.15789 84.0587 6.42773 84.4735C7.05 85.5434 8.50381 86.0692 8.81035 87.3119C8.99392 89.599 7.62639 92.0935 8.96639 94.2623C11.7712 99.0439 18.2051 98.2542 23.9818 97.2171C24.5288 94.9683 24.8463 92.6593 24.8353 90.4196C24.8959 87.845 24.8794 85.2431 23.4182 83.058C22.6142 81.8134 21.2907 80.4652 20.294 79.2825C14.2401 72.2557 11.4353 63.4731 13.2379 54.5667C17.7443 34.1849 44.9757 27.8131 59.9525 41.6994C65.8999 47.1105 68.9618 55.2563 67.3446 63.2529C66.3368 66.8591 67.5392 68.342 69.7254 71.9973C70.5257 73.3656 71.8565 74.9103 72.3099 76.3332C72.4146 77.5904 71.0103 78.5711 69.9934 79.2407C68.8149 79.9539 68.6093 80.6144 69.0903 81.6715C70.0484 83.7439 69.0095 83.6802 68.2532 85.2832C68.11 85.7963 68.5267 86.3858 68.5029 86.9935C68.4992 87.3064 68.4092 87.6067 68.2367 87.8705C67.842 88.5491 66.9206 88.8821 66.726 89.6699C66.6085 91.1201 67.4768 92.703 66.6269 94.0785C64.4113 97.854 58.6291 96.1527 54.5246 95.4923C52.9423 95.2503 51.3233 94.8882 50.0237 95.8471C47.8485 97.4701 46.5911 101.759 46.3543 104.359C45.3575 115.296 54.7541 123.974 60.5106 123.974H87.6796C87.518 123.676 87.3602 123.385 87.1931 123.074C84.1111 117.785 80.3077 110.67 78.3656 106.114ZM18.2785 16.7925C19.8773 16.7925 21.1714 18.0771 21.1714 19.66C21.1714 21.2429 19.8755 22.5275 18.2785 22.5275C16.6815 22.5275 15.3855 21.2429 15.3855 19.66C15.3855 18.0771 16.6815 16.7925 18.2785 16.7925ZM17.2065 39.7834C13.7482 39.7834 10.9434 37.0033 10.9434 33.5754C10.9434 30.1475 13.7482 27.3673 17.2065 27.3673C20.6648 27.3673 23.4696 30.1475 23.4696 33.5754C23.4696 37.0033 20.6648 39.7834 17.2065 39.7834ZM26.9059 32.0288C25.7898 32.0288 24.8849 31.1318 24.8849 30.0256C24.8849 28.9193 25.7898 28.0223 26.9059 28.0223C28.0219 28.0223 28.9269 28.9193 28.9269 30.0256C28.9269 31.1318 28.0219 32.0288 26.9059 32.0288ZM36.4548 28.8484C30.6359 28.8484 25.9183 24.1723 25.9183 18.4046C25.9183 12.6368 30.6359 7.96075 36.4548 7.96075C42.2737 7.96075 46.9912 12.6368 46.9912 18.4046C46.9912 24.1723 42.2737 28.8484 36.4548 28.8484ZM85.6971 56.0059C83.6118 56.0059 81.9212 54.3302 81.9212 52.2633C81.9212 50.1963 83.6118 48.5206 85.6971 48.5206C87.7824 48.5206 89.473 50.1963 89.473 52.2633C89.473 54.3302 87.7824 56.0059 85.6971 56.0059ZM87.1785 29.3706C89.2454 29.3706 90.9194 31.0299 90.9194 33.0787C90.9194 35.1274 89.2454 36.7868 87.1785 36.7868C85.1115 36.7868 83.4375 35.1256 83.4375 33.0787C83.4375 31.0318 85.1115 29.3706 87.1785 29.3706ZM80.8676 16.3304C82.5472 16.3304 83.9092 17.6804 83.9092 19.3452C83.9092 21.0101 82.5472 22.3601 80.8676 22.3601C79.188 22.3601 77.826 21.0101 77.826 19.3452C77.826 17.6804 79.188 16.3304 80.8676 16.3304ZM78.8227 24.951C80.5335 24.951 81.9212 26.3266 81.9212 28.0223C81.9212 29.7181 80.5335 31.0936 78.8227 31.0936C77.1119 31.0936 75.7242 29.7181 75.7242 28.0223C75.7242 26.3266 77.1119 24.951 78.8227 24.951ZM56.0941 3.95789C59.5157 3.95789 62.2911 6.70713 62.2911 10.1005C62.2911 13.4938 59.5175 16.243 56.0941 16.243C52.6706 16.243 49.897 13.4938 49.897 10.1005C49.897 6.70713 52.6706 3.95789 56.0941 3.95789ZM58.9448 35.5077C54.7743 35.5077 51.3931 32.1562 51.3931 28.0223C51.3931 23.8885 54.7743 20.537 58.9448 20.537C63.1153 20.537 66.4965 23.8885 66.4965 28.0223C66.4965 32.1562 63.1153 35.5077 58.9448 35.5077ZM65.1969 16.7925C65.1969 14.429 67.1298 12.5131 69.5143 12.5131C71.8988 12.5131 73.8317 14.429 73.8317 16.7925C73.8317 19.156 71.8988 21.0719 69.5143 21.0719C67.1298 21.0719 65.1969 19.156 65.1969 16.7925ZM68.3321 42.9948C68.3321 38.861 71.7134 35.5095 75.8839 35.5095C80.0544 35.5095 83.4356 38.861 83.4356 42.9948C83.4356 47.1287 80.0544 50.4802 75.8839 50.4802C71.7134 50.4802 68.3321 47.1287 68.3321 42.9948ZM69.8484 61.9884C69.8484 58.6842 72.5504 56.0059 75.8857 56.0059C79.221 56.0059 81.9212 58.6842 81.9212 61.9884C81.9212 65.2926 79.2192 67.9726 75.8857 67.9726C72.5522 67.9726 69.8484 65.2944 69.8484 61.9884Z" fill="#574848"/>
</g>
</g>
<path d="M124.795 67.7299C124.795 67.4228 124.408 66.194 124.718 65.8868C124.873 65.2724 124.563 64.5044 124.718 63.8132C125.183 55.7492 129.444 42.386 132.156 34.5524C132.853 32.4788 133.396 30.1748 134.171 28.1012L134.093 27.6404C133.241 26.5652 133.241 26.8724 132.156 26.258C131.304 26.1812 129.677 26.8724 129.134 27.026L128.979 27.41L129.057 27.9476C125.183 38.162 120.069 50.1428 119.372 61.2788C119.217 65.1956 119.837 66.962 122.006 70.1875C122.703 70.4948 124.021 70.4948 124.795 70.4948C124.563 70.2644 124.33 70.034 124.33 69.8036C124.33 69.8036 124.408 69.5732 124.485 69.4195C124.563 69.7267 124.795 69.7268 125.028 69.7268C125.028 68.9588 124.563 68.3444 124.563 67.9604V67.6532M158.267 27.4868L158.5 27.41C158.655 27.3332 158.655 27.3332 158.655 27.1796C158.5 26.8724 158.422 26.5652 158.345 26.258C156.253 21.4196 148.117 20.7284 143.391 20.7284C136.108 20.7284 129.754 22.418 122.626 24.722C118.364 26.258 111.236 29.1764 106.587 29.1764C106.122 29.1764 106.045 29.1764 105.658 28.946C105.735 29.4836 106.122 29.714 106.432 29.9444C106.665 30.4052 107.207 31.0196 107.517 31.3268C107.517 31.5572 107.75 31.634 107.75 31.9412C108.059 32.0948 108.757 32.2484 109.067 32.402C109.222 32.402 109.377 32.402 109.532 32.402C113.948 32.402 117.977 30.1748 122.084 28.946C128.592 26.8724 136.882 24.4916 144.553 24.4916C147.885 24.4916 154.006 25.0292 156.33 27.794L156.563 27.4868L156.408 28.1012C156.408 28.3316 156.64 28.562 156.64 28.8692C156.795 28.946 157.028 29.1764 157.028 29.1764L157.26 29.0228L157.415 28.7156L157.88 28.2548H158.267C158.267 27.9476 158.345 27.8708 158.267 27.4868ZM152.613 47.762C153.233 47.762 153.853 47.762 154.473 47.8388L154.627 47.762L154.395 47.4548L154.473 47.3012L154.395 46.994L154.627 46.9172L154.55 46.8404L155.325 46.226C155.015 45.5348 153.698 45.3812 152.381 45.3812C151.451 45.3812 150.443 45.458 149.979 45.458C148.274 45.6116 146.027 46.0724 144.168 46.6868C144.632 45.9188 144.71 46.7636 145.02 45.6116C144.4 44.6132 143.005 43.6916 141.766 43.6916C141.378 43.6916 140.991 43.7684 140.681 43.922C139.751 44.2292 132.235 56.21 132.7 63.2756C132.778 66.194 135.335 68.0372 138.124 68.0372C140.836 67.9604 143.625 63.9668 144.555 61.7396C145.485 59.3588 146.879 54.5204 146.724 51.9092C146.647 50.9108 146.492 49.7588 146.105 48.8372C148.119 48.3764 150.211 47.9156 152.613 47.762ZM137.272 64.8884C137.194 63.4292 138.201 59.282 139.286 56.21C139.596 55.7492 140.913 52.2164 142.54 49.6052C142.695 49.9892 142.85 50.2196 142.85 50.6036C143.16 54.29 140.603 62.354 137.892 65.1956C137.814 65.426 137.737 65.6564 137.427 65.6564C137.349 65.3492 137.349 65.1188 137.272 64.8884ZM154.782 65.6564V65.1188C154.782 62.2004 155.634 57.4388 156.796 54.1364C157.416 52.6772 157.494 51.9092 157.881 50.9876C158.656 49.0676 160.671 41.8484 156.641 41.8484C156.099 41.8484 154.627 41.618 154.162 41.618C154.162 41.618 154.007 41.6948 153.852 41.9252C154.24 42.5396 153.775 43.0004 153.775 43.6148C153.775 45.3044 152.458 49.7588 152.148 50.9876C150.908 55.058 149.513 59.282 149.513 63.5828C149.513 65.7332 149.823 66.194 151.373 67.7299C151.838 68.1908 155.169 68.7284 155.867 68.7284C156.099 68.7284 156.254 68.6516 156.332 68.5747C156.564 68.4212 156.951 68.4212 157.106 68.0372C159.663 66.194 163.77 55.5188 164.39 53.5988C165.474 53.7524 166.792 53.906 167.799 53.906C168.264 53.906 168.729 53.906 168.961 53.7524C169.581 53.3684 169.503 53.2916 169.813 53.138C169.658 53.138 169.581 53.138 169.348 52.9844C169.658 52.754 169.891 52.9076 170.046 52.754C170.356 52.5236 170.821 51.986 170.898 51.8324L171.053 51.7556L165.009 50.834C165.474 49.298 166.094 46.226 164.545 45.9956L163.615 45.842C163.15 45.842 163.227 45.9188 162.995 45.9188C162.995 45.9188 162.84 45.9188 162.685 45.9188C162.685 45.9188 162.53 45.9956 162.53 46.226C161.755 47.2244 161.058 50.2196 161.058 51.9092C160.671 53.5988 156.564 63.9668 154.782 65.6564Z" fill="#574848"/>
<path d="M116.531 101.633C116.531 97.3836 116.944 92.75 117.357 88.9869C117.383 88.6541 117.099 88.2701 116.737 88.2701C116.221 88.2701 115.911 88.2701 115.911 88.8845C115.911 89.5757 115.885 90.2413 115.833 90.8813C115.627 94.2348 115.317 97.6396 115.317 100.968C115.317 101.428 115.033 102.171 115.084 102.427C115.317 102.862 115.627 103.144 116.169 103.144C116.247 103.144 116.35 103.144 116.402 103.118C117.099 102.913 119.527 102.504 119.527 101.582C119.527 101.377 119.372 101.147 119.191 101.172C118.597 101.326 117.435 101.633 116.531 101.633ZM122.148 88.8845C121.503 89.2429 121.554 89.2429 121.477 89.9085C121.244 92.3916 120.96 94.926 120.78 97.4092C120.65 98.9964 120.599 100.635 120.599 102.248C120.599 102.606 120.702 103.195 121.193 103.195C122.51 103.169 123.388 102.452 124.473 102.299C124.783 102.273 124.989 102.171 124.989 101.864C124.989 101.352 124.395 101.198 123.956 101.198C123.362 101.198 122.665 101.582 122.045 101.761C122.019 99.9692 122.071 98.382 122.303 96.6412C122.355 96.2828 122.278 95.9244 122.587 95.8476C123.078 95.7196 123.853 95.6941 124.344 95.6429C124.499 95.6173 124.705 95.5148 124.86 95.5148C125.067 95.438 125.248 95.1564 125.248 94.9516C125.248 94.67 125.041 94.5932 124.731 94.5932L122.536 94.5164C122.665 93.4412 122.717 91.5469 122.949 90.3437C123.001 90.1133 123.104 89.9341 123.104 89.7293C123.104 89.5501 122.897 89.3709 122.794 89.2685L125.015 89.1405C125.299 89.1405 125.506 89.0125 125.48 88.7053C125.428 87.9629 124.602 87.8093 123.827 87.8093C123.362 87.8093 122.923 87.8605 122.639 87.8861C122.329 87.9117 122.2 88.0653 122.097 88.3213M129.626 89.6269C129.755 89.6269 129.91 89.6269 130.065 89.6269C130.375 89.6269 130.685 89.6269 130.814 89.6269C131.046 89.6525 131.227 89.4477 131.227 89.2173C131.201 88.9101 131.046 88.6541 130.762 88.5005C130.478 88.3725 129.316 88.2957 128.205 88.2957C127.844 88.2957 127.508 88.2957 127.198 88.3213C127.172 88.3213 127.147 88.3213 127.147 88.3213C126.914 88.3213 126.707 88.2189 126.475 88.2189C126.475 88.2189 126.449 88.2189 126.423 88.2189C126.243 88.2189 126.062 88.3981 126.088 88.6029C126.088 88.7309 126.062 88.9101 126.191 89.0125C126.243 89.3965 126.398 89.7293 126.862 89.7037C127.327 89.6781 127.043 89.6525 127.534 89.6269C127.844 89.6269 127.999 89.6269 127.999 89.9341C127.973 91.2141 127.741 93.7997 127.637 95.4893C127.482 97.6396 127.25 100.072 127.302 102.273C127.327 102.862 127.586 103.348 128.257 103.323C128.567 103.323 128.851 103.144 128.851 102.811C128.851 102.504 128.696 102.248 128.67 101.94C128.619 99.8924 129.109 92.9292 129.29 91.1629C129.342 90.6509 129.342 90.1133 129.626 89.6269ZM132.635 101.531C132.506 101.505 132.17 101.915 132.17 102.043C132.222 102.734 132.842 103.246 133.539 103.246C135.347 103.041 135.941 100.046 135.812 98.5612C135.58 96.1036 133.694 94.5932 133.539 93.1597C133.41 91.8029 134.65 89.7293 136.122 89.7037C136.174 89.7293 136.225 89.7549 136.277 89.7549C136.638 89.7549 136.664 89.0637 136.613 88.8845C136.483 88.4493 136.044 88.3981 135.657 88.3981C133.41 88.5773 132.145 91.7005 132.3 93.3133C132.454 95.2589 134.34 96.6412 134.521 98.7148C134.676 100.251 134.107 101.838 133.281 101.915C133.023 101.94 132.894 101.761 132.635 101.531ZM138.924 88.8845C138.278 89.2429 138.33 89.2429 138.252 89.9085C138.02 92.3916 137.736 94.926 137.555 97.4092C137.426 98.9964 137.374 100.635 137.374 102.248C137.374 102.606 137.477 103.195 137.968 103.195C139.285 103.169 140.163 102.452 141.248 102.299C141.558 102.273 141.765 102.171 141.765 101.864C141.765 101.352 141.171 101.198 140.732 101.198C140.137 101.198 139.44 101.582 138.82 101.761C138.794 99.9692 138.846 98.382 139.079 96.6412C139.13 96.2828 139.053 95.9244 139.363 95.8476C139.853 95.7196 140.628 95.6941 141.119 95.6429C141.274 95.6173 141.481 95.5148 141.635 95.5148C141.842 95.438 142.023 95.1564 142.023 94.9516C142.023 94.67 141.816 94.5932 141.506 94.5932L139.311 94.5164C139.44 93.4412 139.492 91.5469 139.724 90.3437C139.776 90.1133 139.879 89.9341 139.879 89.7293C139.879 89.5501 139.673 89.3709 139.569 89.2685L141.79 89.1405C142.075 89.1405 142.281 89.0125 142.255 88.7053C142.204 87.9629 141.377 87.8093 140.602 87.8093C140.137 87.8093 139.698 87.8605 139.414 87.8861C139.104 87.9117 138.975 88.0653 138.872 88.3213M144.309 101.633C144.309 97.3836 144.722 92.75 145.136 88.9869C145.161 88.6541 144.877 88.2701 144.516 88.2701C143.999 88.2701 143.689 88.2701 143.689 88.8845C143.689 89.5757 143.663 90.2413 143.612 90.8813C143.405 94.2348 143.095 97.6396 143.095 100.968C143.095 101.428 142.811 102.171 142.863 102.427C143.095 102.862 143.405 103.144 143.948 103.144C144.025 103.144 144.128 103.144 144.18 103.118C144.877 102.913 147.305 102.504 147.305 101.582C147.305 101.377 147.15 101.147 146.969 101.172C146.375 101.326 145.213 101.633 144.309 101.633ZM148.945 101.531C148.816 101.505 148.481 101.915 148.481 102.043C148.532 102.734 149.152 103.246 149.849 103.246C151.657 103.041 152.251 100.046 152.122 98.5612C151.89 96.1036 150.004 94.5932 149.849 93.1597C149.72 91.8029 150.96 89.7293 152.432 89.7037C152.484 89.7293 152.535 89.7549 152.587 89.7549C152.949 89.7549 152.974 89.0637 152.923 88.8845C152.794 88.4493 152.355 88.3981 151.967 88.3981C149.72 88.5773 148.455 91.7005 148.61 93.3133C148.765 95.2589 150.65 96.6412 150.831 98.7148C150.986 100.251 150.418 101.838 149.591 101.915C149.333 101.94 149.204 101.761 148.945 101.531ZM156.293 102.145C155.802 101.531 155.466 100.43 155.311 99.3036C154.95 96.2316 155.44 92.4941 156.938 89.8829C157.119 89.5501 157.3 89.1661 157.765 89.1405C158.049 89.1405 158.307 89.4989 158.54 89.4989C158.901 89.4477 159.159 89.1917 159.108 88.8845C159.03 88.3469 157.894 87.8861 157.455 87.9117C155.079 88.0909 154.097 93.7484 153.917 95.5404C153.658 97.6908 153.917 99.5852 154.278 100.968C154.562 102.145 155.208 103.4 156.603 103.4C157.532 103.348 158.565 102.017 157.997 101.454C157.946 101.403 157.816 101.198 157.584 101.121C157.197 101.454 156.835 102.248 156.473 102.248C156.422 102.248 156.344 102.222 156.293 102.145ZM161.677 94.1068C161.703 92.6732 162.142 90.1901 162.142 88.5005C162.142 88.0909 161.47 87.5789 161.057 87.5789C160.876 87.5789 160.695 87.7581 160.695 87.9373C160.695 88.1421 160.747 88.3469 160.747 88.5261C160.747 89.9085 160.36 93.518 160.308 94.3628C160.179 94.3884 159.74 94.4652 159.327 94.6188C159.223 94.67 159.172 94.7725 159.172 94.9005C159.172 94.9773 159.197 95.0541 159.223 95.1565C159.223 95.2589 159.327 95.2076 159.327 95.2844C159.637 95.6172 159.792 95.6172 160.179 95.6172C160.05 97.2812 159.869 98.51 159.869 100.174C159.869 100.737 159.972 101.3 159.972 101.864C159.972 102.452 160.205 103.067 160.902 103.067C161.083 103.067 161.522 102.939 161.522 102.683C161.522 102.58 161.496 102.504 161.496 102.401C160.98 101.352 161.419 96.9228 161.574 95.5404C161.599 95.2844 161.651 95.3356 161.909 95.2588C162.891 95.054 163.252 95.0029 164.26 94.9005C164.053 96.59 164.053 97.9724 163.924 99.6364C163.846 100.737 163.821 101.71 163.821 102.811C163.821 103.451 164.053 103.988 164.776 103.988C164.983 103.988 165.396 103.784 165.396 103.553C165.396 103.476 165.318 103.348 165.318 103.22C165.189 103.041 165.112 102.836 165.112 102.58C165.112 99.8924 165.267 97.4604 165.525 94.7469C165.861 94.6957 166.816 94.4396 166.816 94.0044C166.816 93.8509 166.713 93.518 166.507 93.518C166.455 93.518 166.377 93.5181 166.326 93.5693L165.603 93.6461C165.706 92.4685 165.706 92.2125 165.809 91.0605C165.861 90.3437 166.042 89.5757 166.042 88.8589C166.042 88.2701 165.499 87.8605 165.034 87.8605C164.75 87.8605 164.673 88.0653 164.673 88.3469C164.673 90.1389 164.415 92.5708 164.285 93.774C163.381 93.8508 162.581 93.9532 161.677 94.1068ZM170.419 95.5148C170.599 97.2812 170.574 99.6364 170.884 102.939C170.909 103.374 171.064 103.528 171.503 103.553C171.762 103.553 172.382 103.502 172.407 103.323C172.407 103.169 172.304 103.169 172.278 102.99C171.942 101.07 171.839 97.0764 171.787 95.4636C171.762 95.2076 171.968 95.1308 171.994 94.8492C172.046 94.5676 171.942 94.2604 171.736 94.1836C171.658 92.5453 171.529 90.0109 171.4 88.3725C171.348 88.0397 170.522 87.8349 170.238 87.8349C169.695 87.8605 169.437 88.3981 169.334 88.8077C168.456 92.4172 167.81 96.2316 167.061 99.9692C166.906 100.865 166.674 102.222 166.725 103.092C166.725 103.348 167.319 103.656 167.552 103.656C167.862 103.63 168.017 103.425 168.043 103.144C168.327 100.712 168.921 97.2301 169.231 95.5661C169.773 95.5405 169.928 95.566 170.419 95.5148ZM170.367 91.0349C170.419 91.9821 170.393 93.262 170.419 94.2092C170.341 94.2348 170.083 94.2604 169.85 94.2604C169.695 94.2604 169.541 94.2349 169.489 94.2349C169.618 93.1085 170.16 90.8045 170.341 89.9341M175.598 88.2189C175.598 88.0141 175.572 87.7325 175.443 87.6557C175.107 87.4765 175.055 87.3997 174.797 87.3997C174.384 87.4253 174.255 87.8093 174.229 88.1933C174.1 91.0349 173.841 93.4669 173.661 96.3341C173.531 98.7148 173.273 100.686 173.376 103.092C173.376 103.63 173.919 103.784 174.358 103.784C174.694 103.784 174.694 103.656 174.694 103.22C174.694 103.092 174.694 102.99 174.694 102.836C175.004 102.632 175.494 102.555 176.217 101.889C178.387 99.8412 179.188 95.7453 179.058 92.8781C179.058 92.5709 179.007 92.1869 179.007 91.8797C178.826 90.6253 178.103 89.0381 176.889 88.4749C176.579 88.3725 175.907 88.2189 175.598 88.2189ZM174.745 101.3C174.849 99.3292 175.004 96.7436 175.133 94.7724C175.262 93.1596 175.391 91.1885 175.572 89.6013C175.649 89.5757 175.778 89.5501 175.882 89.5501C175.959 89.5501 176.037 89.5501 176.088 89.5757C177.25 89.8061 177.612 91.4957 177.664 92.2893C177.793 94.9517 177.147 98.51 175.546 100.66C175.339 100.968 175.029 101.07 174.745 101.3ZM181.525 88.8845C180.879 89.2429 180.931 89.2429 180.853 89.9085C180.621 92.3916 180.337 94.926 180.156 97.4092C180.027 98.9964 179.975 100.635 179.975 102.248C179.975 102.606 180.078 103.195 180.569 103.195C181.886 103.169 182.764 102.452 183.849 102.299C184.159 102.273 184.366 102.171 184.366 101.864C184.366 101.352 183.772 101.198 183.333 101.198C182.739 101.198 182.041 101.582 181.421 101.761C181.396 99.9692 181.447 98.382 181.68 96.6412C181.731 96.2828 181.654 95.9244 181.964 95.8476C182.455 95.7196 183.229 95.6941 183.72 95.6429C183.875 95.6173 184.082 95.5148 184.237 95.5148C184.443 95.438 184.624 95.1564 184.624 94.9516C184.624 94.67 184.417 94.5932 184.107 94.5932L181.912 94.5164C182.041 93.4412 182.093 91.5469 182.325 90.3437C182.377 90.1133 182.48 89.9341 182.48 89.7293C182.48 89.5501 182.274 89.3709 182.17 89.2685L184.392 89.1405C184.676 89.1405 184.882 89.0125 184.856 88.7053C184.805 87.9629 183.978 87.8093 183.204 87.8093C182.739 87.8093 182.3 87.8605 182.015 87.8861C181.706 87.9117 181.576 88.0653 181.473 88.3213M193.483 95.5404C193.328 95.1564 192.966 94.6956 192.475 94.6956C192.243 94.6956 192.062 94.7213 191.907 94.7213C191.726 94.7213 191.545 94.7469 191.339 94.7469C191.029 94.7469 190.306 94.6956 190.177 94.5932C190.512 93.6716 192.708 91.2653 193.689 91.2653C193.818 91.2653 193.896 91.3165 193.973 91.3165C194.051 91.3421 194.154 91.3933 194.361 91.3933C194.464 91.3933 194.49 91.3933 194.671 91.3165C194.671 91.2397 194.671 91.1885 194.696 91.1373C194.696 91.0861 194.722 91.0093 194.722 90.9581C194.722 90.3181 193.715 90.1901 193.25 90.1901C193.328 89.4221 193.405 89.0125 193.767 88.3725C193.844 88.2957 193.844 88.2445 193.844 88.1677C193.844 87.7837 193.534 87.3997 193.121 87.3997C192.398 87.3997 192.217 88.8333 192.114 89.8061C192.062 90.1389 192.062 90.3949 192.036 90.5485C191.881 90.7533 191.649 90.8813 191.468 91.0349C190.771 91.4445 188.834 93.5181 188.834 94.3885C188.834 95.5405 189.763 95.7452 190.616 95.95C189.738 96.59 188.395 98.1516 188.395 99.1756C188.395 99.8412 189.092 100.328 189.686 100.328C189.789 100.328 189.918 100.328 190.073 100.302C190.151 100.302 190.254 100.276 190.357 100.276C190.357 100.328 190.357 100.353 190.332 100.507C190.306 100.788 190.28 101.147 190.28 101.531C190.28 102.145 190.383 102.734 190.745 102.734C191.261 102.734 191.416 101.659 191.545 100.814C191.597 100.43 191.649 100.123 191.726 99.9436C191.726 99.5852 191.571 99.278 191.442 99.022C191.416 98.9452 191.365 98.8172 191.339 98.7404C191.081 98.8172 190.951 98.8684 190.797 98.9452C190.538 99.0476 190.254 99.15 189.97 99.15C189.893 99.15 189.841 99.15 189.763 99.1244C190.487 97.5372 191.985 96.462 193.483 95.5404ZM201.669 89.6269C201.799 89.6269 201.954 89.6269 202.109 89.6269C202.418 89.6269 202.728 89.6269 202.857 89.6269C203.09 89.6525 203.271 89.4477 203.271 89.2173C203.245 88.9101 203.09 88.6541 202.806 88.5005C202.522 88.3725 201.36 88.2957 200.249 88.2957C199.887 88.2957 199.552 88.2957 199.242 88.3213C199.216 88.3213 199.19 88.3213 199.19 88.3213C198.958 88.3213 198.751 88.2189 198.519 88.2189C198.519 88.2189 198.493 88.2189 198.467 88.2189C198.286 88.2189 198.105 88.3981 198.131 88.6029C198.131 88.7309 198.105 88.9101 198.234 89.0125C198.286 89.3965 198.441 89.7293 198.906 89.7037C199.371 89.6781 199.087 89.6525 199.577 89.6269C199.887 89.6269 200.042 89.6269 200.042 89.9341C200.017 91.2141 199.784 93.7997 199.681 95.4893C199.526 97.6396 199.293 100.072 199.345 102.273C199.371 102.862 199.629 103.348 200.301 103.323C200.611 103.323 200.895 103.144 200.895 102.811C200.895 102.504 200.74 102.248 200.714 101.94C200.662 99.8924 201.153 92.9292 201.334 91.1629C201.385 90.6509 201.385 90.1133 201.669 89.6269ZM209.147 96.5644C209.431 93.134 209.353 90.8301 208.63 89.2173C208.527 88.9357 208.372 88.7309 208.269 88.6797C207.881 88.4237 207.571 88.3725 207.21 88.2957C207.081 88.2957 207.003 88.3213 206.9 88.3213C206.822 88.3213 206.745 88.2957 206.616 88.2189C206.512 88.1421 206.409 88.0909 206.306 88.0909C205.841 88.0909 205.505 88.9613 205.402 89.3965C204.937 91.2909 204.601 93.0829 204.421 95.0028C204.24 97.0508 204.085 98.8684 204.343 101.019C204.395 101.454 204.421 101.915 204.627 102.324C204.911 102.888 205.479 103.4 206.151 103.4C208.346 103.4 208.992 98.0748 209.147 96.5644ZM206.099 102.12C204.963 100.686 206.177 90.2669 207.081 89.0637C208.191 90.0621 207.985 94.9772 207.83 96.3852C207.597 98.126 207.132 100.43 206.306 102.017C206.254 102.094 206.203 102.196 206.177 102.196C206.151 102.196 206.125 102.171 206.099 102.12ZM211.82 88.8845C211.174 89.2429 211.226 89.2429 211.148 89.9085C210.916 92.3916 210.632 94.926 210.451 97.4092C210.322 98.9964 210.27 100.635 210.27 102.248C210.27 102.606 210.374 103.195 210.864 103.195C212.182 103.169 213.06 102.452 214.144 102.299C214.454 102.273 214.661 102.171 214.661 101.864C214.661 101.352 214.067 101.198 213.628 101.198C213.034 101.198 212.336 101.582 211.717 101.761C211.691 99.9692 211.742 98.382 211.975 96.6412C212.027 96.2828 211.949 95.9244 212.259 95.8476C212.75 95.7196 213.525 95.6941 214.015 95.6429C214.17 95.6173 214.377 95.5148 214.532 95.5148C214.738 95.438 214.919 95.1564 214.919 94.9516C214.919 94.67 214.713 94.5932 214.403 94.5932L212.207 94.5164C212.336 93.4412 212.388 91.5469 212.621 90.3437C212.672 90.1133 212.776 89.9341 212.776 89.7293C212.776 89.5501 212.569 89.3709 212.466 89.2685L214.687 89.1405C214.971 89.1405 215.177 89.0125 215.152 88.7053C215.1 87.9629 214.274 87.8093 213.499 87.8093C213.034 87.8093 212.595 87.8605 212.311 87.8861C212.001 87.9117 211.872 88.0653 211.768 88.3213M218.058 88.2189C218.058 88.0141 218.032 87.7325 217.903 87.6557C217.567 87.4765 217.515 87.3997 217.257 87.3997C216.844 87.4253 216.715 87.8093 216.689 88.1933C216.56 91.0349 216.302 93.4669 216.121 96.3341C215.992 98.7148 215.733 100.686 215.837 103.092C215.837 103.63 216.379 103.784 216.818 103.784C217.154 103.784 217.154 103.656 217.154 103.22C217.154 103.092 217.154 102.99 217.154 102.836C217.464 102.632 217.954 102.555 218.678 101.889C220.847 99.8412 221.648 95.7453 221.519 92.8781C221.519 92.5709 221.467 92.1869 221.467 91.8797C221.286 90.6253 220.563 89.0381 219.349 88.4749C219.039 88.3725 218.368 88.2189 218.058 88.2189ZM217.205 101.3C217.309 99.3292 217.464 96.7436 217.593 94.7724C217.722 93.1596 217.851 91.1885 218.032 89.6013C218.109 89.5757 218.239 89.5501 218.342 89.5501C218.419 89.5501 218.497 89.5501 218.548 89.5757C219.711 89.8061 220.072 91.4957 220.124 92.2893C220.253 94.9517 219.607 98.51 218.006 100.66C217.799 100.968 217.49 101.07 217.205 101.3ZM222.771 88.7053C222.771 88.8845 223.133 88.9613 223.158 89.7293C223.21 90.4717 222.952 92.8013 222.9 93.5693C222.797 95.6428 222.719 97.7164 222.642 99.8156C222.59 100.814 222.539 101.838 222.564 102.862C222.59 103.553 222.9 103.707 223.546 103.707C223.856 103.707 223.907 103.144 223.882 102.401C223.856 101.224 223.959 99.662 223.985 99.3036C224.011 98.6124 224.088 98.126 224.088 97.2044C224.501 98.0748 225.793 101.275 226.852 101.428C226.903 101.428 226.955 101.428 227.007 101.428C227.239 101.428 227.497 101.326 227.394 101.096C227.213 100.763 226.309 99.1756 225.638 97.6396C225.586 97.5116 225.07 96.1292 224.941 96.0012C225.793 95.0285 226.955 93.5437 226.903 91.5213C226.852 89.2429 225.509 88.7053 224.966 88.2701C224.76 87.9117 224.476 87.6813 224.037 87.6813C223.417 87.7069 223.158 88.2701 222.771 88.7053ZM224.192 94.7213C224.295 93.6205 224.527 90.9069 224.605 89.8061C225.07 89.8829 225.638 90.5741 225.612 91.5725C225.56 92.9805 224.811 94.2861 224.192 94.7213ZM231.308 95.5148C231.488 97.2812 231.463 99.6364 231.772 102.939C231.798 103.374 231.953 103.528 232.392 103.553C232.651 103.553 233.27 103.502 233.296 103.323C233.296 103.169 233.193 103.169 233.167 102.99C232.831 101.07 232.728 97.0764 232.676 95.4636C232.651 95.2076 232.857 95.1308 232.883 94.8492C232.935 94.5676 232.831 94.2604 232.625 94.1836C232.547 92.5453 232.418 90.0109 232.289 88.3725C232.237 88.0397 231.411 87.8349 231.127 87.8349C230.584 87.8605 230.326 88.3981 230.223 88.8077C229.345 92.4172 228.699 96.2316 227.95 99.9692C227.795 100.865 227.563 102.222 227.614 103.092C227.614 103.348 228.208 103.656 228.441 103.656C228.751 103.63 228.906 103.425 228.932 103.144C229.216 100.712 229.81 97.2301 230.12 95.5661C230.662 95.5405 230.817 95.566 231.308 95.5148ZM231.256 91.0349C231.308 91.9821 231.282 93.262 231.308 94.2092C231.23 94.2348 230.972 94.2604 230.739 94.2604C230.584 94.2604 230.429 94.2349 230.378 94.2349C230.507 93.1085 231.049 90.8045 231.23 89.9341M236.771 102.145C236.28 101.531 235.944 100.43 235.789 99.3036C235.428 96.2316 235.918 92.4941 237.416 89.8829C237.597 89.5501 237.778 89.1661 238.243 89.1405C238.527 89.1405 238.785 89.4989 239.018 89.4989C239.379 89.4477 239.637 89.1917 239.586 88.8845C239.508 88.3469 238.372 87.8861 237.933 87.9117C235.557 88.0909 234.575 93.7484 234.395 95.5404C234.136 97.6908 234.395 99.5852 234.756 100.968C235.04 102.145 235.686 103.4 237.081 103.4C238.01 103.348 239.043 102.017 238.475 101.454C238.424 101.403 238.294 101.198 238.062 101.121C237.675 101.454 237.313 102.248 236.951 102.248C236.9 102.248 236.822 102.222 236.771 102.145ZM242.155 94.1068C242.181 92.6732 242.62 90.1901 242.62 88.5005C242.62 88.0909 241.948 87.5789 241.535 87.5789C241.354 87.5789 241.173 87.7581 241.173 87.9373C241.173 88.1421 241.225 88.3469 241.225 88.5261C241.225 89.9085 240.838 93.518 240.786 94.3628C240.657 94.3884 240.218 94.4652 239.805 94.6188C239.701 94.67 239.65 94.7725 239.65 94.9005C239.65 94.9773 239.675 95.0541 239.701 95.1565C239.701 95.2589 239.805 95.2076 239.805 95.2844C240.114 95.6172 240.269 95.6172 240.657 95.6172C240.528 97.2812 240.347 98.51 240.347 100.174C240.347 100.737 240.45 101.3 240.45 101.864C240.45 102.452 240.683 103.067 241.38 103.067C241.561 103.067 242 102.939 242 102.683C242 102.58 241.974 102.504 241.974 102.401C241.457 101.352 241.897 96.9228 242.052 95.5404C242.077 95.2844 242.129 95.3356 242.387 95.2588C243.369 95.054 243.73 95.0029 244.738 94.9005C244.531 96.59 244.531 97.9724 244.402 99.6364C244.324 100.737 244.298 101.71 244.298 102.811C244.298 103.451 244.531 103.988 245.254 103.988C245.461 103.988 245.874 103.784 245.874 103.553C245.874 103.476 245.796 103.348 245.796 103.22C245.667 103.041 245.59 102.836 245.59 102.58C245.59 99.8924 245.745 97.4604 246.003 94.7469C246.339 94.6957 247.294 94.4396 247.294 94.0044C247.294 93.8509 247.191 93.518 246.984 93.518C246.933 93.518 246.855 93.5181 246.804 93.5693L246.081 93.6461C246.184 92.4685 246.184 92.2125 246.287 91.0605C246.339 90.3437 246.52 89.5757 246.52 88.8589C246.52 88.2701 245.977 87.8605 245.512 87.8605C245.228 87.8605 245.151 88.0653 245.151 88.3469C245.151 90.1389 244.892 92.5708 244.763 93.774C243.859 93.8508 243.059 93.9532 242.155 94.1068ZM251.181 89.6269C251.31 89.6269 251.465 89.6269 251.62 89.6269C251.93 89.6269 252.24 89.6269 252.369 89.6269C252.601 89.6525 252.782 89.4477 252.782 89.2173C252.756 88.9101 252.601 88.6541 252.317 88.5005C252.033 88.3725 250.871 88.2957 249.76 88.2957C249.399 88.2957 249.063 88.2957 248.753 88.3213C248.521 88.3213 248.262 88.2189 248.03 88.2189C248.03 88.2189 248.004 88.2189 247.978 88.2189C247.797 88.2189 247.617 88.3981 247.642 88.6029C247.642 88.7309 247.617 88.9101 247.746 89.0125C247.797 89.3965 247.952 89.7293 248.417 89.7037C248.882 89.6781 248.598 89.6525 249.089 89.6269C249.399 89.6269 249.554 89.6269 249.554 89.9341C249.528 91.2141 249.295 93.7997 249.192 95.4893C249.037 97.6396 248.805 100.072 248.856 102.273C248.882 102.862 249.14 103.348 249.812 103.323C250.122 103.323 250.406 103.144 250.406 102.811C250.406 102.504 250.251 102.248 250.225 101.94C250.173 99.8924 250.664 92.9292 250.845 91.1629C250.897 90.6509 250.897 90.1133 251.181 89.6269ZM258.658 96.5644C258.942 93.134 258.865 90.8301 258.142 89.2173C258.038 88.9357 257.883 88.7309 257.78 88.6797C257.393 88.4237 257.083 88.3725 256.721 88.2957C256.592 88.2957 256.514 88.3213 256.411 88.3213C256.334 88.3213 256.256 88.2957 256.127 88.2189C256.024 88.1421 255.92 88.0909 255.817 88.0909C255.352 88.0909 255.016 88.9613 254.913 89.3965C254.448 91.2909 254.113 93.0829 253.932 95.0028C253.751 97.0508 253.596 98.8684 253.854 101.019C253.906 101.454 253.932 101.915 254.138 102.324C254.422 102.888 254.991 103.4 255.662 103.4C257.857 103.4 258.503 98.0748 258.658 96.5644ZM255.61 102.12C254.474 100.686 255.688 90.2669 256.592 89.0637C257.702 90.0621 257.496 94.9772 257.341 96.3852C257.108 98.126 256.644 100.43 255.817 102.017C255.765 102.094 255.714 102.196 255.688 102.196C255.662 102.196 255.636 102.171 255.61 102.12ZM264.12 98.9452C264.12 98.6124 264.043 98.2796 263.966 97.9724C263.681 96.59 263.475 95.3613 263.217 93.9789C263.062 92.9549 262.855 91.8029 262.674 90.8045C262.571 90.1645 262.519 89.4989 262.364 88.8845C262.235 88.2701 261.951 88.1421 261.357 88.1421C260.685 88.1421 260.35 88.7565 260.376 89.7037C260.401 91.7773 260.324 93.8509 260.246 95.9244C260.221 97.0764 260.169 98.4076 260.117 99.534C259.988 100.968 259.756 102.094 260.014 103.067C260.066 103.297 260.272 103.425 260.505 103.425C260.737 103.425 261.021 103.272 261.099 102.939C261.357 101.864 261.538 94.3628 261.538 94.2092C261.564 93.6972 261.589 92.5709 261.564 92.0333C261.693 92.1869 262.235 95.6428 262.287 95.9244C262.338 96.206 262.932 99.79 263.63 102.504C263.681 102.708 263.914 102.888 264.146 102.888C264.43 102.862 264.585 102.657 264.611 102.376C265.102 102.376 265.386 102.171 265.386 101.787C265.386 101.454 265.283 101.147 265.283 100.814C265.334 98.4332 265.412 94.3117 265.541 91.9565C265.593 91.0605 265.67 89.7293 265.644 88.8333C265.644 88.5261 265.334 88.2189 264.973 88.2189C264.869 88.2189 264.766 88.2445 264.663 88.3213C264.353 88.4749 264.353 90.3437 264.353 90.7789C264.327 91.7773 264.146 96.4876 264.12 98.9452ZM269.067 88.2189C269.067 88.0141 269.041 87.7325 268.912 87.6557C268.576 87.4765 268.524 87.3997 268.266 87.3997C267.853 87.4253 267.724 87.8093 267.698 88.1933C267.569 91.0349 267.31 93.4669 267.129 96.3341C267 98.7148 266.742 100.686 266.845 103.092C266.845 103.63 267.388 103.784 267.827 103.784C268.163 103.784 268.163 103.656 268.163 103.22C268.163 103.092 268.163 102.99 268.163 102.836C268.472 102.632 268.963 102.555 269.686 101.889C271.856 99.8412 272.656 95.7453 272.527 92.8781C272.527 92.5709 272.476 92.1869 272.476 91.8797C272.295 90.6253 271.572 89.0381 270.358 88.4749C270.048 88.3725 269.376 88.2189 269.067 88.2189ZM268.214 101.3C268.318 99.3292 268.472 96.7436 268.602 94.7724C268.731 93.1596 268.86 91.1885 269.041 89.6013C269.118 89.5757 269.247 89.5501 269.351 89.5501C269.428 89.5501 269.506 89.5501 269.557 89.5757C270.719 89.8061 271.081 91.4957 271.133 92.2893C271.262 94.9517 270.616 98.51 269.015 100.66C268.808 100.968 268.498 101.07 268.214 101.3ZM274.994 88.8845C274.348 89.2429 274.4 89.2429 274.322 89.9085C274.09 92.3916 273.806 94.926 273.625 97.4092C273.496 98.9964 273.444 100.635 273.444 102.248C273.444 102.606 273.547 103.195 274.038 103.195C275.355 103.169 276.233 102.452 277.318 102.299C277.628 102.273 277.835 102.171 277.835 101.864C277.835 101.352 277.241 101.198 276.802 101.198C276.208 101.198 275.51 101.582 274.89 101.761C274.865 99.9692 274.916 98.382 275.149 96.6412C275.2 96.2828 275.123 95.9244 275.433 95.8476C275.923 95.7196 276.698 95.6941 277.189 95.6429C277.344 95.6173 277.551 95.5148 277.706 95.5148C277.912 95.438 278.093 95.1564 278.093 94.9516C278.093 94.67 277.886 94.5932 277.576 94.5932L275.381 94.5164C275.51 93.4412 275.562 91.5469 275.794 90.3437C275.846 90.1133 275.949 89.9341 275.949 89.7293C275.949 89.5501 275.743 89.3709 275.639 89.2685L277.861 89.1405C278.145 89.1405 278.351 89.0125 278.325 88.7053C278.274 87.9629 277.447 87.8093 276.672 87.8093C276.208 87.8093 275.769 87.8605 275.484 87.8861C275.175 87.9117 275.045 88.0653 274.942 88.3213M279.243 88.7053C279.243 88.8845 279.604 88.9613 279.63 89.7293C279.682 90.4717 279.424 92.8013 279.372 93.5693C279.269 95.6428 279.191 97.7164 279.114 99.8156C279.062 100.814 279.01 101.838 279.036 102.862C279.062 103.553 279.372 103.707 280.018 103.707C280.328 103.707 280.379 103.144 280.353 102.401C280.328 101.224 280.431 99.662 280.457 99.3036C280.483 98.6124 280.56 98.126 280.56 97.2044C280.973 98.0748 282.265 101.275 283.324 101.428C283.375 101.428 283.427 101.428 283.478 101.428C283.711 101.428 283.969 101.326 283.866 101.096C283.685 100.763 282.781 99.1756 282.11 97.6396C282.058 97.5116 281.541 96.1292 281.412 96.0012C282.265 95.0285 283.427 93.5437 283.375 91.5213C283.324 89.2429 281.981 88.7053 281.438 88.2701C281.232 87.9117 280.947 87.6813 280.508 87.6813C279.889 87.7069 279.63 88.2701 279.243 88.7053ZM280.663 94.7213C280.767 93.6205 280.999 90.9069 281.077 89.8061C281.541 89.8829 282.11 90.5741 282.084 91.5725C282.032 92.9805 281.283 94.2861 280.663 94.7213ZM288.451 89.1917C288.503 89.8573 286.901 94.1324 286.54 95.2076C285.997 96.718 285.197 99.0476 284.783 100.532C284.577 101.07 284.396 101.172 284.422 101.736C284.448 101.966 284.551 102.12 284.68 102.273C285.455 103.092 286.178 103.195 287.03 103.195C287.289 103.195 287.599 103.195 287.909 103.195C288.399 103.195 289.355 103.195 289.277 102.504C289.252 102.043 288.709 101.812 288.348 101.812C288.038 101.812 287.779 101.992 287.444 101.992C287.366 101.966 287.289 101.966 287.237 101.966C286.927 101.966 286.669 102.017 286.385 102.017C286.126 102.017 285.894 101.915 285.92 101.659C286.023 100.712 286.824 98.3308 287.289 96.9484C287.986 94.8492 288.761 92.7757 289.458 90.7021C289.639 90.2157 289.794 89.7805 290.181 89.3709C290.336 89.2685 290.44 89.0637 290.414 88.8845C290.336 87.9885 289.355 87.8605 288.528 87.8605C288.244 87.8605 287.986 87.8861 287.779 87.8861C287.444 87.8861 285.558 87.9117 285.584 88.2957C285.636 88.7053 286.204 89.3709 286.669 89.3709C287.056 89.3709 287.469 89.1405 287.909 89.1405C288.089 89.1405 288.27 89.1405 288.451 89.1917ZM296.471 96.5644C296.755 93.134 296.678 90.8301 295.954 89.2173C295.851 88.9357 295.696 88.7309 295.593 88.6797C295.205 88.4237 294.895 88.3725 294.534 88.2957C294.405 88.2957 294.327 88.3213 294.224 88.3213C294.146 88.3213 294.069 88.2957 293.94 88.2189C293.837 88.1421 293.733 88.0909 293.63 88.0909C293.165 88.0909 292.829 88.9613 292.726 89.3965C292.261 91.2909 291.925 93.0829 291.745 95.0028C291.564 97.0508 291.409 98.8684 291.667 101.019C291.719 101.454 291.745 101.915 291.951 102.324C292.235 102.888 292.803 103.4 293.475 103.4C295.67 103.4 296.316 98.0748 296.471 96.5644ZM293.423 102.12C292.287 100.686 293.501 90.2669 294.405 89.0637C295.515 90.0621 295.309 94.9772 295.154 96.3852C294.921 98.126 294.456 100.43 293.63 102.017C293.578 102.094 293.527 102.196 293.501 102.196C293.475 102.196 293.449 102.171 293.423 102.12ZM299.144 88.8845C298.498 89.2429 298.55 89.2429 298.472 89.9085C298.24 92.3916 297.956 94.926 297.775 97.4092C297.646 98.9964 297.594 100.635 297.594 102.248C297.594 102.606 297.698 103.195 298.188 103.195C299.506 103.169 300.384 102.452 301.468 102.299C301.778 102.273 301.985 102.171 301.985 101.864C301.985 101.352 301.391 101.198 300.952 101.198C300.358 101.198 299.661 101.582 299.041 101.761C299.015 99.9692 299.067 98.382 299.299 96.6412C299.351 96.2828 299.273 95.9244 299.583 95.8476C300.074 95.7196 300.849 95.6941 301.339 95.6429C301.494 95.6173 301.701 95.5148 301.856 95.5148C302.062 95.438 302.243 95.1564 302.243 94.9516C302.243 94.67 302.037 94.5932 301.727 94.5932L299.531 94.5164C299.661 93.4412 299.712 91.5469 299.945 90.3437C299.996 90.1133 300.1 89.9341 300.1 89.7293C300.1 89.5501 299.893 89.3709 299.79 89.2685L302.011 89.1405C302.295 89.1405 302.502 89.0125 302.476 88.7053C302.424 87.9629 301.598 87.8093 300.823 87.8093C300.358 87.8093 299.919 87.8605 299.635 87.8861C299.325 87.9117 299.196 88.0653 299.092 88.3213M305.149 92.6989C305.175 91.7005 305.433 90.1389 305.485 89.1149C305.511 88.6029 305.072 88.0397 304.581 88.0397C304.555 88.0397 304.53 88.0397 304.53 88.0397C304.271 88.0397 304.09 88.1933 304.065 88.4493C303.987 89.3453 303.91 90.1645 303.858 91.0092C303.755 92.1868 303.626 93.6204 303.522 94.7724C303.393 96.846 303.187 99.5596 303.187 101.608C303.187 102.094 303.264 103.476 303.935 103.476C303.961 103.476 304.013 103.451 304.039 103.425C304.504 103.425 304.53 103.144 304.53 102.888C304.478 101.096 304.659 98.9708 304.814 97.1788C304.839 96.9996 304.865 96.7948 304.865 96.6412C305.433 97.5372 307.086 100.43 308.145 100.43C308.352 100.43 308.688 100.353 308.688 100.123C308.688 99.8668 305.485 95.5916 305.485 94.67C305.95 93.8765 307.422 91.9565 308.507 90.8813C308.894 90.4717 308.817 89.5245 308.145 89.5245C307.448 89.5245 305.795 92.2893 305.149 92.6989Z" fill="#574848"/>
</svg>
