<svg width="96" height="125" viewBox="0 0 96 125" fill="none" xmlns="http://www.w3.org/2000/svg">
<path d="M80.0469 106.992C77.8419 101.404 76.4263 95.1558 76.4544 89.2248C76.355 85.132 76.3831 80.9969 78.7363 77.5242C80.03 75.5447 82.1619 73.402 83.7688 71.5216C93.5169 60.3511 98.0338 46.3922 95.1313 32.2351C87.875 -0.162746 44.0244 -10.2894 19.9063 11.7837C10.3306 20.384 5.39938 33.334 8.00188 46.0454C9.62563 51.7765 7.68875 54.1339 4.16938 59.9438C2.88125 62.1178 0.738118 64.5742 0.008743 66.8362C-0.158132 68.8358 2.09938 70.3933 3.73813 71.4574C5.63563 72.5893 5.9675 73.6404 5.19312 75.319C3.65187 78.6139 5.32437 78.513 6.54125 81.0611C6.77187 81.8757 6.10062 82.8131 6.13812 83.7799C6.14375 84.2771 6.29 84.754 6.56563 85.1723C7.20125 86.251 8.68624 86.7812 8.99937 88.0342C9.18687 90.3402 7.79 92.8553 9.15875 95.0421C12.0238 99.8632 18.5956 99.0671 24.4963 98.0214C25.055 95.7539 25.3794 93.4259 25.3681 91.1676C25.43 88.5717 25.4131 85.9483 23.9206 83.7451C23.0994 82.4902 21.7475 81.1309 20.7294 79.9384C14.5456 72.8534 11.6806 63.9982 13.5219 55.0181C18.125 34.4677 45.9406 28.0432 61.2388 42.0443C67.3138 47.5002 70.4413 55.7134 68.7894 63.7762C67.76 67.4122 68.9881 68.9074 71.2213 72.5929C72.0388 73.9725 73.3981 75.53 73.8613 76.9646C73.9681 78.2323 72.5338 79.2211 71.495 79.8962C70.2913 80.6153 70.0813 81.2813 70.5725 82.3471C71.5513 84.4367 70.49 84.3725 69.7175 85.9887C69.5713 86.506 69.9969 87.1004 69.9725 87.7132C69.9688 88.0287 69.8769 88.3314 69.7006 88.5974C69.2975 89.2817 68.3563 89.6174 68.1575 90.4117C68.0375 91.8739 68.9244 93.4699 68.0563 94.8568C65.7931 98.6635 59.8869 96.9482 55.6944 96.2822C54.0781 96.0383 52.4244 95.6732 51.0969 96.64C48.875 98.2764 47.5906 102.6 47.3488 105.222C46.3306 116.249 55.9288 125 61.8088 125H89.5606C89.3956 124.699 89.2344 124.406 89.0638 124.092C85.9156 118.759 82.0306 111.586 80.0469 106.992ZM18.6706 16.9314C20.3038 16.9314 21.6256 18.2266 21.6256 19.8226C21.6256 21.4187 20.3019 22.7139 18.6706 22.7139C17.0394 22.7139 15.7156 21.4187 15.7156 19.8226C15.7156 18.2266 17.0394 16.9314 18.6706 16.9314ZM17.5756 40.1126C14.0431 40.1126 11.1781 37.3094 11.1781 33.8531C11.1781 30.3969 14.0431 27.5937 17.5756 27.5937C21.1081 27.5937 23.9731 30.3969 23.9731 33.8531C23.9731 37.3094 21.1081 40.1126 17.5756 40.1126ZM27.4831 32.2938C26.3431 32.2938 25.4188 31.3894 25.4188 30.274C25.4188 29.1586 26.3431 28.2541 27.4831 28.2541C28.6231 28.2541 29.5475 29.1586 29.5475 30.274C29.5475 31.3894 28.6231 32.2938 27.4831 32.2938ZM37.2369 29.087C31.2931 29.087 26.4744 24.3723 26.4744 18.5568C26.4744 12.7413 31.2931 8.0266 37.2369 8.0266C43.1806 8.0266 47.9994 12.7413 47.9994 18.5568C47.9994 24.3723 43.1806 29.087 37.2369 29.087ZM87.5356 56.4692C85.4056 56.4692 83.6788 54.7796 83.6788 52.6956C83.6788 50.6116 85.4056 48.922 87.5356 48.922C89.6656 48.922 91.3925 50.6116 91.3925 52.6956C91.3925 54.7796 89.6656 56.4692 87.5356 56.4692ZM89.0488 29.6135C91.16 29.6135 92.87 31.2866 92.87 33.3523C92.87 35.418 91.16 37.0911 89.0488 37.0911C86.9375 37.0911 85.2275 35.4162 85.2275 33.3523C85.2275 31.2885 86.9375 29.6135 89.0488 29.6135ZM82.6025 16.4654C84.3181 16.4654 85.7094 17.8267 85.7094 19.5053C85.7094 21.1839 84.3181 22.5451 82.6025 22.5451C80.8869 22.5451 79.4956 21.1839 79.4956 19.5053C79.4956 17.8267 80.8869 16.4654 82.6025 16.4654ZM80.5138 25.1575C82.2613 25.1575 83.6788 26.5444 83.6788 28.2541C83.6788 29.9639 82.2613 31.3508 80.5138 31.3508C78.7663 31.3508 77.3488 29.9639 77.3488 28.2541C77.3488 26.5444 78.7663 25.1575 80.5138 25.1575ZM57.2975 3.99063C60.7925 3.99063 63.6275 6.76261 63.6275 10.184C63.6275 13.6054 60.7944 16.3774 57.2975 16.3774C53.8006 16.3774 50.9675 13.6054 50.9675 10.184C50.9675 6.76261 53.8006 3.99063 57.2975 3.99063ZM60.2094 35.8014C55.9494 35.8014 52.4956 32.4222 52.4956 28.2541C52.4956 24.0861 55.9494 20.7069 60.2094 20.7069C64.4694 20.7069 67.9231 24.0861 67.9231 28.2541C67.9231 32.4222 64.4694 35.8014 60.2094 35.8014ZM66.5956 16.9314C66.5956 14.5484 68.57 12.6166 71.0056 12.6166C73.4413 12.6166 75.4156 14.5484 75.4156 16.9314C75.4156 19.3145 73.4413 21.2462 71.0056 21.2462C68.57 21.2462 66.5956 19.3145 66.5956 16.9314ZM69.7981 43.3505C69.7981 39.1824 73.2519 35.8032 77.5119 35.8032C81.7719 35.8032 85.2256 39.1824 85.2256 43.3505C85.2256 47.5186 81.7719 50.8978 77.5119 50.8978C73.2519 50.8978 69.7981 47.5186 69.7981 43.3505ZM71.3469 62.5012C71.3469 59.1697 74.1069 56.4692 77.5138 56.4692C80.9206 56.4692 83.6788 59.1697 83.6788 62.5012C83.6788 65.8327 80.9188 68.535 77.5138 68.535C74.1088 68.535 71.3469 65.8345 71.3469 62.5012Z" fill="#574848"/>
</svg>
