<svg xmlns="http://www.w3.org/2000/svg" version="1.1" xmlns:xlink="http://www.w3.org/1999/xlink" viewBox="0 0 6.819659130519597 3.2614716633474385"><g transform="matrix(0.7951771947375544,0,0,0.7951771947375544,2.7973033511379426,0.9899522290093952)"><g transform="matrix(1,0,0,1,0,0)" clip-path="url(#SvgjsClipPath57581)"><g clip-path="url(#SvgjsClipPath5757940e1fbf9-7a4f-4e27-bfd6-2143f830ced5)"><path d=" M -0.7023581586560446 1.6676975229416864 C -0.7441493711834881 1.5594525966163517 -0.7709796139200695 1.4384144419662905 -0.7704465627398727 1.3235241442611674 C -0.7723300102432353 1.2442416653932025 -0.7717969590630385 1.164141841382269 -0.7271983436532241 1.09687078244141 C -0.7026779893641628 1.0585266342125736 -0.6622727099052315 1.0170197156479017 -0.6318177191433105 0.9805945516677746 C -0.447062180087036 0.7642113092531456 -0.3614541605474004 0.49381221391188923 -0.41646504234372905 0.21957515007321415 C -0.5539922468345506 -0.40800377274536775 -1.3850901102523412 -0.6041666070578577 -1.8421992656439279 -0.17658848704918392 C -2.0236854241283275 -0.009992224864953325 -2.117147064389532 0.2408616605357471 -2.067822061848638 0.48709576904140717 C -2.0370472403785986 0.5981125615037656 -2.0737566983214974 0.6437772792739739 -2.1404591693368133 0.7563221517862303 C -2.1648729133898352 0.7984331950217921 -2.2054914133208454 0.8460168970407095 -2.2193152072606206 0.8898337040529015 C -2.222477977596456 0.9285687564805488 -2.1796917361993113 0.9587394532796981 -2.1486326207665005 0.9793507655806483 C -2.1126694344758774 1.0012769374594175 -2.106379430549553 1.021639492542942 -2.121056106377643 1.0541556145349582 C -2.150267311052438 1.11797960917721 -2.1185685342033906 1.1160250881831546 -2.0955051864735346 1.1653856274693952 C -2.091134166795919 1.1811639424032259 -2.1038563216299537 1.19932321927527 -2.1031455867230244 1.2180510840728571 C -2.1030389764869852 1.2276815420617497 -2.100267110349961 1.2369210958518306 -2.0950432087840305 1.2450234737908246 C -2.0829962521115784 1.2659190800545463 -2.054851149797178 1.2761891994596746 -2.048916513324318 1.3004607965313109 C -2.0453628387896714 1.345130485431818 -2.0718377140727884 1.3938513633018226 -2.0458958899698683 1.4362111637548098 C -1.9915957430804692 1.5296017305253211 -1.8670394506411072 1.5141787830449553 -1.75520531303578 1.49392283819747 C -1.7446153629225334 1.4499994209492382 -1.738467505977595 1.4049032911045733 -1.7386807264496735 1.3611575575830743 C -1.7375080138532402 1.3108730629178256 -1.7378278445613584 1.26005551707238 -1.766115093857145 1.2173758859112747 C -1.781680188318897 1.193068752094292 -1.8073021817136987 1.1667360237925615 -1.8265986344368295 1.1436371393173586 C -1.943798820589473 1.0063942287893086 -1.9980989674788723 0.8348583590019195 -1.963201883548643 0.6609059905309705 C -1.87595917372307 0.26282336915986315 -1.3487715565082534 0.13837368695654073 -1.0588272512264407 0.40959012744076595 C -0.9436881963038923 0.5152764081011545 -0.8844129050659877 0.6743744170172811 -0.915720777716224 0.8305584128149973 C -0.9352304509114335 0.9009922420916919 -0.9119538827094986 0.9299546895490615 -0.869629619001858 1.0013480109501107 C -0.854135598030799 1.028071643450653 -0.8283714576546115 1.058242340249802 -0.8195938815540345 1.086032075110738 C -0.817568287069286 1.1105879661451454 -0.844753897259332 1.1297422718868906 -0.864441254181274 1.14281979417439 C -0.8872558446937051 1.1567501983502044 -0.8912359601725093 1.169650036910972 -0.8819253328917351 1.190296885957268 C -0.8633751518208801 1.2307732389068922 -0.8834889496869796 1.229529452819766 -0.8981300887697234 1.2608373254700025 C -0.9009019549067478 1.2708586876577055 -0.8928351137131001 1.2823725931499608 -0.8932970914026042 1.2942418660956796 C -0.893368164893297 1.300354186295272 -0.8951094654152738 1.3062177492774385 -0.8984499194778417 1.3113705773526765 C -0.9060903197273316 1.324625783366908 -0.9239297658912575 1.3311290077653108 -0.9276966608979829 1.3465164185003307 C -0.9299710126001566 1.374839204541464 -0.9131621320512786 1.4057561729928887 -0.9296156451466921 1.4326219524748165 C -0.972508496779876 1.5063606990687326 -1.0844492446212424 1.473133842169787 -1.1639094072159395 1.4602340036090204 C -1.194542081704593 1.4555076164779401 -1.2258854911001755 1.4484358041539935 -1.251045506805473 1.4671636689515815 C -1.293156550041035 1.4988624458006283 -1.3174992206033638 1.5826225545822479 -1.3220834607530578 1.6334045636823467 C -1.3413799134761886 1.8470159399599515 -1.1594673140476315 2.0165262152625925 -1.0480240806411154 2.0165262152625925 L -0.5220447127680785 2.0165262152625925 C -0.5251719463585673 2.010698189025772 -0.5282281064583634 2.0050123097703376 -0.5314619502848918 1.998935526316092 C -0.5911281457216075 1.8956302075939164 -0.664831355570177 1.7566459965438894 -0.7024292321467376 1.6676619861963395 Z M -1.8656179808272486 -0.07687237960700155 C -1.8346654756304772 -0.07687237960700155 -1.809612070161219 -0.051783437392396825 -1.809612070161219 -0.020866468940971827 C -1.809612070161219 0.010050499510453281 -1.8347010123758236 0.03513944172505795 -1.8656179808272486 0.03513944172505795 C -1.8965349492786736 0.03513944172505795 -1.9216238914932784 0.010050499510453281 -1.9216238914932784 -0.020866468940971827 C -1.9216238914932784 -0.051783437392396825 -1.8965349492786736 -0.07687237960700155 -1.8656179808272486 -0.07687237960700155 Z M -1.8863714401095846 0.3721699345909375 C -1.9533226683423257 0.3721699345909375 -2.0076228152317253 0.31786978770153806 -2.0076228152317253 0.25091855946879693 C -2.0076228152317253 0.1839673312360557 -1.9533226683423257 0.12966718434665625 -1.8863714401095846 0.12966718434665625 C -1.8194202118768434 0.12966718434665625 -1.7651200649874441 0.1839673312360557 -1.7651200649874441 0.25091855946879693 C -1.7651200649874441 0.31786978770153806 -1.8194202118768434 0.3721699345909375 -1.8863714401095846 0.3721699345909375 Z M -1.6985952776988604 0.22071232592430112 C -1.7202016188695115 0.22071232592430112 -1.737721234325319 0.20319271046849352 -1.737721234325319 0.18158636929784255 C -1.737721234325319 0.15998002812719148 -1.7202016188695115 0.14246041267138398 -1.6985952776988604 0.14246041267138398 C -1.6769889365282094 0.14246041267138398 -1.6594693210724019 0.15998002812719148 -1.6594693210724019 0.18158636929784255 C -1.6594693210724019 0.20319271046849352 -1.6769889365282094 0.22071232592430112 -1.6985952776988604 0.22071232592430112 Z M -1.5137331284065465 0.15859409505867939 C -1.6263846111548426 0.15859409505867939 -1.717714046695259 0.06726465951826283 -1.717714046695259 -0.04538682323003307 C -1.717714046695259 -0.15803830597832894 -1.6263846111548426 -0.24936774151874544 -1.5137331284065465 -0.24936774151874544 C -1.4010816456582507 -0.24936774151874544 -1.3097522101178343 -0.1580383059783289 -1.3097522101178343 -0.04538682323003307 C -1.3097522101178343 0.06726465951826283 -1.4010816456582507 0.15859409505867939 -1.5137331284065465 0.15859409505867939 Z M -0.5604243977422612 0.6890155561000245 C -0.6007941404558459 0.6890155561000245 -0.6335234829199408 0.6562862136359299 -0.6335234829199408 0.6159164709223449 C -0.6335234829199408 0.5755467282087599 -0.6007941404558459 0.5428173857446652 -0.5604243977422612 0.5428173857446652 C -0.5200546550286762 0.5428173857446652 -0.48732531256458134 0.5755467282087599 -0.48732531256458134 0.6159164709223449 C -0.48732531256458134 0.6562862136359299 -0.5200546550286762 0.6890155561000245 -0.5604243977422612 0.6890155561000245 Z M -0.5317462442476635 0.16879314097311482 C -0.4917318689875432 0.16879314097311482 -0.45932235723156656 0.20120265272909155 -0.45932235723156656 0.24121702798921174 C -0.45932235723156656 0.2812314032493318 -0.4917318689875432 0.31364091500530844 -0.5317462442476635 0.31364091500530844 C -0.5717606195077836 0.31364091500530844 -0.6041701312637604 0.2811958665039854 -0.6041701312637604 0.24121702798921174 C -0.6041701312637604 0.20123818947443795 -0.5717606195077836 0.16879314097311482 -0.5317462442476635 0.16879314097311482 Z M -0.6539215747488121 -0.08589871292500384 C -0.6214054527567963 -0.08589871292500384 -0.5950371877097187 -0.05953044787792633 -0.5950371877097187 -0.027014325885910406 C -0.5950371877097187 0.005501796106105572 -0.6214054527567963 0.03187006115318303 -0.6539215747488121 0.03187006115318303 C -0.6864376967408279 0.03187006115318303 -0.7128059617879055 0.005501796106105572 -0.7128059617879055 -0.027014325885910406 C -0.7128059617879055 -0.05953044787792633 -0.6864376967408279 -0.08589871292500384 -0.6539215747488121 -0.08589871292500384 Z M -0.6935095090647747 0.08247438652654998 C -0.6603892624018686 0.08247438652654998 -0.6335234829199408 0.10934016600847807 -0.6335234829199408 0.14246041267138387 C -0.6335234829199408 0.1755806593342898 -0.6603892624018686 0.2024464388162177 -0.6935095090647747 0.2024464388162177 C -0.7266297557276806 0.2024464388162177 -0.7534955352096084 0.1755806593342898 -0.7534955352096084 0.14246041267138387 C -0.7534955352096084 0.10934016600847807 -0.7266297557276806 0.08247438652654998 -0.6935095090647747 0.08247438652654998 Z M -1.1335254899447116 -0.3275485812809697 C -1.0672849966188998 -0.3275485812809697 -1.013553437655044 -0.2738525590624602 -1.013553437655044 -0.20757652899130194 C -1.013553437655044 -0.14130049892014362 -1.0672494598735534 -0.08760447670163418 -1.1335254899447116 -0.08760447670163418 C -1.1998015200158696 -0.08760447670163418 -1.2534975422343793 -0.14130049892014362 -1.2534975422343793 -0.20757652899130194 C -1.2534975422343793 -0.2738525590624602 -1.1998015200158696 -0.3275485812809697 -1.1335254899447116 -0.3275485812809697 Z M -1.0783369244216503 0.2886585830267433 C -1.1590764098488202 0.2886585830267433 -1.2245350947770097 0.22319989809855367 -1.2245350947770097 0.14246041267138387 C -1.2245350947770097 0.06172092724421402 -1.15907640984882 -0.0037377576839754956 -1.0783369244216503 -0.0037377576839754956 C -0.9975974389944808 -0.0037377576839754956 -0.9321387540662911 0.061720927244214074 -0.9321387540662911 0.14246041267138387 C -0.9321387540662911 0.22319989809855367 -0.9975974389944808 0.2886585830267432 -1.0783369244216503 0.2886585830267432 Z M -0.9572987697715887 -0.07687237960700155 C -0.9572987697715887 -0.12303461181206032 -0.9198785769217606 -0.16045480466188852 -0.8737163447167016 -0.16045480466188852 C -0.8275541125116428 -0.16045480466188852 -0.7901339196618147 -0.12303461181206032 -0.7901339196618147 -0.07687237960700155 C -0.7901339196618147 -0.030710147401942833 -0.8275541125116428 0.006710045447885393 -0.8737163447167016 0.006710045447885393 C -0.9198785769217606 0.006710045447885393 -0.9572987697715887 -0.030710147401942833 -0.9572987697715887 -0.07687237960700155 Z M -0.8966020087198254 0.4348922901274491 C -0.8966020087198254 0.35415280470027954 -0.8311433237916357 0.2886941197720898 -0.7504038383644662 0.2886941197720898 C -0.6696643529372968 0.2886941197720898 -0.604205668009107 0.35415280470027954 -0.604205668009107 0.4348922901274491 C -0.604205668009107 0.5156317755546188 -0.6696643529372968 0.5810904604828084 -0.7504038383644662 0.5810904604828084 C -0.8311433237916357 0.5810904604828084 -0.8966020087198254 0.5156317755546188 -0.8966020087198254 0.4348922901274491 Z M -0.8672486570636448 0.8058603747992031 C -0.8672486570636448 0.7413256452500218 -0.8149385679136476 0.6890155561000245 -0.7503683016191196 0.6890155561000245 C -0.6857980353245918 0.6890155561000245 -0.633523482919941 0.7413256452500218 -0.633523482919941 0.8058603747992031 C -0.633523482919941 0.8703951043483845 -0.6858335720699382 0.9227407302437284 -0.7503683016191196 0.9227407302437284 C -0.814903031168301 0.9227407302437284 -0.8672486570636448 0.8704306410937311 -0.8672486570636448 0.8058603747992031 Z" fill="#574848" transform="matrix(1,0,0,1,0,0)" fill-rule="nonzero"></path></g></g><g><path d=" M 0.1965 0.9180000000000001 C 0.1965 0.9120000000000001 0.189 0.8880000000000002 0.195 0.8820000000000002 C 0.198 0.8700000000000002 0.192 0.8550000000000002 0.195 0.8415000000000001 C 0.20400000000000001 0.6840000000000002 0.28650000000000003 0.42300000000000015 0.339 0.27000000000000024 C 0.3525 0.22950000000000015 0.363 0.18450000000000022 0.378 0.14400000000000024 L 0.3765 0.13500000000000023 C 0.36 0.11400000000000021 0.36 0.12000000000000022 0.339 0.10800000000000021 C 0.3225 0.10650000000000015 0.291 0.12000000000000022 0.2805 0.12300000000000022 L 0.2775 0.13050000000000017 L 0.279 0.14100000000000024 C 0.20400000000000001 0.34050000000000014 0.105 0.5745000000000002 0.0915 0.7920000000000003 C 0.0885 0.8685000000000002 0.1005 0.9030000000000002 0.14250000000000002 0.9660000000000002 C 0.156 0.9720000000000002 0.1815 0.9720000000000002 0.1965 0.9720000000000002 C 0.192 0.9675000000000002 0.1875 0.9630000000000002 0.1875 0.9585000000000002 C 0.1875 0.9570000000000002 0.189 0.9540000000000002 0.1905 0.9510000000000002 C 0.192 0.9570000000000002 0.1965 0.9570000000000002 0.201 0.9570000000000002 C 0.201 0.9420000000000002 0.192 0.9300000000000002 0.192 0.9225000000000002 L 0.192 0.9165000000000002 M 0.8445 0.13200000000000023 L 0.849 0.13050000000000017 C 0.852 0.12900000000000023 0.852 0.12900000000000023 0.852 0.12600000000000022 C 0.849 0.12000000000000022 0.8475 0.11400000000000021 0.846 0.10800000000000021 C 0.8055 0.013500000000000179 0.648 2.220446049250313e-16 0.5565 2.220446049250313e-16 C 0.41550000000000004 2.220446049250313e-16 0.2925 0.03300000000000014 0.1545 0.07800000000000018 C 0.07200000000000001 0.10800000000000021 -0.066 0.16500000000000015 -0.156 0.16500000000000015 C -0.165 0.16500000000000015 -0.1665 0.16500000000000015 -0.17400000000000002 0.1605000000000002 C -0.17250000000000001 0.17100000000000015 -0.165 0.1755000000000002 -0.159 0.18000000000000016 C -0.1545 0.18900000000000017 -0.14400000000000002 0.20100000000000018 -0.138 0.20700000000000018 C -0.138 0.21150000000000013 -0.1335 0.2130000000000002 -0.1335 0.2190000000000002 C -0.1275 0.2220000000000002 -0.114 0.2250000000000002 -0.108 0.2280000000000002 C -0.105 0.2280000000000002 -0.10200000000000001 0.2280000000000002 -0.099 0.2280000000000002 C -0.0135 0.2280000000000002 0.0645 0.18450000000000022 0.14400000000000002 0.1605000000000002 C 0.27 0.12000000000000022 0.4305 0.07350000000000023 0.579 0.07350000000000023 C 0.6435 0.07350000000000023 0.762 0.08400000000000019 0.807 0.13800000000000023 L 0.8115 0.13200000000000023 L 0.8085 0.14400000000000024 C 0.8085 0.1485000000000002 0.8130000000000001 0.15300000000000014 0.8130000000000001 0.15900000000000014 C 0.8160000000000001 0.1605000000000002 0.8190000000000001 0.16500000000000015 0.8205 0.16500000000000015 L 0.8250000000000001 0.16200000000000014 L 0.8280000000000001 0.15600000000000014 L 0.837 0.14700000000000013 L 0.8445 0.14700000000000013 C 0.8445 0.14100000000000024 0.846 0.13950000000000018 0.8445 0.13200000000000023 M 0.7350358886718751 0.5280000000000002 C 0.747035888671875 0.5280000000000002 0.759035888671875 0.5280000000000002 0.771035888671875 0.5295000000000002 L 0.774035888671875 0.5280000000000002 C 0.772535888671875 0.5280000000000002 0.7695358886718751 0.5220000000000002 0.7695358886718751 0.5220000000000002 C 0.7695358886718751 0.5205000000000002 0.7695358886718751 0.5190000000000001 0.771035888671875 0.5190000000000001 L 0.7695358886718751 0.5130000000000001 L 0.774035888671875 0.5115000000000002 L 0.772535888671875 0.5100000000000002 L 0.7875358886718751 0.4980000000000002 C 0.7815358886718751 0.4845000000000002 0.756035888671875 0.4815000000000002 0.730535888671875 0.4815000000000002 C 0.712535888671875 0.4815000000000002 0.693035888671875 0.4830000000000002 0.6840358886718749 0.4830000000000002 C 0.651035888671875 0.4860000000000002 0.607535888671875 0.4950000000000002 0.571535888671875 0.5070000000000001 C 0.580535888671875 0.4920000000000002 0.5820358886718751 0.5085000000000002 0.5880358886718751 0.4860000000000002 C 0.576035888671875 0.46650000000000014 0.549035888671875 0.44850000000000023 0.525035888671875 0.44850000000000023 C 0.517535888671875 0.44850000000000023 0.510035888671875 0.4500000000000002 0.504035888671875 0.4530000000000002 C 0.48603588867187497 0.4590000000000002 0.340535888671875 0.6930000000000002 0.349535888671875 0.8310000000000002 C 0.351035888671875 0.8880000000000002 0.400535888671875 0.9240000000000002 0.454535888671875 0.9240000000000002 C 0.507035888671875 0.9225000000000002 0.561035888671875 0.8445000000000003 0.5790358886718749 0.8010000000000002 C 0.597035888671875 0.7545000000000002 0.624035888671875 0.6600000000000001 0.621035888671875 0.6090000000000002 C 0.619535888671875 0.5895000000000001 0.616535888671875 0.5670000000000002 0.609035888671875 0.5490000000000002 C 0.648035888671875 0.5400000000000003 0.688535888671875 0.5310000000000001 0.7350358886718751 0.5280000000000002 M 0.438035888671875 0.8625000000000002 C 0.436535888671875 0.8340000000000002 0.456035888671875 0.7530000000000002 0.477035888671875 0.6930000000000002 C 0.48303588867187497 0.6840000000000002 0.508535888671875 0.6150000000000002 0.540035888671875 0.5640000000000002 C 0.543035888671875 0.5715000000000001 0.546035888671875 0.5760000000000002 0.546035888671875 0.5835000000000001 C 0.552035888671875 0.6555000000000002 0.502535888671875 0.8130000000000002 0.450035888671875 0.8685000000000002 C 0.448535888671875 0.8730000000000002 0.447035888671875 0.8775000000000002 0.441035888671875 0.8775000000000002 C 0.439535888671875 0.8715000000000002 0.439535888671875 0.8670000000000002 0.438035888671875 0.8625000000000002 M 0.7770263671875 0.8775000000000002 L 0.7770263671875 0.8670000000000002 C 0.7770263671875 0.8100000000000002 0.7935263671875 0.7170000000000002 0.8160263671875 0.6525000000000002 C 0.8280263671875 0.6240000000000002 0.8295263671875 0.6090000000000002 0.8370263671875 0.5910000000000002 C 0.8520263671875 0.5535000000000002 0.8910263671875001 0.4125000000000002 0.8130263671875 0.4125000000000002 C 0.8025263671875 0.4125000000000002 0.7740263671875001 0.40800000000000014 0.7650263671875 0.40800000000000014 C 0.7635263671875 0.40800000000000014 0.7620263671875 0.4095000000000002 0.7590263671875 0.41400000000000015 C 0.7665263671875 0.42600000000000016 0.7575263671875 0.43500000000000016 0.7575263671875 0.4470000000000002 C 0.7575263671875 0.4800000000000002 0.7320263671875 0.5670000000000002 0.7260263671875 0.5910000000000002 C 0.7020263671875 0.6705000000000002 0.6750263671875 0.7530000000000002 0.6750263671875 0.8370000000000002 C 0.6750263671875 0.8790000000000002 0.6810263671875 0.8880000000000002 0.7110263671875 0.9180000000000001 C 0.7200263671875 0.9270000000000002 0.7845263671875 0.9375000000000002 0.7980263671875 0.9375000000000002 C 0.8025263671875 0.9375000000000002 0.8055263671875 0.9360000000000002 0.8070263671875 0.9345000000000002 C 0.8115263671875 0.9315000000000002 0.8190263671875 0.9315000000000002 0.8220263671875 0.9240000000000002 C 0.8715263671875 0.8880000000000002 0.9510263671875 0.6795000000000002 0.9630263671875 0.6420000000000001 C 0.9840263671875 0.6450000000000002 1.0095263671875 0.6480000000000001 1.0290263671875 0.6480000000000001 C 1.0380263671875 0.6480000000000001 1.0470263671875 0.6480000000000001 1.0515263671875 0.6450000000000002 C 1.0635263671875 0.6375000000000002 1.0620263671874999 0.6360000000000001 1.0680263671875 0.6330000000000002 C 1.0650263671875 0.6330000000000002 1.0635263671875 0.6330000000000002 1.0590263671875 0.6300000000000001 C 1.0650263671875 0.6255000000000002 1.0695263671875 0.6285000000000002 1.0725263671875 0.6255000000000002 C 1.0785263671875 0.6210000000000002 1.0875263671875 0.6105000000000003 1.0890263671875 0.6075000000000002 L 1.0920263671875001 0.6060000000000002 L 0.9750263671875 0.5880000000000002 C 0.9840263671875 0.5580000000000003 0.9960263671875 0.4980000000000002 0.9660263671875 0.4935000000000002 C 0.9645263671875 0.4935000000000002 0.9480263671875 0.4905000000000002 0.9480263671875 0.4905000000000002 C 0.9390263671875 0.4905000000000002 0.9405263671875 0.4920000000000002 0.9360263671875 0.4920000000000002 C 0.9345263671875 0.4920000000000002 0.9330263671875 0.4920000000000002 0.9300263671875 0.4920000000000002 C 0.9300263671875 0.4935000000000002 0.9270263671875 0.4935000000000002 0.9270263671875 0.4980000000000002 C 0.9120263671875 0.5175000000000002 0.8985263671875 0.5760000000000002 0.8985263671875 0.6090000000000002 C 0.8910263671875001 0.6420000000000001 0.8115263671875 0.8445000000000003 0.7770263671875 0.8775000000000002" fill="#574848" fill-rule="nonzero"></path></g><g><path d=" M 0.0365 1.580175 C 0.0365 1.4971750000000001 0.0445 1.4066750000000001 0.0525 1.3331750000000002 C 0.053 1.3266750000000003 0.0475 1.3191750000000002 0.0405 1.3191750000000002 C 0.0305 1.3191750000000002 0.0245 1.3191750000000002 0.0245 1.3311750000000002 C 0.0245 1.344675 0.024 1.3576750000000002 0.023 1.3701750000000001 C 0.019 1.4356750000000003 0.013000000000000001 1.5021750000000003 0.013000000000000001 1.5671750000000002 C 0.013000000000000001 1.576175 0.0075 1.5906750000000003 0.0085 1.5956750000000002 C 0.013000000000000001 1.6041750000000001 0.019 1.6096750000000002 0.029500000000000002 1.6096750000000002 C 0.031 1.6096750000000002 0.033 1.6096750000000002 0.034 1.6091750000000002 C 0.0475 1.6051750000000002 0.0945 1.5971750000000002 0.0945 1.5791750000000002 C 0.0945 1.5751750000000002 0.0915 1.5706750000000003 0.088 1.5711750000000002 C 0.0765 1.574175 0.054 1.580175 0.0365 1.580175 M 0.14525634765625 1.3311750000000002 C 0.13275634765625 1.3381750000000001 0.13375634765625 1.3381750000000001 0.13225634765625 1.3511750000000002 C 0.12775634765625 1.3996750000000002 0.12225634765625 1.449175 0.11875634765625 1.497675 C 0.11625634765625001 1.5286750000000002 0.11525634765625001 1.5606750000000003 0.11525634765625001 1.5921750000000001 C 0.11525634765625001 1.5991750000000002 0.11725634765625 1.6106750000000003 0.12675634765625 1.6106750000000003 C 0.15225634765625 1.6101750000000001 0.16925634765625 1.5961750000000001 0.19025634765625 1.5931750000000002 C 0.19625634765625 1.5926750000000003 0.20025634765625 1.5906750000000003 0.20025634765625 1.5846750000000003 C 0.20025634765625 1.5746750000000003 0.18875634765625 1.5716750000000002 0.18025634765624998 1.5716750000000002 C 0.16875634765625 1.5716750000000002 0.15525634765625002 1.5791750000000002 0.14325634765625 1.5826750000000003 C 0.14275634765625 1.5476750000000001 0.14375634765625 1.5166750000000002 0.14825634765625 1.4826750000000002 C 0.14925634765625 1.4756750000000003 0.14775634765625 1.4686750000000002 0.15375634765625001 1.4671750000000001 C 0.16325634765625 1.4646750000000002 0.17825634765625 1.4641750000000002 0.18775634765625 1.4631750000000001 C 0.19075634765625 1.4626750000000002 0.19475634765625 1.4606750000000002 0.19775634765625 1.4606750000000002 C 0.20175634765625 1.459175 0.20525634765625 1.4536750000000003 0.20525634765625 1.4496750000000003 C 0.20525634765625 1.4441750000000002 0.20125634765625 1.4426750000000002 0.19525634765625 1.4426750000000002 L 0.15275634765625 1.441175 C 0.15525634765625002 1.4201750000000002 0.15625634765625002 1.3831750000000003 0.16075634765625 1.3596750000000002 C 0.16175634765625 1.3551750000000002 0.16375634765625 1.3516750000000002 0.16375634765625 1.3476750000000002 C 0.16375634765625 1.3441750000000001 0.15975634765625 1.340675 0.15775634765625002 1.3386750000000003 L 0.20075634765625 1.3361750000000001 C 0.20625634765625 1.3361750000000001 0.21025634765625 1.3336750000000002 0.20975634765625 1.3276750000000002 C 0.20875634765625 1.3131750000000002 0.19275634765625 1.310175 0.17775634765625 1.310175 C 0.16875634765625 1.310175 0.16025634765625 1.3111750000000002 0.15475634765625002 1.3116750000000001 C 0.14875634765625 1.3121750000000003 0.14625634765625 1.3151750000000002 0.14425634765625 1.3201750000000003 M 0.290017333984375 1.3456750000000002 C 0.292517333984375 1.3456750000000002 0.295517333984375 1.3456750000000002 0.298517333984375 1.3456750000000002 C 0.30451733398437497 1.3456750000000002 0.310517333984375 1.3456750000000002 0.31301733398437503 1.3456750000000002 C 0.317517333984375 1.3461750000000001 0.321017333984375 1.3421750000000001 0.321017333984375 1.3376750000000002 C 0.320517333984375 1.3316750000000002 0.317517333984375 1.3266750000000003 0.31201733398437503 1.3236750000000002 C 0.306517333984375 1.3211750000000002 0.284017333984375 1.3196750000000002 0.262517333984375 1.3196750000000002 C 0.255517333984375 1.3196750000000002 0.249017333984375 1.3196750000000002 0.243017333984375 1.3201750000000003 C 0.242517333984375 1.3201750000000003 0.242017333984375 1.3201750000000003 0.242017333984375 1.3201750000000003 C 0.237517333984375 1.3201750000000003 0.233517333984375 1.318175 0.22901733398437502 1.318175 C 0.22901733398437502 1.318175 0.22851733398437502 1.318175 0.22801733398437501 1.318175 C 0.224517333984375 1.318175 0.221017333984375 1.3216750000000002 0.221517333984375 1.3256750000000002 C 0.221517333984375 1.328175 0.221017333984375 1.3316750000000002 0.223517333984375 1.3336750000000002 C 0.224517333984375 1.3411750000000002 0.22751733398437501 1.3476750000000002 0.236517333984375 1.3471750000000002 C 0.245517333984375 1.3466750000000003 0.240017333984375 1.3461750000000001 0.249517333984375 1.3456750000000002 C 0.255517333984375 1.3456750000000002 0.258517333984375 1.3456750000000002 0.258517333984375 1.3516750000000002 C 0.258017333984375 1.376675 0.253517333984375 1.427175 0.251517333984375 1.4601750000000002 C 0.248517333984375 1.5021750000000003 0.244017333984375 1.5496750000000001 0.245017333984375 1.5926750000000003 C 0.245517333984375 1.6041750000000001 0.250517333984375 1.6136750000000002 0.263517333984375 1.6131750000000002 C 0.269517333984375 1.6131750000000002 0.275017333984375 1.6096750000000002 0.275017333984375 1.6031750000000002 C 0.275017333984375 1.5971750000000002 0.272017333984375 1.5921750000000001 0.271517333984375 1.5861750000000001 C 0.270517333984375 1.5461750000000003 0.280017333984375 1.4101750000000002 0.283517333984375 1.3756750000000002 C 0.284517333984375 1.3656750000000002 0.284517333984375 1.3551750000000002 0.290017333984375 1.3456750000000002 M 0.3482763671875 1.578175 C 0.3457763671875 1.5776750000000002 0.3392763671875 1.5856750000000002 0.3392763671875 1.5881750000000001 C 0.3402763671875 1.6016750000000002 0.3522763671875 1.6116750000000002 0.36577636718749995 1.6116750000000002 C 0.4007763671875 1.6076750000000002 0.4122763671875 1.5491750000000002 0.4097763671875 1.5201750000000003 C 0.4052763671875 1.4721750000000002 0.36877636718749995 1.4426750000000002 0.36577636718749995 1.4146750000000001 C 0.3632763671875 1.3881750000000002 0.38727636718749997 1.3476750000000002 0.4157763671875 1.3471750000000002 C 0.4167763671875 1.3476750000000002 0.4177763671875 1.3481750000000001 0.4187763671875 1.3481750000000001 C 0.4257763671875 1.3481750000000001 0.42627636718749995 1.3346750000000003 0.42527636718749995 1.3311750000000002 C 0.4227763671875 1.3226750000000003 0.4142763671875 1.3216750000000002 0.4067763671875 1.3216750000000002 C 0.3632763671875 1.3251750000000002 0.3387763671875 1.3861750000000002 0.3417763671875 1.4176750000000002 C 0.3447763671875 1.4556750000000003 0.38127636718749996 1.4826750000000002 0.38477636718749997 1.5231750000000002 C 0.38777636718749997 1.5531750000000002 0.37677636718749996 1.584175 0.36077636718749995 1.5856750000000002 C 0.3557763671875 1.5861750000000001 0.3532763671875 1.5826750000000003 0.3482763671875 1.578175 M 0.47001611328125 1.3311750000000002 C 0.45751611328125 1.3381750000000001 0.45851611328125 1.3381750000000001 0.45701611328125 1.3511750000000002 C 0.45251611328125 1.3996750000000002 0.44701611328125 1.449175 0.44351611328125 1.497675 C 0.44101611328125 1.5286750000000002 0.44001611328125 1.5606750000000003 0.44001611328125 1.5921750000000001 C 0.44001611328125 1.5991750000000002 0.44201611328125 1.6106750000000003 0.45151611328125 1.6106750000000003 C 0.47701611328125 1.6101750000000001 0.49401611328125 1.5961750000000001 0.51501611328125 1.5931750000000002 C 0.52101611328125 1.5926750000000003 0.52501611328125 1.5906750000000003 0.52501611328125 1.5846750000000003 C 0.52501611328125 1.5746750000000003 0.51351611328125 1.5716750000000002 0.50501611328125 1.5716750000000002 C 0.49351611328125 1.5716750000000002 0.48001611328125 1.5791750000000002 0.46801611328125003 1.5826750000000003 C 0.46751611328125 1.5476750000000001 0.46851611328125 1.5166750000000002 0.47301611328125 1.4826750000000002 C 0.47401611328125 1.4756750000000003 0.47251611328125 1.4686750000000002 0.47851611328125 1.4671750000000001 C 0.48801611328125 1.4646750000000002 0.5030161132812501 1.4641750000000002 0.51251611328125 1.4631750000000001 C 0.51551611328125 1.4626750000000002 0.51951611328125 1.4606750000000002 0.52251611328125 1.4606750000000002 C 0.52651611328125 1.459175 0.53001611328125 1.4536750000000003 0.53001611328125 1.4496750000000003 C 0.53001611328125 1.4441750000000002 0.52601611328125 1.4426750000000002 0.52001611328125 1.4426750000000002 L 0.47751611328125 1.441175 C 0.48001611328125 1.4201750000000002 0.48101611328125 1.3831750000000003 0.48551611328125 1.3596750000000002 C 0.48651611328125 1.3551750000000002 0.48851611328125 1.3516750000000002 0.48851611328125 1.3476750000000002 C 0.48851611328125 1.3441750000000001 0.48451611328125 1.340675 0.48251611328125 1.3386750000000003 L 0.52551611328125 1.3361750000000001 C 0.53101611328125 1.3361750000000001 0.53501611328125 1.3336750000000002 0.53451611328125 1.3276750000000002 C 0.53351611328125 1.3131750000000002 0.51751611328125 1.310175 0.50251611328125 1.310175 C 0.49351611328125 1.310175 0.48501611328125 1.3111750000000002 0.47951611328125 1.3116750000000001 C 0.47351611328125 1.3121750000000003 0.47101611328125 1.3151750000000002 0.46901611328125 1.3201750000000003 M 0.574277099609375 1.580175 C 0.574277099609375 1.4971750000000001 0.582277099609375 1.4066750000000001 0.590277099609375 1.3331750000000002 C 0.5907770996093751 1.3266750000000003 0.585277099609375 1.3191750000000002 0.578277099609375 1.3191750000000002 C 0.568277099609375 1.3191750000000002 0.562277099609375 1.3191750000000002 0.562277099609375 1.3311750000000002 C 0.562277099609375 1.344675 0.561777099609375 1.3576750000000002 0.560777099609375 1.3701750000000001 C 0.556777099609375 1.4356750000000003 0.550777099609375 1.5021750000000003 0.550777099609375 1.5671750000000002 C 0.550777099609375 1.576175 0.545277099609375 1.5906750000000003 0.546277099609375 1.5956750000000002 C 0.550777099609375 1.6041750000000001 0.556777099609375 1.6096750000000002 0.567277099609375 1.6096750000000002 C 0.5687770996093751 1.6096750000000002 0.5707770996093751 1.6096750000000002 0.5717770996093751 1.6091750000000002 C 0.585277099609375 1.6051750000000002 0.6322770996093751 1.5971750000000002 0.6322770996093751 1.5791750000000002 C 0.6322770996093751 1.5751750000000002 0.6292770996093751 1.5706750000000003 0.625777099609375 1.5711750000000002 C 0.614277099609375 1.574175 0.5917770996093751 1.580175 0.574277099609375 1.580175 M 0.6640334472656251 1.578175 C 0.661533447265625 1.5776750000000002 0.6550334472656251 1.5856750000000002 0.6550334472656251 1.5881750000000001 C 0.6560334472656251 1.6016750000000002 0.6680334472656251 1.6116750000000002 0.681533447265625 1.6116750000000002 C 0.7165334472656251 1.6076750000000002 0.728033447265625 1.5491750000000002 0.7255334472656251 1.5201750000000003 C 0.721033447265625 1.4721750000000002 0.684533447265625 1.4426750000000002 0.681533447265625 1.4146750000000001 C 0.6790334472656251 1.3881750000000002 0.7030334472656251 1.3476750000000002 0.7315334472656251 1.3471750000000002 C 0.7325334472656251 1.3476750000000002 0.7335334472656251 1.3481750000000001 0.7345334472656251 1.3481750000000001 C 0.7415334472656251 1.3481750000000001 0.742033447265625 1.3346750000000003 0.741033447265625 1.3311750000000002 C 0.7385334472656251 1.3226750000000003 0.730033447265625 1.3216750000000002 0.7225334472656251 1.3216750000000002 C 0.6790334472656251 1.3251750000000002 0.654533447265625 1.3861750000000002 0.657533447265625 1.4176750000000002 C 0.660533447265625 1.4556750000000003 0.6970334472656251 1.4826750000000002 0.700533447265625 1.5231750000000002 C 0.7035334472656251 1.5531750000000002 0.692533447265625 1.584175 0.676533447265625 1.5856750000000002 C 0.671533447265625 1.5861750000000001 0.6690334472656251 1.5826750000000003 0.6640334472656251 1.578175 M 0.8062731933593751 1.5901750000000001 C 0.7967731933593751 1.578175 0.7902731933593751 1.5566750000000003 0.7872731933593751 1.5346750000000002 C 0.7802731933593751 1.4746750000000002 0.7897731933593751 1.4016750000000002 0.8187731933593752 1.3506750000000003 C 0.8222731933593751 1.3441750000000001 0.825773193359375 1.336675 0.834773193359375 1.3361750000000001 C 0.8402731933593751 1.3361750000000001 0.8452731933593751 1.3431750000000002 0.8497731933593751 1.3431750000000002 C 0.8567731933593751 1.3421750000000001 0.8617731933593751 1.3371750000000002 0.8607731933593751 1.3311750000000002 C 0.8592731933593751 1.3206750000000003 0.8372731933593751 1.3116750000000001 0.828773193359375 1.3121750000000003 C 0.7827731933593751 1.3156750000000001 0.7637731933593751 1.4261750000000002 0.760273193359375 1.4611750000000001 C 0.755273193359375 1.5031750000000001 0.760273193359375 1.540175 0.767273193359375 1.5671750000000002 C 0.7727731933593751 1.5901750000000001 0.7852731933593751 1.614675 0.8122731933593751 1.614675 C 0.8302731933593751 1.6136750000000002 0.8502731933593751 1.5876750000000002 0.8392731933593751 1.5766750000000003 C 0.8382731933593751 1.5756750000000002 0.835773193359375 1.5716750000000002 0.8312731933593751 1.570175 C 0.823773193359375 1.5766750000000003 0.8167731933593751 1.5921750000000001 0.809773193359375 1.5921750000000001 C 0.8087731933593751 1.5921750000000001 0.8072731933593751 1.5916750000000002 0.8062731933593751 1.5901750000000001 M 0.9105087890625001 1.4331750000000003 C 0.9110087890625002 1.4051750000000003 0.9195087890625001 1.356675 0.9195087890625001 1.3236750000000002 C 0.9195087890625001 1.3156750000000001 0.9065087890625001 1.3056750000000001 0.8985087890625001 1.3056750000000001 C 0.8950087890625001 1.3056750000000001 0.8915087890625001 1.3091750000000002 0.8915087890625001 1.3126750000000003 C 0.8915087890625001 1.3166750000000003 0.8925087890625001 1.3206750000000003 0.8925087890625001 1.324175 C 0.8925087890625001 1.3511750000000002 0.8850087890625001 1.4216750000000002 0.8840087890625001 1.4381750000000002 C 0.8815087890625001 1.4386750000000001 0.8730087890625001 1.4401750000000002 0.8650087890625001 1.443175 C 0.8630087890625001 1.4441750000000002 0.8620087890625001 1.4461750000000002 0.8620087890625001 1.4486750000000002 C 0.8620087890625001 1.4501750000000002 0.8625087890625002 1.4516750000000003 0.8630087890625001 1.4536750000000003 C 0.8630087890625001 1.4556750000000003 0.8650087890625001 1.4546750000000002 0.8650087890625001 1.4561750000000002 C 0.8710087890625001 1.4626750000000002 0.8740087890625001 1.4626750000000002 0.8815087890625001 1.4626750000000002 C 0.8790087890625001 1.4951750000000001 0.8755087890625001 1.5191750000000002 0.8755087890625001 1.5516750000000001 C 0.8755087890625001 1.5626750000000003 0.8775087890625001 1.5736750000000002 0.8775087890625001 1.5846750000000003 C 0.8775087890625001 1.5961750000000001 0.8820087890625001 1.6081750000000001 0.8955087890625001 1.6081750000000001 C 0.8990087890625001 1.6081750000000001 0.9075087890625001 1.6056750000000002 0.9075087890625001 1.6006750000000003 C 0.9075087890625001 1.5986750000000003 0.9070087890625002 1.5971750000000002 0.9070087890625002 1.5951750000000002 C 0.8970087890625001 1.5746750000000003 0.9055087890625001 1.4881750000000002 0.9085087890625001 1.4611750000000001 C 0.9090087890625002 1.4561750000000002 0.9100087890625002 1.457175 0.9150087890625002 1.4556750000000003 C 0.9340087890625002 1.4516750000000003 0.9410087890625001 1.4506750000000002 0.9605087890625001 1.4486750000000002 C 0.9565087890625001 1.481675 0.9565087890625001 1.5086750000000002 0.9540087890625001 1.5411750000000002 C 0.9525087890625001 1.5626750000000003 0.9520087890625001 1.5816750000000002 0.9520087890625001 1.6031750000000002 C 0.9520087890625001 1.6156750000000002 0.9565087890625001 1.6261750000000001 0.9705087890625002 1.6261750000000001 C 0.9745087890625002 1.6261750000000001 0.9825087890625002 1.6221750000000001 0.9825087890625002 1.6176750000000002 C 0.9825087890625002 1.6161750000000001 0.9810087890625001 1.6136750000000002 0.9810087890625001 1.6111750000000002 C 0.9785087890625002 1.6076750000000002 0.9770087890625001 1.6036750000000002 0.9770087890625001 1.5986750000000003 C 0.9770087890625001 1.5461750000000003 0.9800087890625001 1.4986750000000002 0.9850087890625001 1.4456750000000003 C 0.9915087890625001 1.4446750000000002 1.0100087890625 1.4396750000000003 1.0100087890625 1.431175 C 1.0100087890625 1.4281750000000002 1.0080087890625 1.4216750000000002 1.0040087890625 1.4216750000000002 C 1.0030087890625001 1.4216750000000002 1.0015087890625 1.4216750000000002 1.0005087890625002 1.4226750000000001 L 0.9865087890625002 1.4241750000000002 C 0.9885087890625002 1.4011750000000003 0.9885087890625002 1.3961750000000002 0.9905087890625002 1.3736750000000002 C 0.9915087890625001 1.3596750000000002 0.9950087890625001 1.344675 0.9950087890625001 1.3306750000000003 C 0.9950087890625001 1.3191750000000002 0.9845087890625002 1.3111750000000002 0.9755087890625002 1.3111750000000002 C 0.9700087890625001 1.3111750000000002 0.9685087890625002 1.3151750000000002 0.9685087890625002 1.3206750000000003 C 0.9685087890625002 1.3556750000000002 0.9635087890625001 1.4031750000000003 0.9610087890625001 1.4266750000000001 C 0.9435087890625001 1.4281750000000002 0.9280087890625002 1.4301750000000002 0.9105087890625001 1.4331750000000003 M 1.0797453613281252 1.4606750000000002 C 1.083245361328125 1.4951750000000001 1.082745361328125 1.5411750000000002 1.088745361328125 1.6056750000000002 C 1.089245361328125 1.6141750000000001 1.092245361328125 1.6171750000000003 1.100745361328125 1.6176750000000002 C 1.105745361328125 1.6176750000000002 1.117745361328125 1.616675 1.1182453613281251 1.6131750000000002 C 1.1182453613281251 1.6101750000000001 1.1162453613281251 1.6101750000000001 1.115745361328125 1.6066750000000003 C 1.109245361328125 1.5691750000000002 1.107245361328125 1.4911750000000001 1.1062453613281251 1.4596750000000003 C 1.105745361328125 1.4546750000000002 1.109745361328125 1.453175 1.1102453613281251 1.4476750000000003 C 1.111245361328125 1.4421750000000002 1.109245361328125 1.4361750000000002 1.105245361328125 1.4346750000000001 C 1.103745361328125 1.4026750000000001 1.101245361328125 1.3531750000000002 1.098745361328125 1.3211750000000002 C 1.097745361328125 1.3146750000000003 1.081745361328125 1.3106750000000003 1.076245361328125 1.3106750000000003 C 1.0657453613281251 1.3111750000000002 1.060745361328125 1.3216750000000002 1.058745361328125 1.3296750000000002 C 1.0417453613281251 1.4001750000000002 1.029245361328125 1.4746750000000002 1.014745361328125 1.5476750000000001 C 1.011745361328125 1.5651750000000002 1.0072453613281251 1.5916750000000002 1.008245361328125 1.6086750000000003 C 1.008245361328125 1.6136750000000002 1.019745361328125 1.6196750000000002 1.024245361328125 1.6196750000000002 C 1.030245361328125 1.6191750000000003 1.033245361328125 1.6151750000000002 1.0337453613281251 1.6096750000000002 C 1.039245361328125 1.562175 1.050745361328125 1.4941750000000003 1.056745361328125 1.4616750000000003 C 1.067245361328125 1.4611750000000001 1.070245361328125 1.4616750000000003 1.0797453613281252 1.4606750000000002 M 1.078745361328125 1.3731750000000003 C 1.0797453613281252 1.3916750000000002 1.079245361328125 1.4166750000000001 1.0797453613281252 1.435175 C 1.078245361328125 1.4356750000000003 1.073245361328125 1.4361750000000002 1.068745361328125 1.4361750000000002 C 1.0657453613281251 1.4361750000000002 1.062745361328125 1.4356750000000003 1.0617453613281251 1.4356750000000003 C 1.064245361328125 1.4136750000000002 1.074745361328125 1.368675 1.078245361328125 1.3516750000000002 M 1.1800068359375 1.318175 C 1.1800068359375 1.314175 1.1795068359375 1.3086750000000003 1.1770068359375 1.3071750000000002 C 1.1705068359375002 1.3036750000000001 1.1695068359375 1.302175 1.1645068359375002 1.302175 C 1.1565068359375001 1.3026750000000002 1.1540068359375 1.310175 1.1535068359375 1.3176750000000002 C 1.1510068359375 1.3731750000000003 1.1460068359375 1.4206750000000001 1.1425068359375001 1.4766750000000002 C 1.1400068359375 1.5231750000000002 1.1350068359375 1.5616750000000001 1.1370068359375 1.6086750000000003 C 1.1370068359375 1.6191750000000003 1.1475068359375 1.6221750000000001 1.1560068359375 1.6221750000000001 C 1.1625068359375001 1.6221750000000001 1.1625068359375001 1.6196750000000002 1.1625068359375001 1.6111750000000002 C 1.1625068359375001 1.6086750000000003 1.1625068359375001 1.6066750000000003 1.1625068359375001 1.6036750000000002 C 1.1685068359375002 1.5996750000000002 1.1780068359375 1.5981750000000001 1.1920068359375 1.5851750000000002 C 1.2340068359375 1.5451750000000002 1.2495068359375001 1.4651750000000001 1.2470068359375 1.4091750000000003 C 1.2470068359375 1.4031750000000003 1.2460068359375 1.3956750000000002 1.2460068359375 1.3896750000000002 C 1.2425068359375 1.3651750000000002 1.2285068359375 1.334175 1.2050068359375001 1.3231750000000002 C 1.1990068359375001 1.3211750000000002 1.1860068359375 1.318175 1.1800068359375 1.318175 M 1.1635068359375 1.5736750000000002 C 1.1655068359375 1.5351750000000002 1.1685068359375002 1.4846750000000002 1.1710068359375 1.4461750000000002 C 1.1735068359375 1.4146750000000001 1.1760068359375 1.3761750000000001 1.1795068359375 1.3451750000000002 C 1.1810068359375 1.344675 1.1835068359375 1.3441750000000001 1.1855068359375 1.3441750000000001 C 1.1870068359375001 1.3441750000000001 1.1885068359375 1.3441750000000001 1.1895068359375 1.344675 C 1.2120068359375 1.3491750000000002 1.2190068359375001 1.3821750000000002 1.2200068359375 1.3976750000000002 C 1.2225068359375 1.4496750000000003 1.2100068359375 1.5191750000000002 1.1790068359375 1.5611750000000002 C 1.1750068359375 1.5671750000000002 1.1690068359375 1.5691750000000002 1.1635068359375 1.5736750000000002 M 1.2947546386718751 1.3311750000000002 C 1.2822546386718752 1.3381750000000001 1.283254638671875 1.3381750000000001 1.281754638671875 1.3511750000000002 C 1.277254638671875 1.3996750000000002 1.271754638671875 1.449175 1.2682546386718752 1.497675 C 1.265754638671875 1.5286750000000002 1.264754638671875 1.5606750000000003 1.264754638671875 1.5921750000000001 C 1.264754638671875 1.5991750000000002 1.266754638671875 1.6106750000000003 1.2762546386718752 1.6106750000000003 C 1.301754638671875 1.6101750000000001 1.3187546386718751 1.5961750000000001 1.339754638671875 1.5931750000000002 C 1.345754638671875 1.5926750000000003 1.349754638671875 1.5906750000000003 1.349754638671875 1.5846750000000003 C 1.349754638671875 1.5746750000000003 1.338254638671875 1.5716750000000002 1.329754638671875 1.5716750000000002 C 1.318254638671875 1.5716750000000002 1.3047546386718751 1.5791750000000002 1.2927546386718751 1.5826750000000003 C 1.2922546386718752 1.5476750000000001 1.293254638671875 1.5166750000000002 1.297754638671875 1.4826750000000002 C 1.2987546386718751 1.4756750000000003 1.297254638671875 1.4686750000000002 1.303254638671875 1.4671750000000001 C 1.3127546386718751 1.4646750000000002 1.327754638671875 1.4641750000000002 1.337254638671875 1.4631750000000001 C 1.340254638671875 1.4626750000000002 1.344254638671875 1.4606750000000002 1.3472546386718751 1.4606750000000002 C 1.3512546386718751 1.459175 1.3547546386718752 1.4536750000000003 1.3547546386718752 1.4496750000000003 C 1.3547546386718752 1.4441750000000002 1.3507546386718752 1.4426750000000002 1.3447546386718752 1.4426750000000002 L 1.3022546386718752 1.441175 C 1.3047546386718751 1.4201750000000002 1.305754638671875 1.3831750000000003 1.3102546386718752 1.3596750000000002 C 1.311254638671875 1.3551750000000002 1.313254638671875 1.3516750000000002 1.313254638671875 1.3476750000000002 C 1.313254638671875 1.3441750000000001 1.309254638671875 1.340675 1.307254638671875 1.3386750000000003 L 1.350254638671875 1.3361750000000001 C 1.355754638671875 1.3361750000000001 1.359754638671875 1.3336750000000002 1.3592546386718751 1.3276750000000002 C 1.358254638671875 1.3131750000000002 1.342254638671875 1.310175 1.327254638671875 1.310175 C 1.318254638671875 1.310175 1.309754638671875 1.3111750000000002 1.3042546386718752 1.3116750000000001 C 1.2982546386718752 1.3121750000000003 1.295754638671875 1.3151750000000002 1.293754638671875 1.3201750000000003 M 1.5262512207031251 1.4611750000000001 C 1.5232512207031252 1.4536750000000003 1.5162512207031251 1.4446750000000002 1.506751220703125 1.4446750000000002 C 1.5022512207031251 1.4446750000000002 1.498751220703125 1.445175 1.4957512207031252 1.445175 C 1.492251220703125 1.445175 1.4887512207031253 1.4456750000000003 1.4847512207031253 1.4456750000000003 C 1.478751220703125 1.4456750000000003 1.4647512207031252 1.4446750000000002 1.462251220703125 1.4426750000000002 C 1.4687512207031252 1.4246750000000001 1.5112512207031252 1.3776750000000002 1.5302512207031251 1.3776750000000002 C 1.532751220703125 1.3776750000000002 1.5342512207031251 1.378675 1.5357512207031252 1.378675 C 1.537251220703125 1.3791750000000003 1.5392512207031253 1.3801750000000002 1.5432512207031253 1.3801750000000002 C 1.545251220703125 1.3801750000000002 1.5457512207031252 1.3801750000000002 1.549251220703125 1.378675 C 1.549251220703125 1.3771750000000003 1.549251220703125 1.3761750000000001 1.5497512207031252 1.3751750000000003 C 1.5497512207031252 1.3741750000000001 1.5502512207031252 1.372675 1.5502512207031252 1.3716750000000002 C 1.5502512207031252 1.3591750000000002 1.530751220703125 1.356675 1.5217512207031252 1.356675 C 1.5232512207031252 1.3416750000000002 1.524751220703125 1.3336750000000002 1.5317512207031252 1.3211750000000002 C 1.5332512207031253 1.3196750000000002 1.5332512207031253 1.3186750000000003 1.5332512207031253 1.3171750000000002 C 1.5332512207031253 1.3096750000000001 1.5272512207031252 1.302175 1.5192512207031252 1.302175 C 1.5052512207031252 1.302175 1.5017512207031252 1.330175 1.4997512207031252 1.3491750000000002 C 1.498751220703125 1.3556750000000002 1.498751220703125 1.360675 1.498251220703125 1.3636750000000002 C 1.4952512207031252 1.3676750000000002 1.490751220703125 1.3701750000000001 1.4872512207031252 1.3731750000000003 C 1.4737512207031251 1.3811750000000003 1.436251220703125 1.4216750000000002 1.436251220703125 1.4386750000000001 C 1.436251220703125 1.4611750000000001 1.454251220703125 1.4651750000000001 1.4707512207031253 1.4691750000000001 L 1.4712512207031252 1.4691750000000001 C 1.454251220703125 1.481675 1.427751220703125 1.5121750000000003 1.427751220703125 1.5321750000000003 C 1.427751220703125 1.5451750000000002 1.4412512207031252 1.5546750000000003 1.4527512207031252 1.5546750000000003 C 1.4547512207031252 1.5546750000000003 1.4572512207031252 1.5546750000000003 1.460251220703125 1.554175 C 1.4617512207031251 1.554175 1.4637512207031251 1.5536750000000001 1.4657512207031251 1.5536750000000001 C 1.4657512207031251 1.5546750000000003 1.4657512207031251 1.5551750000000002 1.4652512207031252 1.558175 C 1.4647512207031252 1.5636750000000001 1.464251220703125 1.5706750000000003 1.464251220703125 1.578175 C 1.464251220703125 1.5901750000000001 1.466251220703125 1.6016750000000002 1.4732512207031252 1.6016750000000002 C 1.4832512207031252 1.6016750000000002 1.486251220703125 1.5806750000000003 1.4887512207031253 1.564175 C 1.4897512207031252 1.5566750000000003 1.490751220703125 1.5506750000000002 1.492251220703125 1.5471750000000002 C 1.492251220703125 1.540175 1.4892512207031252 1.5341750000000003 1.486751220703125 1.5291750000000002 C 1.486251220703125 1.5276750000000001 1.4852512207031252 1.5251750000000002 1.4847512207031253 1.5236750000000001 C 1.4797512207031251 1.5251750000000002 1.4772512207031252 1.5261750000000003 1.474251220703125 1.5276750000000001 C 1.4692512207031252 1.5296750000000001 1.4637512207031251 1.5316750000000001 1.458251220703125 1.5316750000000001 C 1.4567512207031252 1.5316750000000001 1.4557512207031251 1.5316750000000001 1.454251220703125 1.5311750000000002 C 1.468251220703125 1.5001750000000003 1.4972512207031252 1.4791750000000001 1.5262512207031251 1.4611750000000001 M 1.6847465820312502 1.3456750000000002 C 1.68724658203125 1.3456750000000002 1.6902465820312502 1.3456750000000002 1.6932465820312501 1.3456750000000002 C 1.6992465820312501 1.3456750000000002 1.7052465820312501 1.3456750000000002 1.7077465820312503 1.3456750000000002 C 1.7122465820312502 1.3461750000000001 1.7157465820312503 1.3421750000000001 1.7157465820312503 1.3376750000000002 C 1.7152465820312501 1.3316750000000002 1.7122465820312502 1.3266750000000003 1.7067465820312502 1.3236750000000002 C 1.7012465820312501 1.3211750000000002 1.6787465820312502 1.3196750000000002 1.6572465820312503 1.3196750000000002 C 1.6502465820312502 1.3196750000000002 1.6437465820312502 1.3196750000000002 1.6377465820312502 1.3201750000000003 C 1.6372465820312503 1.3201750000000003 1.6367465820312501 1.3201750000000003 1.6367465820312501 1.3201750000000003 C 1.6322465820312502 1.3201750000000003 1.6282465820312502 1.318175 1.6237465820312502 1.318175 C 1.6237465820312502 1.318175 1.6232465820312503 1.318175 1.62274658203125 1.318175 C 1.6192465820312503 1.318175 1.6157465820312502 1.3216750000000002 1.6162465820312502 1.3256750000000002 C 1.6162465820312502 1.328175 1.6157465820312502 1.3316750000000002 1.6182465820312502 1.3336750000000002 C 1.6192465820312503 1.3411750000000002 1.6222465820312502 1.3476750000000002 1.6312465820312503 1.3471750000000002 C 1.6402465820312502 1.3466750000000003 1.6347465820312501 1.3461750000000001 1.6442465820312502 1.3456750000000002 C 1.6502465820312502 1.3456750000000002 1.6532465820312503 1.3456750000000002 1.6532465820312503 1.3516750000000002 C 1.6527465820312501 1.376675 1.6482465820312502 1.427175 1.6462465820312502 1.4601750000000002 C 1.6432465820312503 1.5021750000000003 1.6387465820312501 1.5496750000000001 1.6397465820312502 1.5926750000000003 C 1.6402465820312502 1.6041750000000001 1.6452465820312503 1.6136750000000002 1.6582465820312502 1.6131750000000002 C 1.6642465820312502 1.6131750000000002 1.6697465820312503 1.6096750000000002 1.6697465820312503 1.6031750000000002 C 1.6697465820312503 1.5971750000000002 1.6667465820312501 1.5921750000000001 1.6662465820312502 1.5861750000000001 C 1.6652465820312503 1.5461750000000003 1.6747465820312502 1.4101750000000002 1.6782465820312502 1.3756750000000002 C 1.6792465820312503 1.3656750000000002 1.6792465820312503 1.3551750000000002 1.6847465820312502 1.3456750000000002 M 1.8295056152343752 1.4811750000000001 C 1.8350056152343752 1.4141750000000002 1.8335056152343752 1.3691750000000003 1.8195056152343752 1.3376750000000002 C 1.8175056152343751 1.332175 1.8145056152343753 1.328175 1.8125056152343753 1.3271750000000002 C 1.8050056152343752 1.322175 1.7990056152343752 1.3211750000000002 1.7920056152343753 1.3196750000000002 C 1.7895056152343751 1.3196750000000002 1.7880056152343753 1.3201750000000003 1.7860056152343753 1.3201750000000003 C 1.7845056152343752 1.3201750000000003 1.7830056152343752 1.3196750000000002 1.7805056152343752 1.318175 C 1.7785056152343752 1.3166750000000003 1.7765056152343752 1.3156750000000001 1.7745056152343752 1.3156750000000001 C 1.7655056152343753 1.3156750000000001 1.7590056152343752 1.332675 1.7570056152343752 1.3411750000000002 C 1.7480056152343753 1.3781750000000001 1.7415056152343753 1.4131750000000003 1.7380056152343752 1.4506750000000002 C 1.7345056152343752 1.4906750000000002 1.7315056152343753 1.5261750000000003 1.7365056152343752 1.568175 C 1.7375056152343753 1.5766750000000003 1.7380056152343752 1.5856750000000002 1.7420056152343752 1.5936750000000002 C 1.7475056152343753 1.6046750000000003 1.7585056152343752 1.614675 1.7715056152343753 1.614675 C 1.8140056152343753 1.614675 1.8265056152343753 1.5106750000000002 1.8295056152343752 1.4811750000000001 M 1.7705056152343752 1.5896750000000002 C 1.7485056152343752 1.5616750000000001 1.7720056152343753 1.3581750000000001 1.7895056152343751 1.3346750000000003 C 1.8110056152343752 1.3541750000000001 1.8070056152343752 1.4501750000000002 1.8040056152343753 1.477675 C 1.7995056152343751 1.511675 1.7905056152343752 1.5566750000000003 1.7745056152343752 1.5876750000000002 C 1.7735056152343753 1.5891750000000002 1.7725056152343752 1.5911750000000002 1.7720056152343753 1.5911750000000002 C 1.7715056152343753 1.5911750000000002 1.7710056152343752 1.5906750000000003 1.7705056152343752 1.5896750000000002 M 1.8812553710937503 1.3311750000000002 C 1.8687553710937503 1.3381750000000001 1.8697553710937502 1.3381750000000001 1.8682553710937502 1.3511750000000002 C 1.8637553710937502 1.3996750000000002 1.8582553710937502 1.449175 1.8547553710937503 1.497675 C 1.8522553710937502 1.5286750000000002 1.8512553710937503 1.5606750000000003 1.8512553710937503 1.5921750000000001 C 1.8512553710937503 1.5991750000000002 1.8532553710937503 1.6106750000000003 1.8627553710937503 1.6106750000000003 C 1.8882553710937502 1.6101750000000001 1.9052553710937503 1.5961750000000001 1.9262553710937502 1.5931750000000002 C 1.9322553710937502 1.5926750000000003 1.9362553710937502 1.5906750000000003 1.9362553710937502 1.5846750000000003 C 1.9362553710937502 1.5746750000000003 1.9247553710937502 1.5716750000000002 1.9162553710937502 1.5716750000000002 C 1.9047553710937501 1.5716750000000002 1.8912553710937503 1.5791750000000002 1.8792553710937503 1.5826750000000003 C 1.8787553710937503 1.5476750000000001 1.8797553710937502 1.5166750000000002 1.8842553710937502 1.4826750000000002 C 1.8852553710937503 1.4756750000000003 1.8837553710937502 1.4686750000000002 1.8897553710937502 1.4671750000000001 C 1.8992553710937503 1.4646750000000002 1.9142553710937502 1.4641750000000002 1.9237553710937503 1.4631750000000001 C 1.9267553710937502 1.4626750000000002 1.9307553710937502 1.4606750000000002 1.9337553710937503 1.4606750000000002 C 1.9377553710937503 1.459175 1.9412553710937503 1.4536750000000003 1.9412553710937503 1.4496750000000003 C 1.9412553710937503 1.4441750000000002 1.9372553710937503 1.4426750000000002 1.9312553710937503 1.4426750000000002 L 1.8887553710937504 1.441175 C 1.8912553710937503 1.4201750000000002 1.8922553710937502 1.3831750000000003 1.8967553710937504 1.3596750000000002 C 1.8977553710937503 1.3551750000000002 1.8997553710937503 1.3516750000000002 1.8997553710937503 1.3476750000000002 C 1.8997553710937503 1.3441750000000001 1.8957553710937503 1.340675 1.8937553710937503 1.3386750000000003 L 1.9367553710937502 1.3361750000000001 C 1.9422553710937502 1.3361750000000001 1.9462553710937502 1.3336750000000002 1.9457553710937503 1.3276750000000002 C 1.9447553710937502 1.3131750000000002 1.9287553710937502 1.310175 1.9137553710937503 1.310175 C 1.9047553710937501 1.310175 1.8962553710937502 1.3111750000000002 1.8907553710937504 1.3116750000000001 C 1.8847553710937504 1.3121750000000003 1.8822553710937502 1.3151750000000002 1.8802553710937502 1.3201750000000003 M 2.0020163574218754 1.318175 C 2.0020163574218754 1.314175 2.0015163574218753 1.3086750000000003 1.9990163574218753 1.3071750000000002 C 1.9925163574218754 1.3036750000000001 1.9915163574218753 1.302175 1.9865163574218754 1.302175 C 1.9785163574218754 1.3026750000000002 1.9760163574218752 1.310175 1.9755163574218753 1.3176750000000002 C 1.9730163574218753 1.3731750000000003 1.9680163574218752 1.4206750000000001 1.9645163574218754 1.4766750000000002 C 1.9620163574218752 1.5231750000000002 1.9570163574218753 1.5616750000000001 1.9590163574218753 1.6086750000000003 C 1.9590163574218753 1.6191750000000003 1.9695163574218753 1.6221750000000001 1.9780163574218752 1.6221750000000001 C 1.9845163574218754 1.6221750000000001 1.9845163574218754 1.6196750000000002 1.9845163574218754 1.6111750000000002 C 1.9845163574218754 1.6086750000000003 1.9845163574218754 1.6066750000000003 1.9845163574218754 1.6036750000000002 C 1.9905163574218754 1.5996750000000002 2.0000163574218752 1.5981750000000001 2.0140163574218755 1.5851750000000002 C 2.0560163574218753 1.5451750000000002 2.071516357421875 1.4651750000000001 2.069016357421875 1.4091750000000003 C 2.069016357421875 1.4031750000000003 2.0680163574218753 1.3956750000000002 2.0680163574218753 1.3896750000000002 C 2.0645163574218754 1.3651750000000002 2.050516357421875 1.334175 2.0270163574218754 1.3231750000000002 C 2.021016357421875 1.3211750000000002 2.0080163574218752 1.318175 2.0020163574218754 1.318175 M 1.9855163574218753 1.5736750000000002 C 1.9875163574218753 1.5351750000000002 1.9905163574218754 1.4846750000000002 1.9930163574218753 1.4461750000000002 C 1.9955163574218753 1.4146750000000001 1.9980163574218752 1.3761750000000001 2.0015163574218753 1.3451750000000002 C 2.0030163574218753 1.344675 2.0055163574218753 1.3441750000000001 2.0075163574218755 1.3441750000000001 C 2.009016357421875 1.3441750000000001 2.010516357421875 1.3441750000000001 2.0115163574218755 1.344675 C 2.0340163574218755 1.3491750000000002 2.041016357421875 1.3821750000000002 2.0420163574218755 1.3976750000000002 C 2.0445163574218754 1.4496750000000003 2.0320163574218753 1.5191750000000002 2.001016357421875 1.5611750000000002 C 1.9970163574218753 1.5671750000000002 1.9910163574218753 1.5691750000000002 1.9855163574218753 1.5736750000000002 M 2.09326416015625 1.3276750000000002 C 2.09326416015625 1.3311750000000002 2.10026416015625 1.332675 2.10076416015625 1.3476750000000002 C 2.1017641601562502 1.3621750000000001 2.09676416015625 1.4076750000000002 2.09576416015625 1.4226750000000001 C 2.09376416015625 1.4631750000000001 2.09226416015625 1.503675 2.09076416015625 1.5446750000000002 C 2.08976416015625 1.564175 2.08876416015625 1.584175 2.08926416015625 1.6041750000000001 C 2.08976416015625 1.6176750000000002 2.09576416015625 1.620675 2.10826416015625 1.620675 C 2.11426416015625 1.620675 2.1152641601562503 1.6096750000000002 2.11476416015625 1.5951750000000002 C 2.11426416015625 1.572175 2.11626416015625 1.5416750000000001 2.11676416015625 1.5346750000000002 C 2.11726416015625 1.5211750000000002 2.11876416015625 1.511675 2.11876416015625 1.493675 C 2.12676416015625 1.5106750000000002 2.15176416015625 1.5731750000000002 2.1722641601562502 1.576175 C 2.17326416015625 1.576175 2.17426416015625 1.576175 2.17526416015625 1.576175 C 2.17976416015625 1.576175 2.18476416015625 1.574175 2.18276416015625 1.5696750000000002 C 2.17926416015625 1.5631750000000002 2.1617641601562503 1.5321750000000003 2.14876416015625 1.5021750000000003 C 2.14776416015625 1.499675 2.1377641601562503 1.4726750000000002 2.1352641601562503 1.4701750000000002 C 2.15176416015625 1.451175 2.17426416015625 1.4221750000000002 2.17326416015625 1.382675 C 2.1722641601562502 1.3381750000000001 2.14626416015625 1.3276750000000002 2.13576416015625 1.3191750000000002 C 2.13176416015625 1.3121750000000003 2.12626416015625 1.3076750000000001 2.1177641601562502 1.3076750000000001 C 2.1057641601562502 1.3081750000000003 2.10076416015625 1.3191750000000002 2.09326416015625 1.3276750000000002 M 2.12076416015625 1.445175 C 2.12276416015625 1.4236750000000002 2.1272641601562503 1.3706750000000003 2.12876416015625 1.3491750000000002 C 2.1377641601562503 1.3506750000000003 2.14876416015625 1.3641750000000001 2.14826416015625 1.3836750000000002 C 2.14726416015625 1.411175 2.13276416015625 1.4366750000000001 2.12076416015625 1.445175 M 2.258527587890625 1.4606750000000002 C 2.2620275878906253 1.4951750000000001 2.261527587890625 1.5411750000000002 2.267527587890625 1.6056750000000002 C 2.268027587890625 1.6141750000000001 2.271027587890625 1.6171750000000003 2.279527587890625 1.6176750000000002 C 2.2845275878906253 1.6176750000000002 2.2965275878906253 1.616675 2.297027587890625 1.6131750000000002 C 2.297027587890625 1.6101750000000001 2.295027587890625 1.6101750000000001 2.294527587890625 1.6066750000000003 C 2.288027587890625 1.5691750000000002 2.2860275878906253 1.4911750000000001 2.285027587890625 1.4596750000000003 C 2.2845275878906253 1.4546750000000002 2.2885275878906253 1.453175 2.289027587890625 1.4476750000000003 C 2.2900275878906253 1.4421750000000002 2.288027587890625 1.4361750000000002 2.284027587890625 1.4346750000000001 C 2.282527587890625 1.4026750000000001 2.280027587890625 1.3531750000000002 2.277527587890625 1.3211750000000002 C 2.2765275878906253 1.3146750000000003 2.2605275878906252 1.3106750000000003 2.255027587890625 1.3106750000000003 C 2.2445275878906252 1.3111750000000002 2.2395275878906253 1.3216750000000002 2.237527587890625 1.3296750000000002 C 2.220527587890625 1.4001750000000002 2.208027587890625 1.4746750000000002 2.193527587890625 1.5476750000000001 C 2.190527587890625 1.5651750000000002 2.1860275878906252 1.5916750000000002 2.187027587890625 1.6086750000000003 C 2.187027587890625 1.6136750000000002 2.198527587890625 1.6196750000000002 2.203027587890625 1.6196750000000002 C 2.209027587890625 1.6191750000000003 2.212027587890625 1.6151750000000002 2.212527587890625 1.6096750000000002 C 2.2180275878906253 1.562175 2.229527587890625 1.4941750000000003 2.2355275878906253 1.4616750000000003 C 2.2460275878906253 1.4611750000000001 2.249027587890625 1.4616750000000003 2.258527587890625 1.4606750000000002 M 2.257527587890625 1.3731750000000003 C 2.258527587890625 1.3916750000000002 2.2580275878906253 1.4166750000000001 2.258527587890625 1.435175 C 2.257027587890625 1.4356750000000003 2.252027587890625 1.4361750000000002 2.247527587890625 1.4361750000000002 C 2.2445275878906252 1.4361750000000002 2.241527587890625 1.4356750000000003 2.2405275878906252 1.4356750000000003 C 2.243027587890625 1.4136750000000002 2.253527587890625 1.368675 2.257027587890625 1.3516750000000002 M 2.3642890625 1.5901750000000001 C 2.3547890625 1.578175 2.3482890625 1.5566750000000003 2.3452890625 1.5346750000000002 C 2.3382890625000003 1.4746750000000002 2.3477890625 1.4016750000000002 2.3767890625000003 1.3506750000000003 C 2.3802890625 1.3441750000000001 2.3837890625 1.336675 2.3927890625000003 1.3361750000000001 C 2.3982890625 1.3361750000000001 2.4032890625000003 1.3431750000000002 2.4077890625 1.3431750000000002 C 2.4147890625 1.3421750000000001 2.4197890625 1.3371750000000002 2.4187890625 1.3311750000000002 C 2.4172890625 1.3206750000000003 2.3952890625000003 1.3116750000000001 2.3867890625 1.3121750000000003 C 2.3407890625000003 1.3156750000000001 2.3217890625 1.4261750000000002 2.3182890625000003 1.4611750000000001 C 2.3132890625 1.5031750000000001 2.3182890625000003 1.540175 2.3252890625 1.5671750000000002 C 2.3307890625 1.5901750000000001 2.3432890625000002 1.614675 2.3702890625000004 1.614675 C 2.3882890625 1.6136750000000002 2.4082890625 1.5876750000000002 2.3972890625 1.5766750000000003 C 2.3962890625 1.5756750000000002 2.3937890625000002 1.5716750000000002 2.3892890625 1.570175 C 2.3817890625 1.5766750000000003 2.3747890625 1.5921750000000001 2.3677890625 1.5921750000000001 C 2.3667890625 1.5921750000000001 2.3652890625 1.5916750000000002 2.3642890625 1.5901750000000001 M 2.4685246582031253 1.4331750000000003 C 2.469024658203125 1.4051750000000003 2.477524658203125 1.356675 2.477524658203125 1.3236750000000002 C 2.477524658203125 1.3156750000000001 2.4645246582031253 1.3056750000000001 2.4565246582031253 1.3056750000000001 C 2.453024658203125 1.3056750000000001 2.449524658203125 1.3091750000000002 2.449524658203125 1.3126750000000003 C 2.449524658203125 1.3166750000000003 2.450524658203125 1.3206750000000003 2.450524658203125 1.324175 C 2.450524658203125 1.3511750000000002 2.443024658203125 1.4216750000000002 2.4420246582031253 1.4381750000000002 C 2.4395246582031254 1.4386750000000001 2.431024658203125 1.4401750000000002 2.423024658203125 1.443175 C 2.4210246582031254 1.4441750000000002 2.420024658203125 1.4461750000000002 2.420024658203125 1.4486750000000002 C 2.420024658203125 1.4501750000000002 2.4205246582031252 1.4516750000000003 2.4210246582031254 1.4536750000000003 C 2.4210246582031254 1.4556750000000003 2.423024658203125 1.4546750000000002 2.423024658203125 1.4561750000000002 C 2.429024658203125 1.4626750000000002 2.432024658203125 1.4626750000000002 2.4395246582031254 1.4626750000000002 C 2.437024658203125 1.4951750000000001 2.433524658203125 1.5191750000000002 2.433524658203125 1.5516750000000001 C 2.433524658203125 1.5626750000000003 2.4355246582031254 1.5736750000000002 2.4355246582031254 1.5846750000000003 C 2.4355246582031254 1.5961750000000001 2.440024658203125 1.6081750000000001 2.453524658203125 1.6081750000000001 C 2.457024658203125 1.6081750000000001 2.465524658203125 1.6056750000000002 2.465524658203125 1.6006750000000003 C 2.465524658203125 1.5986750000000003 2.465024658203125 1.5971750000000002 2.465024658203125 1.5951750000000002 C 2.455024658203125 1.5746750000000003 2.4635246582031254 1.4881750000000002 2.466524658203125 1.4611750000000001 C 2.467024658203125 1.4561750000000002 2.468024658203125 1.457175 2.473024658203125 1.4556750000000003 C 2.492024658203125 1.4516750000000003 2.4990246582031252 1.4506750000000002 2.518524658203125 1.4486750000000002 C 2.514524658203125 1.481675 2.514524658203125 1.5086750000000002 2.512024658203125 1.5411750000000002 C 2.510524658203125 1.5626750000000003 2.5100246582031254 1.5816750000000002 2.5100246582031254 1.6031750000000002 C 2.5100246582031254 1.6156750000000002 2.514524658203125 1.6261750000000001 2.5285246582031253 1.6261750000000001 C 2.5325246582031253 1.6261750000000001 2.5405246582031253 1.6221750000000001 2.5405246582031253 1.6176750000000002 C 2.5405246582031253 1.6161750000000001 2.5390246582031253 1.6136750000000002 2.5390246582031253 1.6111750000000002 C 2.5365246582031253 1.6076750000000002 2.5350246582031253 1.6036750000000002 2.5350246582031253 1.5986750000000003 C 2.5350246582031253 1.5461750000000003 2.5380246582031254 1.4986750000000002 2.5430246582031253 1.4456750000000003 C 2.5495246582031252 1.4446750000000002 2.568024658203125 1.4396750000000003 2.568024658203125 1.431175 C 2.568024658203125 1.4281750000000002 2.5660246582031254 1.4216750000000002 2.562024658203125 1.4216750000000002 C 2.561024658203125 1.4216750000000002 2.559524658203125 1.4216750000000002 2.558524658203125 1.4226750000000001 L 2.5445246582031253 1.4241750000000002 C 2.546524658203125 1.4011750000000003 2.546524658203125 1.3961750000000002 2.5485246582031253 1.3736750000000002 C 2.5495246582031252 1.3596750000000002 2.553024658203125 1.344675 2.553024658203125 1.3306750000000003 C 2.553024658203125 1.3191750000000002 2.542524658203125 1.3111750000000002 2.5335246582031252 1.3111750000000002 C 2.528024658203125 1.3111750000000002 2.526524658203125 1.3151750000000002 2.526524658203125 1.3206750000000003 C 2.526524658203125 1.3556750000000002 2.521524658203125 1.4031750000000003 2.5190246582031253 1.4266750000000001 C 2.501524658203125 1.4281750000000002 2.4860246582031253 1.4301750000000002 2.4685246582031253 1.4331750000000003 M 2.64326123046875 1.3456750000000002 C 2.64576123046875 1.3456750000000002 2.6487612304687502 1.3456750000000002 2.6517612304687503 1.3456750000000002 C 2.65776123046875 1.3456750000000002 2.6637612304687504 1.3456750000000002 2.6662612304687503 1.3456750000000002 C 2.67076123046875 1.3461750000000001 2.6742612304687503 1.3421750000000001 2.6742612304687503 1.3376750000000002 C 2.67376123046875 1.3316750000000002 2.67076123046875 1.3266750000000003 2.6652612304687504 1.3236750000000002 C 2.6597612304687503 1.3211750000000002 2.6372612304687504 1.3196750000000002 2.6157612304687503 1.3196750000000002 C 2.60876123046875 1.3196750000000002 2.6022612304687502 1.3196750000000002 2.59626123046875 1.3201750000000003 C 2.5957612304687503 1.3201750000000003 2.59526123046875 1.3201750000000003 2.59526123046875 1.3201750000000003 C 2.5907612304687504 1.3201750000000003 2.5867612304687504 1.318175 2.5822612304687502 1.318175 C 2.5822612304687502 1.318175 2.58176123046875 1.318175 2.5812612304687503 1.318175 C 2.57776123046875 1.318175 2.57426123046875 1.3216750000000002 2.5747612304687504 1.3256750000000002 C 2.5747612304687504 1.328175 2.57426123046875 1.3316750000000002 2.57676123046875 1.3336750000000002 C 2.57776123046875 1.3411750000000002 2.58076123046875 1.3476750000000002 2.58976123046875 1.3471750000000002 C 2.5987612304687504 1.3466750000000003 2.5932612304687503 1.3461750000000001 2.6027612304687504 1.3456750000000002 C 2.60876123046875 1.3456750000000002 2.6117612304687503 1.3456750000000002 2.6117612304687503 1.3516750000000002 C 2.61126123046875 1.376675 2.6067612304687504 1.427175 2.60476123046875 1.4601750000000002 C 2.60176123046875 1.5021750000000003 2.5972612304687503 1.5496750000000001 2.5982612304687502 1.5926750000000003 C 2.5987612304687504 1.6041750000000001 2.6037612304687503 1.6136750000000002 2.61676123046875 1.6131750000000002 C 2.6227612304687504 1.6131750000000002 2.62826123046875 1.6096750000000002 2.62826123046875 1.6031750000000002 C 2.62826123046875 1.5971750000000002 2.6252612304687504 1.5921750000000001 2.62476123046875 1.5861750000000001 C 2.6237612304687503 1.5461750000000003 2.6332612304687504 1.4101750000000002 2.63676123046875 1.3756750000000002 C 2.63776123046875 1.3656750000000002 2.63776123046875 1.3551750000000002 2.64326123046875 1.3456750000000002 M 2.7880202636718754 1.4811750000000001 C 2.7935202636718754 1.4141750000000002 2.7920202636718754 1.3691750000000003 2.778020263671875 1.3376750000000002 C 2.7760202636718754 1.332175 2.7730202636718753 1.328175 2.771020263671875 1.3271750000000002 C 2.763520263671875 1.322175 2.7575202636718754 1.3211750000000002 2.7505202636718753 1.3196750000000002 C 2.7480202636718754 1.3196750000000002 2.7465202636718753 1.3201750000000003 2.744520263671875 1.3201750000000003 C 2.743020263671875 1.3201750000000003 2.7415202636718754 1.3196750000000002 2.7390202636718755 1.318175 C 2.7370202636718752 1.3166750000000003 2.7350202636718755 1.3156750000000001 2.7330202636718752 1.3156750000000001 C 2.7240202636718753 1.3156750000000001 2.7175202636718754 1.332675 2.715520263671875 1.3411750000000002 C 2.7065202636718753 1.3781750000000001 2.7000202636718753 1.4131750000000003 2.696520263671875 1.4506750000000002 C 2.693020263671875 1.4906750000000002 2.690020263671875 1.5261750000000003 2.6950202636718754 1.568175 C 2.6960202636718753 1.5766750000000003 2.696520263671875 1.5856750000000002 2.700520263671875 1.5936750000000002 C 2.706020263671875 1.6046750000000003 2.717020263671875 1.614675 2.730020263671875 1.614675 C 2.772520263671875 1.614675 2.7850202636718753 1.5106750000000002 2.7880202636718754 1.4811750000000001 M 2.7290202636718752 1.5896750000000002 C 2.7070202636718754 1.5616750000000001 2.7305202636718753 1.3581750000000001 2.7480202636718754 1.3346750000000003 C 2.7695202636718754 1.3541750000000001 2.7655202636718754 1.4501750000000002 2.7625202636718753 1.477675 C 2.758020263671875 1.511675 2.7490202636718752 1.5566750000000003 2.7330202636718752 1.5876750000000002 C 2.7320202636718753 1.5891750000000002 2.7310202636718754 1.5911750000000002 2.7305202636718753 1.5911750000000002 C 2.730020263671875 1.5911750000000002 2.7295202636718754 1.5906750000000003 2.7290202636718752 1.5896750000000002 M 2.8937700195312503 1.5276750000000001 C 2.8937700195312503 1.5211750000000002 2.8922700195312503 1.5146750000000002 2.8907700195312502 1.5086750000000002 C 2.88527001953125 1.481675 2.88127001953125 1.4576750000000003 2.8762700195312503 1.4306750000000001 C 2.87327001953125 1.4106750000000001 2.86927001953125 1.3881750000000002 2.8657700195312503 1.368675 C 2.86377001953125 1.3561750000000001 2.86277001953125 1.3431750000000002 2.85977001953125 1.3311750000000002 C 2.85727001953125 1.3191750000000002 2.85177001953125 1.3166750000000003 2.8402700195312502 1.3166750000000003 C 2.8272700195312503 1.3166750000000003 2.8207700195312504 1.328675 2.82127001953125 1.3471750000000002 C 2.8217700195312503 1.3876750000000002 2.8202700195312502 1.4281750000000002 2.81877001953125 1.4686750000000002 C 2.8182700195312504 1.4911750000000001 2.81727001953125 1.5171750000000002 2.8162700195312502 1.5391750000000002 C 2.8137700195312503 1.5671750000000002 2.80927001953125 1.5891750000000002 2.8142700195312504 1.6081750000000001 C 2.8152700195312503 1.612675 2.8192700195312503 1.6151750000000002 2.82377001953125 1.6151750000000002 C 2.8282700195312502 1.6151750000000002 2.8337700195312503 1.6121750000000001 2.8352700195312504 1.6056750000000002 C 2.8402700195312502 1.5846750000000003 2.84377001953125 1.4381750000000002 2.84377001953125 1.435175 C 2.8442700195312502 1.4251750000000003 2.8447700195312504 1.4031750000000003 2.8442700195312502 1.392675 C 2.84677001953125 1.3956750000000002 2.85727001953125 1.4631750000000001 2.8582700195312505 1.4686750000000002 C 2.8592700195312504 1.4741750000000002 2.87077001953125 1.544175 2.8842700195312503 1.5971750000000002 C 2.88527001953125 1.6011750000000002 2.8897700195312503 1.6046750000000003 2.89427001953125 1.6046750000000003 C 2.89977001953125 1.6041750000000001 2.9027700195312502 1.6001750000000001 2.9032700195312504 1.5946750000000003 C 2.9127700195312505 1.5946750000000003 2.91827001953125 1.5906750000000003 2.91827001953125 1.5831750000000002 C 2.91827001953125 1.5766750000000003 2.9162700195312503 1.5706750000000003 2.9162700195312503 1.564175 C 2.91727001953125 1.517675 2.9187700195312503 1.437175 2.92127001953125 1.3911750000000003 C 2.92227001953125 1.3736750000000002 2.92377001953125 1.3476750000000002 2.9232700195312504 1.330175 C 2.9232700195312504 1.324175 2.91727001953125 1.318175 2.91027001953125 1.318175 C 2.9082700195312503 1.318175 2.90627001953125 1.3186750000000003 2.9042700195312503 1.3201750000000003 C 2.89827001953125 1.3231750000000002 2.89827001953125 1.3596750000000002 2.89827001953125 1.3681750000000001 C 2.8977700195312504 1.3876750000000002 2.89427001953125 1.4796750000000003 2.8937700195312503 1.5276750000000001 M 2.9895227050781252 1.318175 C 2.9895227050781252 1.314175 2.9890227050781255 1.3086750000000003 2.986522705078125 1.3071750000000002 C 2.980022705078125 1.3036750000000001 2.9790227050781253 1.302175 2.9740227050781254 1.302175 C 2.9660227050781254 1.3026750000000002 2.9635227050781254 1.310175 2.9630227050781253 1.3176750000000002 C 2.9605227050781253 1.3731750000000003 2.9555227050781254 1.4206750000000001 2.952022705078125 1.4766750000000002 C 2.949522705078125 1.5231750000000002 2.9445227050781253 1.5616750000000001 2.946522705078125 1.6086750000000003 C 2.946522705078125 1.6191750000000003 2.9570227050781255 1.6221750000000001 2.965522705078125 1.6221750000000001 C 2.972022705078125 1.6221750000000001 2.972022705078125 1.6196750000000002 2.972022705078125 1.6111750000000002 C 2.972022705078125 1.6086750000000003 2.972022705078125 1.6066750000000003 2.972022705078125 1.6036750000000002 C 2.9780227050781254 1.5996750000000002 2.9875227050781255 1.5981750000000001 3.0015227050781252 1.5851750000000002 C 3.0435227050781255 1.5451750000000002 3.0590227050781253 1.4651750000000001 3.0565227050781254 1.4091750000000003 C 3.0565227050781254 1.4031750000000003 3.0555227050781255 1.3956750000000002 3.0555227050781255 1.3896750000000002 C 3.0520227050781252 1.3651750000000002 3.0380227050781254 1.334175 3.014522705078125 1.3231750000000002 C 3.0085227050781254 1.3211750000000002 2.9955227050781255 1.318175 2.9895227050781252 1.318175 M 2.9730227050781255 1.5736750000000002 C 2.9750227050781253 1.5351750000000002 2.9780227050781254 1.4846750000000002 2.9805227050781253 1.4461750000000002 C 2.9830227050781253 1.4146750000000001 2.9855227050781252 1.3761750000000001 2.9890227050781255 1.3451750000000002 C 2.990522705078125 1.344675 2.9930227050781255 1.3441750000000001 2.9950227050781253 1.3441750000000001 C 2.9965227050781253 1.3441750000000001 2.9980227050781254 1.3441750000000001 2.9990227050781253 1.344675 C 3.0215227050781253 1.3491750000000002 3.0285227050781254 1.3821750000000002 3.0295227050781253 1.3976750000000002 C 3.032022705078125 1.4496750000000003 3.0195227050781255 1.5191750000000002 2.9885227050781253 1.5611750000000002 C 2.9845227050781253 1.5671750000000002 2.978522705078125 1.5691750000000002 2.9730227050781255 1.5736750000000002 M 3.1042705078125 1.3311750000000002 C 3.0917705078125004 1.3381750000000001 3.0927705078125003 1.3381750000000001 3.0912705078125002 1.3511750000000002 C 3.0867705078125005 1.3996750000000002 3.0812705078125004 1.449175 3.0777705078125 1.497675 C 3.0752705078125 1.5286750000000002 3.0742705078125003 1.5606750000000003 3.0742705078125003 1.5921750000000001 C 3.0742705078125003 1.5991750000000002 3.0762705078125 1.6106750000000003 3.0857705078125 1.6106750000000003 C 3.1112705078125003 1.6101750000000001 3.1282705078125 1.5961750000000001 3.1492705078125005 1.5931750000000002 C 3.1552705078125003 1.5926750000000003 3.1592705078125003 1.5906750000000003 3.1592705078125003 1.5846750000000003 C 3.1592705078125003 1.5746750000000003 3.1477705078125005 1.5716750000000002 3.1392705078125003 1.5716750000000002 C 3.1277705078125004 1.5716750000000002 3.1142705078125004 1.5791750000000002 3.1022705078125004 1.5826750000000003 C 3.1017705078125 1.5476750000000001 3.1027705078125005 1.5166750000000002 3.1072705078125002 1.4826750000000002 C 3.1082705078125 1.4756750000000003 3.1067705078125005 1.4686750000000002 3.1127705078125003 1.4671750000000001 C 3.1222705078125004 1.4646750000000002 3.1372705078125005 1.4641750000000002 3.1467705078125 1.4631750000000001 C 3.1497705078125002 1.4626750000000002 3.1537705078125002 1.4606750000000002 3.1567705078125003 1.4606750000000002 C 3.1607705078125004 1.459175 3.1642705078125 1.4536750000000003 3.1642705078125 1.4496750000000003 C 3.1642705078125 1.4441750000000002 3.1602705078125 1.4426750000000002 3.1542705078125004 1.4426750000000002 L 3.1117705078125004 1.441175 C 3.1142705078125004 1.4201750000000002 3.1152705078125003 1.3831750000000003 3.1197705078125004 1.3596750000000002 C 3.1207705078125003 1.3551750000000002 3.1227705078125005 1.3516750000000002 3.1227705078125005 1.3476750000000002 C 3.1227705078125005 1.3441750000000001 3.1187705078125005 1.340675 3.1167705078125003 1.3386750000000003 L 3.1597705078125005 1.3361750000000001 C 3.1652705078125005 1.3361750000000001 3.1692705078125005 1.3336750000000002 3.1687705078125004 1.3276750000000002 C 3.1677705078125005 1.3131750000000002 3.1517705078125005 1.310175 3.1367705078125003 1.310175 C 3.1277705078125004 1.310175 3.1192705078125003 1.3111750000000002 3.1137705078125 1.3116750000000001 C 3.1077705078125004 1.3121750000000003 3.1052705078125005 1.3151750000000002 3.1032705078125002 1.3201750000000003 M 3.1865314941406253 1.3276750000000002 C 3.1865314941406253 1.3311750000000002 3.1935314941406254 1.332675 3.194031494140625 1.3476750000000002 C 3.1950314941406255 1.3621750000000001 3.190031494140625 1.4076750000000002 3.1890314941406253 1.4226750000000001 C 3.1870314941406255 1.4631750000000001 3.1855314941406254 1.503675 3.1840314941406254 1.5446750000000002 C 3.1830314941406255 1.564175 3.182031494140625 1.584175 3.1825314941406253 1.6041750000000001 C 3.1830314941406255 1.6176750000000002 3.1890314941406253 1.620675 3.2015314941406254 1.620675 C 3.207531494140625 1.620675 3.2085314941406256 1.6096750000000002 3.2080314941406254 1.5951750000000002 C 3.207531494140625 1.572175 3.2095314941406254 1.5416750000000001 3.210031494140625 1.5346750000000002 C 3.2105314941406253 1.5211750000000002 3.2120314941406254 1.511675 3.2120314941406254 1.493675 C 3.2200314941406254 1.5106750000000002 3.2450314941406253 1.5731750000000002 3.2655314941406255 1.576175 C 3.2665314941406254 1.576175 3.2675314941406253 1.576175 3.268531494140625 1.576175 C 3.2730314941406253 1.576175 3.2780314941406252 1.574175 3.2760314941406254 1.5696750000000002 C 3.272531494140625 1.5631750000000002 3.2550314941406255 1.5321750000000003 3.242031494140625 1.5021750000000003 C 3.2410314941406253 1.499675 3.2310314941406255 1.4726750000000002 3.2285314941406256 1.4701750000000002 C 3.2450314941406253 1.451175 3.2675314941406253 1.4221750000000002 3.2665314941406254 1.382675 C 3.2655314941406255 1.3381750000000001 3.2395314941406252 1.3276750000000002 3.2290314941406253 1.3191750000000002 C 3.2250314941406253 1.3121750000000003 3.2195314941406252 1.3076750000000001 3.2110314941406255 1.3076750000000001 C 3.1990314941406255 1.3081750000000003 3.194031494140625 1.3191750000000002 3.1865314941406253 1.3276750000000002 M 3.214031494140625 1.445175 C 3.2160314941406254 1.4236750000000002 3.2205314941406256 1.3706750000000003 3.222031494140625 1.3491750000000002 C 3.2310314941406255 1.3506750000000003 3.242031494140625 1.3641750000000001 3.2415314941406255 1.3836750000000002 C 3.240531494140625 1.411175 3.226031494140625 1.4366750000000001 3.214031494140625 1.445175 M 3.364794921875 1.3371750000000002 C 3.3657949218750005 1.3501750000000001 3.3347949218750004 1.4336750000000003 3.3277949218750003 1.4546750000000002 C 3.3172949218750003 1.4841750000000002 3.3017949218750005 1.5296750000000001 3.2937949218750004 1.5586750000000003 C 3.2897949218750004 1.5691750000000002 3.286294921875 1.5711750000000002 3.2867949218750003 1.582175 C 3.2872949218750005 1.5866750000000003 3.2892949218750003 1.5896750000000002 3.2917949218750002 1.5926750000000003 C 3.3067949218750003 1.6086750000000003 3.3207949218750006 1.6106750000000003 3.3372949218750003 1.6106750000000003 C 3.342294921875 1.6106750000000003 3.3482949218750004 1.6106750000000003 3.3542949218750002 1.6106750000000003 C 3.3637949218750003 1.6106750000000003 3.3822949218750002 1.6106750000000003 3.380794921875 1.5971750000000002 C 3.3802949218750005 1.5881750000000001 3.3697949218750005 1.5836750000000002 3.3627949218750004 1.5836750000000002 C 3.356794921875 1.5836750000000002 3.3517949218750003 1.5871750000000002 3.3452949218750003 1.5871750000000002 C 3.3437949218750003 1.5866750000000003 3.342294921875 1.5866750000000003 3.3412949218750003 1.5866750000000003 C 3.3352949218750005 1.5866750000000003 3.330294921875 1.5876750000000002 3.3247949218750006 1.5876750000000002 C 3.3197949218750002 1.5876750000000002 3.3152949218750005 1.5856750000000002 3.3157949218750002 1.5806750000000003 C 3.3177949218750005 1.562175 3.3332949218750003 1.515675 3.342294921875 1.4886750000000002 C 3.3557949218750003 1.4476750000000003 3.3707949218750004 1.407175 3.3842949218750005 1.3666750000000003 C 3.3877949218750003 1.3571750000000002 3.3907949218750004 1.348675 3.3982949218750003 1.340675 C 3.4012949218750004 1.3386750000000003 3.403294921875 1.3346750000000003 3.4027949218750004 1.3311750000000002 C 3.4012949218750004 1.3136750000000001 3.3822949218750002 1.3111750000000002 3.3662949218750002 1.3111750000000002 C 3.360794921875 1.3111750000000002 3.3557949218750003 1.3116750000000001 3.3517949218750003 1.3116750000000001 C 3.3452949218750003 1.3116750000000001 3.3087949218750006 1.3121750000000003 3.3092949218750003 1.3196750000000002 C 3.310294921875 1.3276750000000002 3.3212949218750003 1.340675 3.330294921875 1.340675 C 3.3377949218750005 1.340675 3.3457949218750005 1.3361750000000001 3.3542949218750002 1.3361750000000001 C 3.3577949218750005 1.3361750000000001 3.3612949218750003 1.3361750000000001 3.364794921875 1.3371750000000002 M 3.5200593261718756 1.4811750000000001 C 3.5255593261718756 1.4141750000000002 3.5240593261718756 1.3691750000000003 3.5100593261718753 1.3376750000000002 C 3.5080593261718755 1.332175 3.5050593261718754 1.328175 3.503059326171875 1.3271750000000002 C 3.4955593261718754 1.322175 3.4895593261718756 1.3211750000000002 3.4825593261718755 1.3196750000000002 C 3.4800593261718755 1.3196750000000002 3.4785593261718755 1.3201750000000003 3.4765593261718752 1.3201750000000003 C 3.475059326171875 1.3201750000000003 3.4735593261718756 1.3196750000000002 3.4710593261718756 1.318175 C 3.4690593261718754 1.3166750000000003 3.4670593261718756 1.3156750000000001 3.4650593261718754 1.3156750000000001 C 3.4560593261718755 1.3156750000000001 3.4495593261718756 1.332675 3.4475593261718753 1.3411750000000002 C 3.4385593261718754 1.3781750000000001 3.4320593261718755 1.4131750000000003 3.428559326171875 1.4506750000000002 C 3.4250593261718754 1.4906750000000002 3.4220593261718752 1.5261750000000003 3.4270593261718756 1.568175 C 3.4280593261718755 1.5766750000000003 3.428559326171875 1.5856750000000002 3.432559326171875 1.5936750000000002 C 3.4380593261718753 1.6046750000000003 3.4490593261718754 1.614675 3.4620593261718753 1.614675 C 3.5045593261718753 1.614675 3.5170593261718754 1.5106750000000002 3.5200593261718756 1.4811750000000001 M 3.4610593261718754 1.5896750000000002 C 3.4390593261718756 1.5616750000000001 3.4625593261718755 1.3581750000000001 3.4800593261718755 1.3346750000000003 C 3.5015593261718756 1.3541750000000001 3.4975593261718756 1.4501750000000002 3.4945593261718755 1.477675 C 3.4900593261718753 1.511675 3.4810593261718754 1.5566750000000003 3.4650593261718754 1.5876750000000002 C 3.4640593261718755 1.5891750000000002 3.4630593261718756 1.5911750000000002 3.4625593261718755 1.5911750000000002 C 3.4620593261718753 1.5911750000000002 3.4615593261718756 1.5906750000000003 3.4610593261718754 1.5896750000000002 M 3.5718090820312502 1.3311750000000002 C 3.5593090820312505 1.3381750000000001 3.5603090820312504 1.3381750000000001 3.5588090820312503 1.3511750000000002 C 3.5543090820312506 1.3996750000000002 3.5488090820312506 1.449175 3.5453090820312503 1.497675 C 3.5428090820312503 1.5286750000000002 3.5418090820312504 1.5606750000000003 3.5418090820312504 1.5921750000000001 C 3.5418090820312504 1.5991750000000002 3.5438090820312502 1.6106750000000003 3.5533090820312503 1.6106750000000003 C 3.5788090820312504 1.6101750000000001 3.5958090820312503 1.5961750000000001 3.6168090820312506 1.5931750000000002 C 3.6228090820312504 1.5926750000000003 3.6268090820312504 1.5906750000000003 3.6268090820312504 1.5846750000000003 C 3.6268090820312504 1.5746750000000003 3.6153090820312506 1.5716750000000002 3.6068090820312504 1.5716750000000002 C 3.5953090820312505 1.5716750000000002 3.5818090820312505 1.5791750000000002 3.5698090820312505 1.5826750000000003 C 3.5693090820312503 1.5476750000000001 3.5703090820312506 1.5166750000000002 3.5748090820312504 1.4826750000000002 C 3.5758090820312503 1.4756750000000003 3.5743090820312506 1.4686750000000002 3.5803090820312504 1.4671750000000001 C 3.5898090820312505 1.4646750000000002 3.6048090820312506 1.4641750000000002 3.6143090820312502 1.4631750000000001 C 3.6173090820312503 1.4626750000000002 3.6213090820312503 1.4606750000000002 3.6243090820312505 1.4606750000000002 C 3.6283090820312505 1.459175 3.6318090820312503 1.4536750000000003 3.6318090820312503 1.4496750000000003 C 3.6318090820312503 1.4441750000000002 3.6278090820312503 1.4426750000000002 3.6218090820312505 1.4426750000000002 L 3.5793090820312505 1.441175 C 3.5818090820312505 1.4201750000000002 3.5828090820312504 1.3831750000000003 3.5873090820312505 1.3596750000000002 C 3.5883090820312504 1.3551750000000002 3.5903090820312507 1.3516750000000002 3.5903090820312507 1.3476750000000002 C 3.5903090820312507 1.3441750000000001 3.5863090820312507 1.340675 3.5843090820312504 1.3386750000000003 L 3.6273090820312506 1.3361750000000001 C 3.6328090820312506 1.3361750000000001 3.6368090820312506 1.3336750000000002 3.6363090820312505 1.3276750000000002 C 3.6353090820312506 1.3131750000000002 3.6193090820312506 1.310175 3.6043090820312504 1.310175 C 3.5953090820312505 1.310175 3.5868090820312504 1.3111750000000002 3.5813090820312503 1.3116750000000001 C 3.5753090820312505 1.3121750000000003 3.5728090820312506 1.3151750000000002 3.5708090820312504 1.3201750000000003 M 3.6880700683593757 1.4056750000000002 C 3.6885700683593754 1.3861750000000002 3.6935700683593753 1.3556750000000002 3.6945700683593756 1.3356750000000002 C 3.6950700683593753 1.3256750000000002 3.6865700683593756 1.3146750000000003 3.6770700683593756 1.3146750000000003 C 3.6765700683593754 1.3146750000000003 3.6760700683593757 1.3146750000000003 3.6760700683593757 1.3146750000000003 C 3.6710700683593753 1.3146750000000003 3.6675700683593755 1.3176750000000002 3.6670700683593753 1.3226750000000003 C 3.6655700683593753 1.3401750000000001 3.6640700683593757 1.3561750000000001 3.6630700683593753 1.372675 C 3.6610700683593755 1.3956750000000002 3.6585700683593756 1.4236750000000002 3.6565700683593754 1.4461750000000002 C 3.6540700683593754 1.4866750000000002 3.6500700683593754 1.5396750000000001 3.6500700683593754 1.5796750000000002 C 3.6500700683593754 1.5891750000000002 3.6515700683593755 1.6161750000000001 3.6645700683593754 1.6161750000000001 C 3.6650700683593755 1.6161750000000001 3.6660700683593754 1.6156750000000002 3.6665700683593756 1.6151750000000002 C 3.6755700683593755 1.6151750000000002 3.6760700683593757 1.6096750000000002 3.6760700683593757 1.6046750000000003 C 3.6750700683593753 1.5696750000000002 3.6785700683593756 1.5281750000000003 3.6815700683593753 1.4931750000000001 C 3.6820700683593754 1.489675 3.6825700683593756 1.485675 3.6825700683593756 1.4826750000000002 C 3.6935700683593753 1.5001750000000003 3.7255700683593753 1.5566750000000003 3.7460700683593755 1.5566750000000003 C 3.7500700683593755 1.5566750000000003 3.7565700683593755 1.5551750000000002 3.7565700683593755 1.5506750000000002 C 3.7565700683593755 1.5456750000000001 3.6945700683593756 1.4621750000000002 3.6945700683593756 1.4441750000000002 C 3.7035700683593755 1.4286750000000001 3.7320700683593753 1.3911750000000003 3.7530700683593756 1.3701750000000001 C 3.7605700683593755 1.3621750000000001 3.7590700683593754 1.3436750000000002 3.7460700683593755 1.3436750000000002 C 3.7325700683593754 1.3436750000000002 3.7005700683593754 1.3976750000000002 3.6880700683593757 1.4056750000000002" fill="#574848" fill-rule="nonzero"></path></g></g><defs><clipPath id="SvgjsClipPath57581"><path d=" M -2.2194809133223443 -0.4048512152625928 h 1.8194809133223444 v 2.421377430525186 h -1.8194809133223444 Z"></path></clipPath><clipPath id="SvgjsClipPath5757940e1fbf9-7a4f-4e27-bfd6-2143f830ced5"><path d=" M -2.2194809133223443 -0.4048512152625928 L -0.3999999999999999 -0.4048512152625928 L -0.3999999999999999 2.016526215262593 L -2.2194809133223443 2.016526215262593 Z"></path></clipPath></defs></svg>