<svg width="443" height="210" viewBox="0 0 443 210" fill="none" xmlns="http://www.w3.org/2000/svg">
<path d="M419 0H24V210H419V0Z" fill="#C5B3B3"/>
<mask id="mask0_1_2" style="mask-type:luminance" maskUnits="userSpaceOnUse" x="67" y="43" width="95" height="124">
<path d="M67.0654 43.0128H161.049V166.987H67.0654V43.0128Z" fill="white"/>
</mask>
<g mask="url(#mask0_1_2)">
<mask id="mask1_1_2" style="mask-type:luminance" maskUnits="userSpaceOnUse" x="67" y="43" width="95" height="124">
<path d="M67.0654 43.0128H161.049V166.987H67.0654V43.0128Z" fill="white"/>
</mask>
<g mask="url(#mask1_1_2)">
<path d="M145.431 149.127C143.272 143.585 141.886 137.388 141.914 131.506C141.817 127.446 141.844 123.345 144.148 119.901C145.415 117.938 147.502 115.813 149.075 113.948C158.618 102.869 163.04 89.0243 160.199 74.9834C153.095 42.8514 110.165 32.8079 86.5536 54.6999C77.1791 63.2296 72.3514 76.0733 74.8992 88.6805C76.4889 94.3645 74.5927 96.7025 71.1472 102.465C69.8862 104.621 67.788 107.057 67.074 109.301C66.9106 111.284 69.1207 112.829 70.725 113.884C72.5827 115.007 72.9076 116.049 72.1495 117.714C70.6406 120.982 72.278 120.882 73.4693 123.409C73.6951 124.217 73.0379 125.146 73.0746 126.105C73.0801 126.598 73.2233 127.071 73.4932 127.486C74.1154 128.556 75.5692 129.082 75.8758 130.325C76.0593 132.612 74.6918 135.106 76.0318 137.275C78.8366 142.057 85.2705 141.267 91.0472 140.23C91.5942 137.981 91.9118 135.672 91.9007 133.432C91.9613 130.858 91.9448 128.256 90.4836 126.071C89.6796 124.826 88.3562 123.478 87.3594 122.295C81.3055 115.269 78.5007 106.486 80.3033 97.5795C84.8097 77.1977 112.041 70.8259 127.018 84.7122C132.965 90.1233 136.027 98.2691 134.41 106.266C133.402 109.872 134.605 111.355 136.791 115.01C137.591 116.378 138.922 117.923 139.375 119.346C139.48 120.603 138.076 121.584 137.059 122.254C135.88 122.967 135.675 123.627 136.156 124.684C137.114 126.757 136.075 126.693 135.319 128.296C135.175 128.809 135.592 129.399 135.568 130.006C135.565 130.319 135.475 130.619 135.302 130.883C134.907 131.562 133.986 131.895 133.791 132.683C133.674 134.133 134.542 135.716 133.692 137.091C131.477 140.867 125.694 139.166 121.59 138.505C120.008 138.263 118.389 137.901 117.089 138.86C114.914 140.483 113.657 144.771 113.42 147.371C112.423 158.308 121.82 166.987 127.576 166.987H154.745C154.583 166.689 154.426 166.398 154.259 166.087C151.177 160.797 147.373 153.683 145.431 149.127ZM85.3439 59.8053C86.9427 59.8053 88.2368 61.0899 88.2368 62.6728C88.2368 64.2558 86.9409 65.5403 85.3439 65.5403C83.7469 65.5403 82.451 64.2558 82.451 62.6728C82.451 61.0899 83.7469 59.8053 85.3439 59.8053ZM84.2719 82.7963C80.8136 82.7963 78.0088 80.0161 78.0088 76.5882C78.0088 73.1603 80.8136 70.3801 84.2719 70.3801C87.7302 70.3801 90.535 73.1603 90.535 76.5882C90.535 80.0161 87.7302 82.7963 84.2719 82.7963ZM93.9713 75.0416C92.8553 75.0416 91.9503 74.1446 91.9503 73.0384C91.9503 71.9322 92.8553 71.0351 93.9713 71.0351C95.0874 71.0351 95.9923 71.9322 95.9923 73.0384C95.9923 74.1446 95.0874 75.0416 93.9713 75.0416ZM103.52 71.8612C97.7013 71.8612 92.9838 67.1851 92.9838 61.4174C92.9838 55.6496 97.7013 50.9736 103.52 50.9736C109.339 50.9736 114.057 55.6496 114.057 61.4174C114.057 67.1851 109.339 71.8612 103.52 71.8612ZM152.763 99.0187C150.677 99.0187 148.987 97.343 148.987 95.2761C148.987 93.2091 150.677 91.5334 152.763 91.5334C154.848 91.5334 156.538 93.2091 156.538 95.2761C156.538 97.343 154.848 99.0187 152.763 99.0187ZM154.244 72.3834C156.311 72.3834 157.985 74.0427 157.985 76.0915C157.985 78.1402 156.311 79.7996 154.244 79.7996C152.177 79.7996 150.503 78.1384 150.503 76.0915C150.503 74.0446 152.177 72.3834 154.244 72.3834ZM147.933 59.3432C149.613 59.3432 150.975 60.6932 150.975 62.358C150.975 64.0229 149.613 65.3729 147.933 65.3729C146.253 65.3729 144.891 64.0229 144.891 62.358C144.891 60.6932 146.253 59.3432 147.933 59.3432ZM145.888 67.9639C147.599 67.9639 148.987 69.3394 148.987 71.0351C148.987 72.7309 147.599 74.1064 145.888 74.1064C144.177 74.1064 142.79 72.7309 142.79 71.0351C142.79 69.3394 144.177 67.9639 145.888 67.9639ZM123.16 46.9707C126.581 46.9707 129.357 49.7199 129.357 53.1133C129.357 56.5066 126.583 59.2558 123.16 59.2558C119.736 59.2558 116.962 56.5066 116.962 53.1133C116.962 49.7199 119.736 46.9707 123.16 46.9707ZM126.01 78.5205C121.84 78.5205 118.458 75.169 118.458 71.0351C118.458 66.9013 121.84 63.5498 126.01 63.5498C130.181 63.5498 133.562 66.9013 133.562 71.0351C133.562 75.169 130.181 78.5205 126.01 78.5205ZM132.262 59.8053C132.262 57.4418 134.195 55.5259 136.58 55.5259C138.964 55.5259 140.897 57.4418 140.897 59.8053C140.897 62.1688 138.964 64.0847 136.58 64.0847C134.195 64.0847 132.262 62.1688 132.262 59.8053ZM135.398 86.0076C135.398 81.8738 138.779 78.5223 142.949 78.5223C147.12 78.5223 150.501 81.8738 150.501 86.0076C150.501 90.1415 147.12 93.493 142.949 93.493C138.779 93.493 135.398 90.1415 135.398 86.0076ZM136.914 105.001C136.914 101.697 139.616 99.0187 142.951 99.0187C146.286 99.0187 148.987 101.697 148.987 105.001C148.987 108.305 146.285 110.985 142.951 110.985C139.618 110.985 136.914 108.307 136.914 105.001Z" fill="#574848"/>
</g>
</g>
<path d="M191.861 110.743C191.861 110.436 191.473 109.207 191.783 108.9C191.938 108.285 191.628 107.517 191.783 106.826C192.248 98.7619 196.51 85.3987 199.221 77.5651C199.919 75.4915 200.461 73.1875 201.236 71.1139L201.158 70.6531C200.306 69.5779 200.306 69.8851 199.221 69.2707C198.369 69.1939 196.742 69.8851 196.2 70.0387L196.045 70.4227L196.122 70.9603C192.248 81.1747 187.134 93.1555 186.437 104.292C186.282 108.208 186.902 109.975 189.071 113.2C189.769 113.508 191.086 113.508 191.861 113.508C191.628 113.277 191.396 113.047 191.396 112.816C191.396 112.816 191.473 112.586 191.551 112.432C191.628 112.74 191.861 112.74 192.093 112.74C192.093 111.972 191.628 111.357 191.628 110.973V110.666M225.333 70.4995L225.565 70.4227C225.72 70.3459 225.72 70.3459 225.72 70.1923C225.565 69.8851 225.488 69.5779 225.41 69.2707C223.318 64.4323 215.183 63.7411 210.456 63.7411C203.173 63.7411 196.82 65.4307 189.691 67.7347C185.43 69.2707 178.302 72.1891 173.653 72.1891C173.188 72.1891 173.11 72.1891 172.723 71.9587C172.8 72.4963 173.188 72.7267 173.498 72.9571C173.73 73.4179 174.273 74.0323 174.582 74.3395C174.582 74.5699 174.815 74.6467 174.815 74.9539C175.125 75.1075 175.822 75.2611 176.132 75.4147C176.287 75.4147 176.442 75.4147 176.597 75.4147C181.013 75.4147 185.042 73.1875 189.149 71.9587C195.657 69.8851 203.948 67.5043 211.618 67.5043C214.95 67.5043 221.071 68.0419 223.396 70.8067L223.628 70.4995L223.473 71.1139C223.473 71.3443 223.706 71.5747 223.706 71.8819C223.86 71.9587 224.093 72.1891 224.093 72.1891L224.325 72.0355L224.48 71.7283L224.945 71.2675H225.333C225.333 70.9603 225.41 70.8835 225.333 70.4995ZM219.678 90.7747C220.298 90.7747 220.918 90.7747 221.538 90.8515L221.693 90.7747L221.46 90.4675L221.538 90.3139L221.46 90.0067L221.693 89.9299L221.615 89.8531L222.39 89.2387C222.08 88.5475 220.763 88.3939 219.446 88.3939C218.516 88.3939 217.509 88.4707 217.044 88.4707C215.339 88.6243 213.092 89.0851 211.233 89.6995C211.698 88.9315 211.775 89.7763 212.085 88.6243C211.465 87.6259 210.071 86.7043 208.831 86.7043C208.444 86.7043 208.056 86.7811 207.746 86.9347C206.816 87.2419 199.301 99.2227 199.766 106.288C199.843 109.207 202.4 111.05 205.189 111.05C207.901 110.973 210.691 106.98 211.62 104.752C212.55 102.372 213.945 97.5331 213.79 94.9219C213.712 93.9235 213.557 92.7715 213.17 91.8499C215.184 91.3891 217.276 90.9283 219.678 90.7747ZM204.337 107.901C204.26 106.442 205.267 102.295 206.352 99.2227C206.662 98.7619 207.979 95.2291 209.606 92.6179C209.761 93.0019 209.916 93.2323 209.916 93.6163C210.226 97.3027 207.669 105.367 204.957 108.208C204.879 108.439 204.802 108.669 204.492 108.669C204.415 108.362 204.415 108.132 204.337 107.901ZM221.847 108.669V108.132C221.847 105.213 222.7 100.452 223.862 97.1491C224.482 95.6899 224.559 94.9219 224.947 94.0003C225.721 92.0803 227.736 84.8611 223.707 84.8611C223.165 84.8611 221.692 84.6307 221.227 84.6307C221.227 84.6307 221.073 84.7075 220.918 84.9379C221.305 85.5523 220.84 86.0131 220.84 86.6275C220.84 88.3171 219.523 92.7715 219.213 94.0003C217.973 98.0707 216.579 102.295 216.579 106.596C216.579 108.746 216.889 109.207 218.438 110.743C218.903 111.204 222.235 111.741 222.932 111.741C223.165 111.741 223.319 111.664 223.397 111.588C223.629 111.434 224.017 111.434 224.172 111.05C226.729 109.207 230.835 98.5315 231.455 96.6115C232.54 96.7651 233.857 96.9187 234.864 96.9187C235.329 96.9187 235.794 96.9187 236.026 96.7651C236.646 96.3811 236.569 96.3043 236.879 96.1507C236.724 96.1507 236.646 96.1507 236.414 95.9971C236.724 95.7667 236.956 95.9203 237.111 95.7667C237.421 95.5363 237.886 94.9987 237.963 94.8451L238.118 94.7683L232.075 93.8467C232.54 92.3107 233.16 89.2387 231.61 89.0083L230.68 88.8547C230.215 88.8547 230.293 88.9315 230.06 88.9315C230.06 88.9315 229.905 88.9315 229.75 88.9315C229.75 88.9315 229.595 89.0083 229.595 89.2387C228.821 90.2371 228.123 93.2323 228.123 94.9219C227.736 96.6115 223.629 106.98 221.847 108.669Z" fill="#574848"/>
<path d="M183.596 144.646C183.596 140.396 184.009 135.763 184.423 132C184.448 131.667 184.164 131.283 183.803 131.283C183.286 131.283 182.976 131.283 182.976 131.897C182.976 132.588 182.95 133.254 182.899 133.894C182.692 137.248 182.382 140.652 182.382 143.98C182.382 144.441 182.098 145.184 182.15 145.44C182.382 145.875 182.692 146.156 183.235 146.156C183.312 146.156 183.415 146.156 183.467 146.131C184.164 145.926 186.592 145.516 186.592 144.595C186.592 144.39 186.437 144.16 186.256 144.185C185.662 144.339 184.5 144.646 183.596 144.646ZM189.214 131.897C188.568 132.256 188.62 132.256 188.542 132.921C188.31 135.404 188.026 137.939 187.845 140.422C187.716 142.009 187.664 143.648 187.664 145.26C187.664 145.619 187.768 146.208 188.258 146.208C189.575 146.182 190.454 145.465 191.538 145.312C191.848 145.286 192.055 145.184 192.055 144.876C192.055 144.364 191.461 144.211 191.022 144.211C190.428 144.211 189.73 144.595 189.111 144.774C189.085 142.982 189.136 141.395 189.369 139.654C189.42 139.296 189.343 138.937 189.653 138.86C190.144 138.732 190.918 138.707 191.409 138.656C191.564 138.63 191.771 138.528 191.926 138.528C192.132 138.451 192.313 138.169 192.313 137.964C192.313 137.683 192.106 137.606 191.797 137.606L189.601 137.529C189.73 136.454 189.782 134.56 190.014 133.356C190.066 133.126 190.169 132.947 190.169 132.742C190.169 132.563 189.963 132.384 189.86 132.281L192.081 132.153C192.365 132.153 192.571 132.025 192.546 131.718C192.494 130.976 191.667 130.822 190.893 130.822C190.428 130.822 189.989 130.873 189.705 130.899C189.395 130.924 189.266 131.078 189.162 131.334M196.691 132.64C196.82 132.64 196.975 132.64 197.13 132.64C197.44 132.64 197.75 132.64 197.879 132.64C198.112 132.665 198.293 132.46 198.293 132.23C198.267 131.923 198.112 131.667 197.828 131.513C197.544 131.385 196.381 131.308 195.271 131.308C194.909 131.308 194.574 131.308 194.264 131.334C194.238 131.334 194.212 131.334 194.212 131.334C193.98 131.334 193.773 131.232 193.54 131.232C193.54 131.232 193.515 131.232 193.489 131.232C193.308 131.232 193.127 131.411 193.153 131.616C193.153 131.744 193.127 131.923 193.256 132.025C193.308 132.409 193.463 132.742 193.928 132.716C194.393 132.691 194.109 132.665 194.599 132.64C194.909 132.64 195.064 132.64 195.064 132.947C195.038 134.227 194.806 136.812 194.703 138.502C194.548 140.652 194.315 143.084 194.367 145.286C194.393 145.875 194.651 146.361 195.323 146.336C195.632 146.336 195.917 146.156 195.917 145.824C195.917 145.516 195.762 145.26 195.736 144.953C195.684 142.905 196.175 135.942 196.356 134.176C196.407 133.664 196.407 133.126 196.691 132.64ZM199.701 144.544C199.572 144.518 199.236 144.928 199.236 145.056C199.287 145.747 199.907 146.259 200.605 146.259C202.413 146.054 203.007 143.059 202.877 141.574C202.645 139.116 200.76 137.606 200.605 136.172C200.475 134.816 201.715 132.742 203.187 132.716C203.239 132.742 203.291 132.768 203.342 132.768C203.704 132.768 203.73 132.076 203.678 131.897C203.549 131.462 203.11 131.411 202.722 131.411C200.475 131.59 199.21 134.713 199.365 136.326C199.52 138.272 201.405 139.654 201.586 141.728C201.741 143.264 201.173 144.851 200.346 144.928C200.088 144.953 199.959 144.774 199.701 144.544ZM205.989 131.897C205.343 132.256 205.395 132.256 205.318 132.921C205.085 135.404 204.801 137.939 204.62 140.422C204.491 142.009 204.439 143.648 204.439 145.26C204.439 145.619 204.543 146.208 205.033 146.208C206.351 146.182 207.229 145.465 208.313 145.312C208.623 145.286 208.83 145.184 208.83 144.876C208.83 144.364 208.236 144.211 207.797 144.211C207.203 144.211 206.506 144.595 205.886 144.774C205.86 142.982 205.912 141.395 206.144 139.654C206.196 139.296 206.118 138.937 206.428 138.86C206.919 138.732 207.694 138.707 208.184 138.656C208.339 138.63 208.546 138.528 208.701 138.528C208.908 138.451 209.088 138.169 209.088 137.964C209.088 137.683 208.882 137.606 208.572 137.606L206.376 137.529C206.506 136.454 206.557 134.56 206.79 133.356C206.841 133.126 206.945 132.947 206.945 132.742C206.945 132.563 206.738 132.384 206.635 132.281L208.856 132.153C209.14 132.153 209.347 132.025 209.321 131.718C209.269 130.976 208.443 130.822 207.668 130.822C207.203 130.822 206.764 130.873 206.48 130.899C206.17 130.924 206.041 131.078 205.937 131.334M211.375 144.646C211.375 140.396 211.788 135.763 212.201 132C212.227 131.667 211.943 131.283 211.581 131.283C211.065 131.283 210.755 131.283 210.755 131.897C210.755 132.588 210.729 133.254 210.677 133.894C210.471 137.248 210.161 140.652 210.161 143.98C210.161 144.441 209.877 145.184 209.928 145.44C210.161 145.875 210.471 146.156 211.013 146.156C211.09 146.156 211.194 146.156 211.245 146.131C211.943 145.926 214.37 145.516 214.37 144.595C214.37 144.39 214.216 144.16 214.035 144.185C213.441 144.339 212.278 144.646 211.375 144.646ZM216.011 144.544C215.882 144.518 215.546 144.928 215.546 145.056C215.598 145.747 216.217 146.259 216.915 146.259C218.723 146.054 219.317 143.059 219.188 141.574C218.955 139.116 217.07 137.606 216.915 136.172C216.786 134.816 218.025 132.742 219.497 132.716C219.549 132.742 219.601 132.768 219.652 132.768C220.014 132.768 220.04 132.076 219.988 131.897C219.859 131.462 219.42 131.411 219.033 131.411C216.786 131.59 215.52 134.713 215.675 136.326C215.83 138.272 217.715 139.654 217.896 141.728C218.051 143.264 217.483 144.851 216.657 144.928C216.398 144.953 216.269 144.774 216.011 144.544ZM223.358 145.158C222.867 144.544 222.532 143.443 222.377 142.316C222.015 139.244 222.506 135.507 224.004 132.896C224.185 132.563 224.365 132.179 224.83 132.153C225.114 132.153 225.373 132.512 225.605 132.512C225.967 132.46 226.225 132.204 226.173 131.897C226.096 131.36 224.959 130.899 224.52 130.924C222.144 131.104 221.163 136.761 220.982 138.553C220.724 140.704 220.982 142.598 221.344 143.98C221.628 145.158 222.273 146.412 223.668 146.412C224.598 146.361 225.631 145.03 225.063 144.467C225.011 144.416 224.882 144.211 224.649 144.134C224.262 144.467 223.9 145.26 223.539 145.26C223.487 145.26 223.41 145.235 223.358 145.158ZM228.742 137.12C228.768 135.686 229.207 133.203 229.207 131.513C229.207 131.104 228.536 130.592 228.122 130.592C227.942 130.592 227.761 130.771 227.761 130.95C227.761 131.155 227.813 131.36 227.813 131.539C227.813 132.921 227.425 136.531 227.373 137.376C227.244 137.401 226.805 137.478 226.392 137.632C226.289 137.683 226.237 137.785 226.237 137.913C226.237 137.99 226.263 138.067 226.289 138.169C226.289 138.272 226.392 138.22 226.392 138.297C226.702 138.63 226.857 138.63 227.244 138.63C227.115 140.294 226.934 141.523 226.934 143.187C226.934 143.75 227.038 144.313 227.038 144.876C227.038 145.465 227.27 146.08 227.967 146.08C228.148 146.08 228.587 145.952 228.587 145.696C228.587 145.593 228.562 145.516 228.562 145.414C228.045 144.364 228.484 139.936 228.639 138.553C228.665 138.297 228.716 138.348 228.975 138.272C229.956 138.067 230.318 138.016 231.325 137.913C231.118 139.603 231.118 140.985 230.989 142.649C230.912 143.75 230.886 144.723 230.886 145.824C230.886 146.464 231.118 147.001 231.842 147.001C232.048 147.001 232.461 146.796 232.461 146.566C232.461 146.489 232.384 146.361 232.384 146.233C232.255 146.054 232.177 145.849 232.177 145.593C232.177 142.905 232.332 140.473 232.591 137.76C232.926 137.708 233.882 137.452 233.882 137.017C233.882 136.864 233.779 136.531 233.572 136.531C233.52 136.531 233.443 136.531 233.391 136.582L232.668 136.659C232.771 135.481 232.771 135.225 232.875 134.073C232.926 133.356 233.107 132.588 233.107 131.872C233.107 131.283 232.565 130.873 232.1 130.873C231.816 130.873 231.738 131.078 231.738 131.36C231.738 133.152 231.48 135.584 231.351 136.787C230.447 136.864 229.646 136.966 228.742 137.12ZM237.484 138.528C237.665 140.294 237.639 142.649 237.949 145.952C237.975 146.387 238.13 146.54 238.569 146.566C238.827 146.566 239.447 146.515 239.473 146.336C239.473 146.182 239.369 146.182 239.344 146.003C239.008 144.083 238.905 140.089 238.853 138.476C238.827 138.22 239.034 138.144 239.06 137.862C239.111 137.58 239.008 137.273 238.801 137.196C238.724 135.558 238.595 133.024 238.465 131.385C238.414 131.052 237.587 130.848 237.303 130.848C236.761 130.873 236.503 131.411 236.399 131.82C235.521 135.43 234.876 139.244 234.127 142.982C233.972 143.878 233.739 145.235 233.791 146.105C233.791 146.361 234.385 146.668 234.617 146.668C234.927 146.643 235.082 146.438 235.108 146.156C235.392 143.724 235.986 140.243 236.296 138.579C236.838 138.553 236.993 138.579 237.484 138.528ZM237.432 134.048C237.484 134.995 237.458 136.275 237.484 137.222C237.407 137.248 237.148 137.273 236.916 137.273C236.761 137.273 236.606 137.248 236.554 137.248C236.683 136.121 237.226 133.817 237.407 132.947M242.663 131.232C242.663 131.027 242.637 130.745 242.508 130.668C242.172 130.489 242.121 130.412 241.862 130.412C241.449 130.438 241.32 130.822 241.294 131.206C241.165 134.048 240.907 136.48 240.726 139.347C240.597 141.728 240.339 143.699 240.442 146.105C240.442 146.643 240.984 146.796 241.423 146.796C241.759 146.796 241.759 146.668 241.759 146.233C241.759 146.105 241.759 146.003 241.759 145.849C242.069 145.644 242.56 145.568 243.283 144.902C245.452 142.854 246.253 138.758 246.124 135.891C246.124 135.584 246.072 135.2 246.072 134.892C245.891 133.638 245.168 132.051 243.954 131.488C243.644 131.385 242.973 131.232 242.663 131.232ZM241.811 144.313C241.914 142.342 242.069 139.756 242.198 137.785C242.327 136.172 242.456 134.201 242.637 132.614C242.715 132.588 242.844 132.563 242.947 132.563C243.025 132.563 243.102 132.563 243.154 132.588C244.316 132.819 244.677 134.508 244.729 135.302C244.858 137.964 244.213 141.523 242.611 143.673C242.405 143.98 242.095 144.083 241.811 144.313ZM248.59 131.897C247.945 132.256 247.996 132.256 247.919 132.921C247.686 135.404 247.402 137.939 247.221 140.422C247.092 142.009 247.041 143.648 247.041 145.26C247.041 145.619 247.144 146.208 247.635 146.208C248.952 146.182 249.83 145.465 250.915 145.312C251.225 145.286 251.431 145.184 251.431 144.876C251.431 144.364 250.837 144.211 250.398 144.211C249.804 144.211 249.107 144.595 248.487 144.774C248.461 142.982 248.513 141.395 248.745 139.654C248.797 139.296 248.719 138.937 249.029 138.86C249.52 138.732 250.295 138.707 250.785 138.656C250.94 138.63 251.147 138.528 251.302 138.528C251.509 138.451 251.689 138.169 251.689 137.964C251.689 137.683 251.483 137.606 251.173 137.606L248.978 137.529C249.107 136.454 249.158 134.56 249.391 133.356C249.442 133.126 249.546 132.947 249.546 132.742C249.546 132.563 249.339 132.384 249.236 132.281L251.457 132.153C251.741 132.153 251.948 132.025 251.922 131.718C251.87 130.976 251.044 130.822 250.269 130.822C249.804 130.822 249.365 130.873 249.081 130.899C248.771 130.924 248.642 131.078 248.539 131.334M260.548 138.553C260.393 138.169 260.031 137.708 259.541 137.708C259.308 137.708 259.127 137.734 258.972 137.734C258.792 137.734 258.611 137.76 258.404 137.76C258.094 137.76 257.371 137.708 257.242 137.606C257.578 136.684 259.773 134.278 260.755 134.278C260.884 134.278 260.961 134.329 261.039 134.329C261.116 134.355 261.219 134.406 261.426 134.406C261.529 134.406 261.555 134.406 261.736 134.329C261.736 134.252 261.736 134.201 261.762 134.15C261.762 134.099 261.788 134.022 261.788 133.971C261.788 133.331 260.78 133.203 260.315 133.203C260.393 132.435 260.47 132.025 260.832 131.385C260.91 131.308 260.91 131.257 260.91 131.18C260.91 130.796 260.6 130.412 260.186 130.412C259.463 130.412 259.282 131.846 259.179 132.819C259.127 133.152 259.127 133.408 259.102 133.561C258.947 133.766 258.714 133.894 258.533 134.048C257.836 134.457 255.899 136.531 255.899 137.401C255.899 138.553 256.829 138.758 257.681 138.963C256.803 139.603 255.46 141.164 255.46 142.188C255.46 142.854 256.157 143.34 256.751 143.34C256.855 143.34 256.984 143.34 257.139 143.315C257.216 143.315 257.32 143.289 257.423 143.289C257.423 143.34 257.423 143.366 257.397 143.52C257.371 143.801 257.345 144.16 257.345 144.544C257.345 145.158 257.449 145.747 257.81 145.747C258.327 145.747 258.482 144.672 258.611 143.827C258.663 143.443 258.714 143.136 258.792 142.956C258.792 142.598 258.637 142.291 258.508 142.035C258.482 141.958 258.43 141.83 258.404 141.753C258.146 141.83 258.017 141.881 257.862 141.958C257.604 142.06 257.32 142.163 257.035 142.163C256.958 142.163 256.906 142.163 256.829 142.137C257.552 140.55 259.05 139.475 260.548 138.553ZM268.735 132.64C268.864 132.64 269.019 132.64 269.174 132.64C269.484 132.64 269.794 132.64 269.923 132.64C270.155 132.665 270.336 132.46 270.336 132.23C270.31 131.923 270.155 131.667 269.871 131.513C269.587 131.385 268.425 131.308 267.314 131.308C266.953 131.308 266.617 131.308 266.307 131.334C266.281 131.334 266.255 131.334 266.255 131.334C266.023 131.334 265.816 131.232 265.584 131.232C265.584 131.232 265.558 131.232 265.532 131.232C265.352 131.232 265.171 131.411 265.197 131.616C265.197 131.744 265.171 131.923 265.3 132.025C265.352 132.409 265.506 132.742 265.971 132.716C266.436 132.691 266.152 132.665 266.643 132.64C266.953 132.64 267.108 132.64 267.108 132.947C267.082 134.227 266.849 136.812 266.746 138.502C266.591 140.652 266.359 143.084 266.41 145.286C266.436 145.875 266.695 146.361 267.366 146.336C267.676 146.336 267.96 146.156 267.96 145.824C267.96 145.516 267.805 145.26 267.779 144.953C267.728 142.905 268.218 135.942 268.399 134.176C268.451 133.664 268.451 133.126 268.735 132.64ZM276.212 139.577C276.496 136.147 276.419 133.843 275.696 132.23C275.592 131.948 275.437 131.744 275.334 131.692C274.947 131.436 274.637 131.385 274.275 131.308C274.146 131.308 274.069 131.334 273.965 131.334C273.888 131.334 273.81 131.308 273.681 131.232C273.578 131.155 273.475 131.104 273.371 131.104C272.906 131.104 272.571 131.974 272.467 132.409C272.002 134.304 271.667 136.096 271.486 138.016C271.305 140.064 271.15 141.881 271.408 144.032C271.46 144.467 271.486 144.928 271.693 145.337C271.977 145.9 272.545 146.412 273.216 146.412C275.412 146.412 276.057 141.088 276.212 139.577ZM273.165 145.132C272.028 143.699 273.242 133.28 274.146 132.076C275.257 133.075 275.05 137.99 274.895 139.398C274.663 141.139 274.198 143.443 273.371 145.03C273.32 145.107 273.268 145.209 273.242 145.209C273.216 145.209 273.191 145.184 273.165 145.132ZM278.885 131.897C278.24 132.256 278.291 132.256 278.214 132.921C277.981 135.404 277.697 137.939 277.517 140.422C277.387 142.009 277.336 143.648 277.336 145.26C277.336 145.619 277.439 146.208 277.93 146.208C279.247 146.182 280.125 145.465 281.21 145.312C281.52 145.286 281.726 145.184 281.726 144.876C281.726 144.364 281.132 144.211 280.693 144.211C280.099 144.211 279.402 144.595 278.782 144.774C278.756 142.982 278.808 141.395 279.04 139.654C279.092 139.296 279.014 138.937 279.324 138.86C279.815 138.732 280.59 138.707 281.081 138.656C281.236 138.63 281.442 138.528 281.597 138.528C281.804 138.451 281.985 138.169 281.985 137.964C281.985 137.683 281.778 137.606 281.468 137.606L279.273 137.529C279.402 136.454 279.454 134.56 279.686 133.356C279.738 133.126 279.841 132.947 279.841 132.742C279.841 132.563 279.634 132.384 279.531 132.281L281.752 132.153C282.036 132.153 282.243 132.025 282.217 131.718C282.165 130.976 281.339 130.822 280.564 130.822C280.099 130.822 279.66 130.873 279.376 130.899C279.066 130.924 278.937 131.078 278.834 131.334M285.123 131.232C285.123 131.027 285.097 130.745 284.968 130.668C284.632 130.489 284.581 130.412 284.323 130.412C283.909 130.438 283.78 130.822 283.754 131.206C283.625 134.048 283.367 136.48 283.186 139.347C283.057 141.728 282.799 143.699 282.902 146.105C282.902 146.643 283.444 146.796 283.883 146.796C284.219 146.796 284.219 146.668 284.219 146.233C284.219 146.105 284.219 146.003 284.219 145.849C284.529 145.644 285.02 145.568 285.743 144.902C287.912 142.854 288.713 138.758 288.584 135.891C288.584 135.584 288.532 135.2 288.532 134.892C288.352 133.638 287.628 132.051 286.415 131.488C286.105 131.385 285.433 131.232 285.123 131.232ZM284.271 144.313C284.374 142.342 284.529 139.756 284.658 137.785C284.787 136.172 284.917 134.201 285.097 132.614C285.175 132.588 285.304 132.563 285.407 132.563C285.485 132.563 285.562 132.563 285.614 132.588C286.776 132.819 287.138 134.508 287.189 135.302C287.318 137.964 286.673 141.523 285.072 143.673C284.865 143.98 284.555 144.083 284.271 144.313ZM289.836 131.718C289.836 131.897 290.198 131.974 290.224 132.742C290.276 133.484 290.017 135.814 289.966 136.582C289.862 138.656 289.785 140.729 289.707 142.828C289.656 143.827 289.604 144.851 289.63 145.875C289.656 146.566 289.966 146.72 290.611 146.72C290.921 146.72 290.973 146.156 290.947 145.414C290.921 144.236 291.025 142.675 291.05 142.316C291.076 141.625 291.154 141.139 291.154 140.217C291.567 141.088 292.858 144.288 293.917 144.441C293.969 144.441 294.02 144.441 294.072 144.441C294.305 144.441 294.563 144.339 294.46 144.108C294.279 143.776 293.375 142.188 292.703 140.652C292.652 140.524 292.135 139.142 292.006 139.014C292.858 138.041 294.02 136.556 293.969 134.534C293.917 132.256 292.574 131.718 292.032 131.283C291.825 130.924 291.541 130.694 291.102 130.694C290.482 130.72 290.224 131.283 289.836 131.718ZM291.257 137.734C291.36 136.633 291.593 133.92 291.67 132.819C292.135 132.896 292.703 133.587 292.677 134.585C292.626 135.993 291.877 137.299 291.257 137.734ZM298.373 138.528C298.554 140.294 298.528 142.649 298.838 145.952C298.864 146.387 299.019 146.54 299.458 146.566C299.716 146.566 300.336 146.515 300.362 146.336C300.362 146.182 300.258 146.182 300.233 146.003C299.897 144.083 299.794 140.089 299.742 138.476C299.716 138.22 299.923 138.144 299.948 137.862C300 137.58 299.897 137.273 299.69 137.196C299.613 135.558 299.484 133.024 299.354 131.385C299.303 131.052 298.476 130.848 298.192 130.848C297.65 130.873 297.392 131.411 297.288 131.82C296.41 135.43 295.765 139.244 295.016 142.982C294.861 143.878 294.628 145.235 294.68 146.105C294.68 146.361 295.274 146.668 295.506 146.668C295.816 146.643 295.971 146.438 295.997 146.156C296.281 143.724 296.875 140.243 297.185 138.579C297.727 138.553 297.882 138.579 298.373 138.528ZM298.321 134.048C298.373 134.995 298.347 136.275 298.373 137.222C298.296 137.248 298.037 137.273 297.805 137.273C297.65 137.273 297.495 137.248 297.443 137.248C297.572 136.121 298.115 133.817 298.296 132.947M303.836 145.158C303.345 144.544 303.01 143.443 302.855 142.316C302.493 139.244 302.984 135.507 304.482 132.896C304.663 132.563 304.843 132.179 305.308 132.153C305.592 132.153 305.851 132.512 306.083 132.512C306.445 132.46 306.703 132.204 306.651 131.897C306.574 131.36 305.437 130.899 304.998 130.924C302.622 131.104 301.641 136.761 301.46 138.553C301.202 140.704 301.46 142.598 301.822 143.98C302.106 145.158 302.751 146.412 304.146 146.412C305.076 146.361 306.109 145.03 305.541 144.467C305.489 144.416 305.36 144.211 305.127 144.134C304.74 144.467 304.378 145.26 304.017 145.26C303.965 145.26 303.888 145.235 303.836 145.158ZM309.22 137.12C309.246 135.686 309.685 133.203 309.685 131.513C309.685 131.104 309.014 130.592 308.6 130.592C308.42 130.592 308.239 130.771 308.239 130.95C308.239 131.155 308.29 131.36 308.29 131.539C308.29 132.921 307.903 136.531 307.851 137.376C307.722 137.401 307.283 137.478 306.87 137.632C306.767 137.683 306.715 137.785 306.715 137.913C306.715 137.99 306.741 138.067 306.767 138.169C306.767 138.272 306.87 138.22 306.87 138.297C307.18 138.63 307.335 138.63 307.722 138.63C307.593 140.294 307.412 141.523 307.412 143.187C307.412 143.75 307.516 144.313 307.516 144.876C307.516 145.465 307.748 146.08 308.445 146.08C308.626 146.08 309.065 145.952 309.065 145.696C309.065 145.593 309.039 145.516 309.039 145.414C308.523 144.364 308.962 139.936 309.117 138.553C309.143 138.297 309.194 138.348 309.453 138.272C310.434 138.067 310.796 138.016 311.803 137.913C311.596 139.603 311.596 140.985 311.467 142.649C311.39 143.75 311.364 144.723 311.364 145.824C311.364 146.464 311.596 147.001 312.319 147.001C312.526 147.001 312.939 146.796 312.939 146.566C312.939 146.489 312.862 146.361 312.862 146.233C312.733 146.054 312.655 145.849 312.655 145.593C312.655 142.905 312.81 140.473 313.068 137.76C313.404 137.708 314.36 137.452 314.36 137.017C314.36 136.864 314.257 136.531 314.05 136.531C313.998 136.531 313.921 136.531 313.869 136.582L313.146 136.659C313.249 135.481 313.249 135.225 313.353 134.073C313.404 133.356 313.585 132.588 313.585 131.872C313.585 131.283 313.043 130.873 312.578 130.873C312.294 130.873 312.216 131.078 312.216 131.36C312.216 133.152 311.958 135.584 311.829 136.787C310.925 136.864 310.124 136.966 309.22 137.12ZM318.246 132.64C318.375 132.64 318.53 132.64 318.685 132.64C318.995 132.64 319.305 132.64 319.434 132.64C319.667 132.665 319.847 132.46 319.847 132.23C319.822 131.923 319.667 131.667 319.382 131.513C319.098 131.385 317.936 131.308 316.826 131.308C316.464 131.308 316.128 131.308 315.818 131.334C315.586 131.334 315.328 131.232 315.095 131.232C315.095 131.232 315.069 131.232 315.044 131.232C314.863 131.232 314.682 131.411 314.708 131.616C314.708 131.744 314.682 131.923 314.811 132.025C314.863 132.409 315.018 132.742 315.483 132.716C315.947 132.691 315.663 132.665 316.154 132.64C316.464 132.64 316.619 132.64 316.619 132.947C316.593 134.227 316.361 136.812 316.257 138.502C316.102 140.652 315.87 143.084 315.922 145.286C315.947 145.875 316.206 146.361 316.877 146.336C317.187 146.336 317.471 146.156 317.471 145.824C317.471 145.516 317.316 145.26 317.291 144.953C317.239 142.905 317.73 135.942 317.91 134.176C317.962 133.664 317.962 133.126 318.246 132.64ZM325.724 139.577C326.008 136.147 325.93 133.843 325.207 132.23C325.104 131.948 324.949 131.744 324.845 131.692C324.458 131.436 324.148 131.385 323.786 131.308C323.657 131.308 323.58 131.334 323.477 131.334C323.399 131.334 323.322 131.308 323.192 131.232C323.089 131.155 322.986 131.104 322.883 131.104C322.418 131.104 322.082 131.974 321.979 132.409C321.514 134.304 321.178 136.096 320.997 138.016C320.816 140.064 320.661 141.881 320.92 144.032C320.971 144.467 320.997 144.928 321.204 145.337C321.488 145.9 322.056 146.412 322.728 146.412C324.923 146.412 325.569 141.088 325.724 139.577ZM322.676 145.132C321.54 143.699 322.753 133.28 323.657 132.076C324.768 133.075 324.561 137.99 324.406 139.398C324.174 141.139 323.709 143.443 322.883 145.03C322.831 145.107 322.779 145.209 322.753 145.209C322.728 145.209 322.702 145.184 322.676 145.132ZM331.186 141.958C331.186 141.625 331.108 141.292 331.031 140.985C330.747 139.603 330.54 138.374 330.282 136.992C330.127 135.968 329.92 134.816 329.74 133.817C329.636 133.177 329.585 132.512 329.43 131.897C329.301 131.283 329.016 131.155 328.422 131.155C327.751 131.155 327.415 131.769 327.441 132.716C327.467 134.79 327.389 136.864 327.312 138.937C327.286 140.089 327.234 141.42 327.183 142.547C327.054 143.98 326.821 145.107 327.079 146.08C327.131 146.31 327.338 146.438 327.57 146.438C327.803 146.438 328.087 146.284 328.164 145.952C328.422 144.876 328.603 137.376 328.603 137.222C328.629 136.71 328.655 135.584 328.629 135.046C328.758 135.2 329.301 138.656 329.352 138.937C329.404 139.219 329.998 142.803 330.695 145.516C330.747 145.721 330.979 145.9 331.212 145.9C331.496 145.875 331.651 145.67 331.677 145.388C332.167 145.388 332.451 145.184 332.451 144.8C332.451 144.467 332.348 144.16 332.348 143.827C332.4 141.446 332.477 137.324 332.606 134.969C332.658 134.073 332.736 132.742 332.71 131.846C332.71 131.539 332.4 131.232 332.038 131.232C331.935 131.232 331.832 131.257 331.728 131.334C331.418 131.488 331.418 133.356 331.418 133.792C331.393 134.79 331.212 139.5 331.186 141.958ZM336.132 131.232C336.132 131.027 336.106 130.745 335.977 130.668C335.641 130.489 335.59 130.412 335.331 130.412C334.918 130.438 334.789 130.822 334.763 131.206C334.634 134.048 334.376 136.48 334.195 139.347C334.066 141.728 333.808 143.699 333.911 146.105C333.911 146.643 334.453 146.796 334.892 146.796C335.228 146.796 335.228 146.668 335.228 146.233C335.228 146.105 335.228 146.003 335.228 145.849C335.538 145.644 336.029 145.568 336.752 144.902C338.921 142.854 339.722 138.758 339.593 135.891C339.593 135.584 339.541 135.2 339.541 134.892C339.36 133.638 338.637 132.051 337.423 131.488C337.113 131.385 336.442 131.232 336.132 131.232ZM335.28 144.313C335.383 142.342 335.538 139.756 335.667 137.785C335.796 136.172 335.925 134.201 336.106 132.614C336.184 132.588 336.313 132.563 336.416 132.563C336.494 132.563 336.571 132.563 336.623 132.588C337.785 132.819 338.146 134.508 338.198 135.302C338.327 137.964 337.682 141.523 336.08 143.673C335.874 143.98 335.564 144.083 335.28 144.313ZM342.059 131.897C341.413 132.256 341.465 132.256 341.388 132.921C341.155 135.404 340.871 137.939 340.69 140.422C340.561 142.009 340.51 143.648 340.51 145.26C340.51 145.619 340.613 146.208 341.104 146.208C342.421 146.182 343.299 145.465 344.384 145.312C344.693 145.286 344.9 145.184 344.9 144.876C344.9 144.364 344.306 144.211 343.867 144.211C343.273 144.211 342.576 144.595 341.956 144.774C341.93 142.982 341.982 141.395 342.214 139.654C342.266 139.296 342.188 138.937 342.498 138.86C342.989 138.732 343.764 138.707 344.254 138.656C344.409 138.63 344.616 138.528 344.771 138.528C344.978 138.451 345.158 138.169 345.158 137.964C345.158 137.683 344.952 137.606 344.642 137.606L342.447 137.529C342.576 136.454 342.627 134.56 342.86 133.356C342.911 133.126 343.015 132.947 343.015 132.742C343.015 132.563 342.808 132.384 342.705 132.281L344.926 132.153C345.21 132.153 345.417 132.025 345.391 131.718C345.339 130.976 344.513 130.822 343.738 130.822C343.273 130.822 342.834 130.873 342.55 130.899C342.24 130.924 342.111 131.078 342.007 131.334M346.308 131.718C346.308 131.897 346.67 131.974 346.696 132.742C346.747 133.484 346.489 135.814 346.437 136.582C346.334 138.656 346.257 140.729 346.179 142.828C346.127 143.827 346.076 144.851 346.102 145.875C346.127 146.566 346.437 146.72 347.083 146.72C347.393 146.72 347.445 146.156 347.419 145.414C347.393 144.236 347.496 142.675 347.522 142.316C347.548 141.625 347.625 141.139 347.625 140.217C348.039 141.088 349.33 144.288 350.389 144.441C350.441 144.441 350.492 144.441 350.544 144.441C350.776 144.441 351.035 144.339 350.931 144.108C350.751 143.776 349.847 142.188 349.175 140.652C349.123 140.524 348.607 139.142 348.478 139.014C349.33 138.041 350.492 136.556 350.441 134.534C350.389 132.256 349.046 131.718 348.504 131.283C348.297 130.924 348.013 130.694 347.574 130.694C346.954 130.72 346.696 131.283 346.308 131.718ZM347.729 137.734C347.832 136.633 348.065 133.92 348.142 132.819C348.607 132.896 349.175 133.587 349.149 134.585C349.098 135.993 348.349 137.299 347.729 137.734ZM355.516 132.204C355.568 132.87 353.967 137.145 353.605 138.22C353.063 139.731 352.262 142.06 351.849 143.545C351.642 144.083 351.461 144.185 351.487 144.748C351.513 144.979 351.616 145.132 351.746 145.286C352.52 146.105 353.244 146.208 354.096 146.208C354.354 146.208 354.664 146.208 354.974 146.208C355.465 146.208 356.42 146.208 356.343 145.516C356.317 145.056 355.775 144.825 355.413 144.825C355.103 144.825 354.845 145.004 354.509 145.004C354.432 144.979 354.354 144.979 354.302 144.979C353.993 144.979 353.734 145.03 353.45 145.03C353.192 145.03 352.959 144.928 352.985 144.672C353.089 143.724 353.889 141.344 354.354 139.961C355.051 137.862 355.826 135.788 356.524 133.715C356.704 133.228 356.859 132.793 357.247 132.384C357.402 132.281 357.505 132.076 357.479 131.897C357.402 131.001 356.42 130.873 355.594 130.873C355.31 130.873 355.051 130.899 354.845 130.899C354.509 130.899 352.624 130.924 352.649 131.308C352.701 131.718 353.269 132.384 353.734 132.384C354.122 132.384 354.535 132.153 354.974 132.153C355.155 132.153 355.336 132.153 355.516 132.204ZM363.536 139.577C363.82 136.147 363.743 133.843 363.02 132.23C362.916 131.948 362.762 131.744 362.658 131.692C362.271 131.436 361.961 131.385 361.599 131.308C361.47 131.308 361.393 131.334 361.289 131.334C361.212 131.334 361.134 131.308 361.005 131.232C360.902 131.155 360.799 131.104 360.695 131.104C360.23 131.104 359.895 131.974 359.791 132.409C359.327 134.304 358.991 136.096 358.81 138.016C358.629 140.064 358.474 141.881 358.733 144.032C358.784 144.467 358.81 144.928 359.017 145.337C359.301 145.9 359.869 146.412 360.54 146.412C362.736 146.412 363.381 141.088 363.536 139.577ZM360.489 145.132C359.352 143.699 360.566 133.28 361.47 132.076C362.581 133.075 362.374 137.99 362.219 139.398C361.987 141.139 361.522 143.443 360.695 145.03C360.644 145.107 360.592 145.209 360.566 145.209C360.54 145.209 360.515 145.184 360.489 145.132ZM366.209 131.897C365.564 132.256 365.615 132.256 365.538 132.921C365.305 135.404 365.021 137.939 364.841 140.422C364.711 142.009 364.66 143.648 364.66 145.26C364.66 145.619 364.763 146.208 365.254 146.208C366.571 146.182 367.449 145.465 368.534 145.312C368.844 145.286 369.05 145.184 369.05 144.876C369.05 144.364 368.456 144.211 368.017 144.211C367.423 144.211 366.726 144.595 366.106 144.774C366.08 142.982 366.132 141.395 366.364 139.654C366.416 139.296 366.339 138.937 366.648 138.86C367.139 138.732 367.914 138.707 368.405 138.656C368.56 138.63 368.766 138.528 368.921 138.528C369.128 138.451 369.309 138.169 369.309 137.964C369.309 137.683 369.102 137.606 368.792 137.606L366.597 137.529C366.726 136.454 366.778 134.56 367.01 133.356C367.062 133.126 367.165 132.947 367.165 132.742C367.165 132.563 366.958 132.384 366.855 132.281L369.076 132.153C369.36 132.153 369.567 132.025 369.541 131.718C369.489 130.976 368.663 130.822 367.888 130.822C367.423 130.822 366.984 130.873 366.7 130.899C366.39 130.924 366.261 131.078 366.158 131.334M372.215 135.712C372.241 134.713 372.499 133.152 372.551 132.128C372.576 131.616 372.137 131.052 371.647 131.052C371.621 131.052 371.595 131.052 371.595 131.052C371.337 131.052 371.156 131.206 371.13 131.462C371.053 132.358 370.975 133.177 370.923 134.022C370.82 135.2 370.691 136.633 370.588 137.785C370.459 139.859 370.252 142.572 370.252 144.62C370.252 145.107 370.329 146.489 371.001 146.489C371.027 146.489 371.078 146.464 371.104 146.438C371.569 146.438 371.595 146.156 371.595 145.9C371.543 144.108 371.724 141.984 371.879 140.192C371.905 140.012 371.931 139.808 371.931 139.654C372.499 140.55 374.152 143.443 375.211 143.443C375.417 143.443 375.753 143.366 375.753 143.136C375.753 142.88 372.551 138.604 372.551 137.683C373.015 136.889 374.488 134.969 375.572 133.894C375.96 133.484 375.882 132.537 375.211 132.537C374.513 132.537 372.86 135.302 372.215 135.712Z" fill="#574848"/>
</svg>
