<svg width="2" height="2" viewBox="0 0 2 2" fill="none" xmlns="http://www.w3.org/2000/svg">
<path d="M1.20638 1.64804C1.17315 1.56197 1.15182 1.46572 1.15224 1.37436C1.15074 1.31132 1.15117 1.24763 1.18663 1.19414C1.20613 1.16364 1.23826 1.13064 1.26247 1.10167C1.40939 0.929612 1.47746 0.714597 1.43372 0.49653C1.32436 -0.00250684 0.663489 -0.158491 0.300006 0.181509C0.155692 0.313983 0.0813737 0.513456 0.120596 0.709256C0.145067 0.797534 0.115877 0.833845 0.0628364 0.923339C0.0434232 0.956824 0.0111241 0.994662 0.000131765 1.0295C-0.0023832 1.06031 0.0316396 1.0843 0.0563371 1.10069C0.0849342 1.11812 0.0899358 1.13431 0.0782652 1.16017C0.0550372 1.21092 0.0802432 1.20937 0.0985827 1.24862C0.102058 1.26116 0.0919421 1.2756 0.0925073 1.29049C0.092592 1.29815 0.0947962 1.3055 0.0989501 1.31194C0.10853 1.32856 0.13091 1.33673 0.135629 1.35603C0.138455 1.39155 0.117403 1.43029 0.138031 1.46397C0.181209 1.53823 0.280253 1.52597 0.369181 1.50986C0.377602 1.47493 0.382491 1.43908 0.382321 1.40429C0.383254 1.3643 0.383 1.3239 0.360506 1.28996C0.348129 1.27063 0.327755 1.24969 0.312411 1.23132C0.219216 1.12219 0.176038 0.985789 0.203787 0.847466C0.273161 0.53092 0.692368 0.43196 0.922925 0.647625C1.01448 0.731665 1.06162 0.858176 1.03672 0.98237C1.02121 1.03838 1.03972 1.06141 1.07337 1.11818C1.08569 1.13943 1.10618 1.16342 1.11316 1.18552C1.11477 1.20504 1.09315 1.22027 1.0775 1.23067C1.05935 1.24175 1.05619 1.25201 1.06359 1.26843C1.07834 1.30061 1.06235 1.29962 1.05071 1.32452C1.0485 1.33249 1.05492 1.34164 1.05455 1.35108C1.05449 1.35594 1.05311 1.3606 1.05045 1.3647C1.04438 1.37524 1.03019 1.38041 1.0272 1.39265C1.02539 1.41517 1.03875 1.43975 1.02567 1.46112C0.991564 1.51975 0.902551 1.49333 0.839366 1.48307C0.815008 1.47931 0.790084 1.47369 0.770078 1.48858C0.736592 1.51379 0.717235 1.58039 0.71359 1.62077C0.698246 1.79063 0.842899 1.92542 0.931516 1.92542H1.34976C1.34728 1.92079 1.34485 1.91627 1.34227 1.91144C1.29483 1.82929 1.23628 1.7188 1.20638 1.64804ZM0.281384 0.260801C0.305997 0.260801 0.325918 0.280751 0.325918 0.305336C0.325918 0.32992 0.305968 0.349871 0.281384 0.349871C0.256799 0.349871 0.236849 0.32992 0.236849 0.305336C0.236849 0.280751 0.256799 0.260801 0.281384 0.260801ZM0.264881 0.61787C0.211643 0.61787 0.168465 0.574691 0.168465 0.521453C0.168465 0.468215 0.211643 0.425037 0.264881 0.425037C0.318119 0.425037 0.361297 0.468215 0.361297 0.521453C0.361297 0.574691 0.318119 0.61787 0.264881 0.61787ZM0.414196 0.497434C0.397016 0.497434 0.383084 0.483503 0.383084 0.466322C0.383084 0.449141 0.397016 0.43521 0.414196 0.43521C0.431377 0.43521 0.445308 0.449141 0.445308 0.466322C0.445308 0.483503 0.431377 0.497434 0.414196 0.497434ZM0.561195 0.448039C0.471617 0.448039 0.398994 0.375416 0.398994 0.285838C0.398994 0.19626 0.471617 0.123637 0.561195 0.123637C0.650772 0.123637 0.723396 0.19626 0.723396 0.285838C0.723396 0.375416 0.650772 0.448039 0.561195 0.448039ZM1.31924 0.869818C1.28714 0.869818 1.26112 0.843792 1.26112 0.811691C1.26112 0.77959 1.28714 0.753564 1.31924 0.753564C1.35135 0.753564 1.37737 0.77959 1.37737 0.811691C1.37737 0.843792 1.35135 0.869818 1.31924 0.869818ZM1.34205 0.456149C1.37387 0.456149 1.39964 0.48192 1.39964 0.513739C1.39964 0.545557 1.37387 0.571329 1.34205 0.571329C1.31023 0.571329 1.28446 0.545529 1.28446 0.513739C1.28446 0.481949 1.31023 0.456149 1.34205 0.456149ZM1.2449 0.253624C1.27075 0.253624 1.29172 0.274591 1.29172 0.300447C1.29172 0.326303 1.27075 0.347271 1.2449 0.347271C1.21904 0.347271 1.19807 0.326303 1.19807 0.300447C1.19807 0.274591 1.21904 0.253624 1.2449 0.253624ZM1.21342 0.38751C1.23975 0.38751 1.26112 0.408873 1.26112 0.43521C1.26112 0.461546 1.23975 0.482909 1.21342 0.482909C1.18708 0.482909 1.16572 0.461546 1.16572 0.43521C1.16572 0.408873 1.18708 0.38751 1.21342 0.38751ZM0.863527 0.0614693C0.9162 0.0614693 0.958926 0.104167 0.958926 0.156868C0.958926 0.20957 0.916228 0.252267 0.863527 0.252267C0.810826 0.252267 0.768128 0.20957 0.768128 0.156868C0.768128 0.104167 0.810826 0.0614693 0.863527 0.0614693ZM0.907412 0.551463C0.843209 0.551463 0.791158 0.499412 0.791158 0.43521C0.791158 0.371008 0.843209 0.318956 0.907412 0.318956C0.971614 0.318956 1.02367 0.371008 1.02367 0.43521C1.02367 0.499412 0.971614 0.551463 0.907412 0.551463ZM1.00366 0.260801C1.00366 0.224094 1.03341 0.194338 1.07012 0.194338C1.10683 0.194338 1.13658 0.224094 1.13658 0.260801C1.13658 0.297508 1.10683 0.327264 1.07012 0.327264C1.03341 0.327264 1.00366 0.297508 1.00366 0.260801ZM1.05192 0.667745C1.05192 0.603543 1.10397 0.551491 1.16818 0.551491C1.23238 0.551491 1.28443 0.603543 1.28443 0.667745C1.28443 0.731947 1.23238 0.783998 1.16818 0.783998C1.10397 0.783998 1.05192 0.731947 1.05192 0.667745ZM1.07526 0.96273C1.07526 0.911414 1.11686 0.869818 1.1682 0.869818C1.21955 0.869818 1.26112 0.911414 1.26112 0.96273C1.26112 1.01405 1.21952 1.05567 1.1682 1.05567C1.11689 1.05567 1.07526 1.01408 1.07526 0.96273Z" fill="#574848"/>
</svg>
